STARTFONT 2.1
FONT -xos4-Terminus-Medium-R-Normal--24-240-72-72-C-120-ISO10646-1
SIZE 48 72 72
FONTBOUNDINGBOX 24 48 0 -10
STARTPROPERTIES 20
FAMILY_NAME "Terminus"
FOUNDRY "xos4"
SETWIDTH_NAME "Normal"
ADD_STYLE_NAME ""
COPYRIGHT "Copyright (C) 2020 Dimitar Toshkov Zhekov"
NOTICE "Licensed under the SIL Open Font License, Version 1.1"
WEIGHT_NAME "Medium"
SLANT "R"
PIXEL_SIZE 24
POINT_SIZE 240
RESOLUTION_X 72
RESOLUTION_Y 72
SPACING "C"
AVERAGE_WIDTH 120
CHARSET_REGISTRY "ISO10646"
CHARSET_ENCODING "1"
MIN_SPACE 12
FONT_ASCENT 38
FONT_DESCENT 10
DEFAULT_CHAR 65533
ENDPROPERTIES
CHARS 1356
STARTCHAR char0
ENCODING 0
SWIDTH 500 0
DWIDTH 24 0
BBX 24 48 0 -10
BITMAP
000000
000000
000000
000000
000000
000000
000000
000000
3F03F0
3F03F0
300030
300030
300030
300030
300030
300030
000000
000000
000000
000000
300030
300030
300030
300030
300030
300030
000000
000000
000000
000000
300030
300030
300030
300030
300030
300030
3F03F0
3F03F0
000000
000000
000000
000000
000000
000000
000000
000000
000000
000000
ENDCHAR
STARTCHAR space
ENCODING 32
SWIDTH 500 0
DWIDTH 24 0
BBX 24 48 0 -10
BITMAP
000000
000000
000000
000000
000000
000000
000000
000000
000000
000000
000000
000000
000000
000000
000000
000000
000000
000000
000000
000000
000000
000000
000000
000000
000000
000000
000000
000000
000000
000000
000000
000000
000000
000000
000000
000000
000000
000000
000000
000000
000000
000000
000000
000000
000000
000000
000000
000000
ENDCHAR
STARTCHAR exclam
ENCODING 33
SWIDTH 500 0
DWIDTH 24 0
BBX 24 48 0 -10
BITMAP
000000
000000
000000
000000
000000
000000
000000
000000
003000
003000
003000
003000
003000
003000
003000
003000
003000
003000
003000
003000
003000
003000
003000
003000
003000
003000
003000
003000
000000
000000
000000
000000
003000
003000
003000
003000
003000
003000
000000
000000
000000
000000
000000
000000
000000
000000
000000
000000
ENDCHAR
STARTCHAR quotedbl
ENCODING 34
SWIDTH 500 0
DWIDTH 24 0
BBX 24 48 0 -10
BITMAP
000000
000000
000000
000000
030300
030300
030300
030300
030300
030300
030300
030300
030300
030300
000000
000000
000000
000000
000000
000000
000000
000000
000000
000000
000000
000000
000000
000000
000000
000000
000000
000000
000000
000000
000000
000000
000000
000000
000000
000000
000000
000000
000000
000000
000000
000000
000000
000000
ENDCHAR
STARTCHAR numbersign
ENCODING 35
SWIDTH 500 0
DWIDTH 24 0
BBX 24 48 0 -10
BITMAP
000000
000000
000000
000000
000000
000000
000000
000000
030300
030300
030300
030300
030300
030300
030300
030300
3FFFF0
3FFFF0
030300
030300
030300
030300
030300
030300
030300
030300
030300
030300
3FFFF0
3FFFF0
030300
030300
030300
030300
030300
030300
030300
030300
000000
000000
000000
000000
000000
000000
000000
000000
000000
000000
ENDCHAR
STARTCHAR dollar
ENCODING 36
SWIDTH 500 0
DWIDTH 24 0
BBX 24 48 0 -10
BITMAP
000000
000000
000000
000000
000000
000000
003000
003000
003000
003000
03FF00
03FF00
0C30C0
0C30C0
303030
303030
303000
303000
303000
303000
0C3000
0C3000
03FF00
03FF00
0030C0
0030C0
003030
003030
003030
003030
303030
303030
0C30C0
0C30C0
03FF00
03FF00
003000
003000
003000
003000
000000
000000
000000
000000
000000
000000
000000
000000
ENDCHAR
STARTCHAR percent
ENCODING 37
SWIDTH 500 0
DWIDTH 24 0
BBX 24 48 0 -10
BITMAP
000000
000000
000000
000000
000000
000000
000000
000000
000000
000000
0F00C0
0F00C0
30C0C0
30C0C0
30C300
30C300
0F0300
0F0300
000C00
000C00
000C00
000C00
003000
003000
003000
003000
00C000
00C000
00C000
00C000
0303C0
0303C0
030C30
030C30
0C0C30
0C0C30
0C03C0
0C03C0
000000
000000
000000
000000
000000
000000
000000
000000
000000
000000
ENDCHAR
STARTCHAR ampersand
ENCODING 38
SWIDTH 500 0
DWIDTH 24 0
BBX 24 48 0 -10
BITMAP
000000
000000
000000
000000
000000
000000
000000
000000
03FC00
03FC00
0C0300
0C0300
0C0300
0C0300
0C0300
0C0300
0C0300
0C0300
030C00
030C00
00F000
00F000
033000
033000
0C0C30
0C0C30
300330
300330
3000C0
3000C0
3000C0
3000C0
3000C0
3000C0
0C0330
0C0330
03FC30
03FC30
000000
000000
000000
000000
000000
000000
000000
000000
000000
000000
ENDCHAR
STARTCHAR quotesingle
ENCODING 39
SWIDTH 500 0
DWIDTH 24 0
BBX 24 48 0 -10
BITMAP
000000
000000
000000
000000
003000
003000
003000
003000
003000
003000
003000
003000
003000
003000
000000
000000
000000
000000
000000
000000
000000
000000
000000
000000
000000
000000
000000
000000
000000
000000
000000
000000
000000
000000
000000
000000
000000
000000
000000
000000
000000
000000
000000
000000
000000
000000
000000
000000
ENDCHAR
STARTCHAR parenleft
ENCODING 40
SWIDTH 500 0
DWIDTH 24 0
BBX 24 48 0 -10
BITMAP
000000
000000
000000
000000
000000
000000
000000
000000
000300
000300
000C00
000C00
003000
003000
003000
003000
00C000
00C000
00C000
00C000
00C000
00C000
00C000
00C000
00C000
00C000
00C000
00C000
00C000
00C000
003000
003000
003000
003000
000C00
000C00
000300
000300
000000
000000
000000
000000
000000
000000
000000
000000
000000
000000
ENDCHAR
STARTCHAR parenright
ENCODING 41
SWIDTH 500 0
DWIDTH 24 0
BBX 24 48 0 -10
BITMAP
000000
000000
000000
000000
000000
000000
000000
000000
00C000
00C000
003000
003000
000C00
000C00
000C00
000C00
000300
000300
000300
000300
000300
000300
000300
000300
000300
000300
000300
000300
000300
000300
000C00
000C00
000C00
000C00
003000
003000
00C000
00C000
000000
000000
000000
000000
000000
000000
000000
000000
000000
000000
ENDCHAR
STARTCHAR asterisk
ENCODING 42
SWIDTH 500 0
DWIDTH 24 0
BBX 24 48 0 -10
BITMAP
000000
000000
000000
000000
000000
000000
000000
000000
000000
000000
000000
000000
000000
000000
0C00C0
0C00C0
030300
030300
00CC00
00CC00
003000
003000
3FFFF0
3FFFF0
003000
003000
00CC00
00CC00
030300
030300
0C00C0
0C00C0
000000
000000
000000
000000
000000
000000
000000
000000
000000
000000
000000
000000
000000
000000
000000
000000
ENDCHAR
STARTCHAR plus
ENCODING 43
SWIDTH 500 0
DWIDTH 24 0
BBX 24 48 0 -10
BITMAP
000000
000000
000000
000000
000000
000000
000000
000000
000000
000000
000000
000000
000000
000000
003000
003000
003000
003000
003000
003000
003000
003000
3FFFF0
3FFFF0
003000
003000
003000
003000
003000
003000
003000
003000
000000
000000
000000
000000
000000
000000
000000
000000
000000
000000
000000
000000
000000
000000
000000
000000
ENDCHAR
STARTCHAR comma
ENCODING 44
SWIDTH 500 0
DWIDTH 24 0
BBX 24 48 0 -10
BITMAP
000000
000000
000000
000000
000000
000000
000000
000000
000000
000000
000000
000000
000000
000000
000000
000000
000000
000000
000000
000000
000000
000000
000000
000000
000000
000000
000000
000000
000000
000000
003000
003000
003000
003000
003000
003000
003000
003000
00C000
00C000
000000
000000
000000
000000
000000
000000
000000
000000
ENDCHAR
STARTCHAR hyphen
ENCODING 45
SWIDTH 500 0
DWIDTH 24 0
BBX 24 48 0 -10
BITMAP
000000
000000
000000
000000
000000
000000
000000
000000
000000
000000
000000
000000
000000
000000
000000
000000
000000
000000
000000
000000
000000
000000
3FFFF0
3FFFF0
000000
000000
000000
000000
000000
000000
000000
000000
000000
000000
000000
000000
000000
000000
000000
000000
000000
000000
000000
000000
000000
000000
000000
000000
ENDCHAR
STARTCHAR period
ENCODING 46
SWIDTH 500 0
DWIDTH 24 0
BBX 24 48 0 -10
BITMAP
000000
000000
000000
000000
000000
000000
000000
000000
000000
000000
000000
000000
000000
000000
000000
000000
000000
000000
000000
000000
000000
000000
000000
000000
000000
000000
000000
000000
000000
000000
000000
000000
003000
003000
003000
003000
003000
003000
000000
000000
000000
000000
000000
000000
000000
000000
000000
000000
ENDCHAR
STARTCHAR slash
ENCODING 47
SWIDTH 500 0
DWIDTH 24 0
BBX 24 48 0 -10
BITMAP
000000
000000
000000
000000
000000
000000
000000
000000
000000
000000
0000C0
0000C0
0000C0
0000C0
000300
000300
000300
000300
000C00
000C00
000C00
000C00
003000
003000
003000
003000
00C000
00C000
00C000
00C000
030000
030000
030000
030000
0C0000
0C0000
0C0000
0C0000
000000
000000
000000
000000
000000
000000
000000
000000
000000
000000
ENDCHAR
STARTCHAR zero
ENCODING 48
SWIDTH 500 0
DWIDTH 24 0
BBX 24 48 0 -10
BITMAP
000000
000000
000000
000000
000000
000000
000000
000000
03FF00
03FF00
0C00C0
0C00C0
300030
300030
300030
300030
3000F0
3000F0
300330
300330
300C30
300C30
303030
303030
30C030
30C030
330030
330030
3C0030
3C0030
300030
300030
300030
300030
0C00C0
0C00C0
03FF00
03FF00
000000
000000
000000
000000
000000
000000
000000
000000
000000
000000
ENDCHAR
STARTCHAR one
ENCODING 49
SWIDTH 500 0
DWIDTH 24 0
BBX 24 48 0 -10
BITMAP
000000
000000
000000
000000
000000
000000
000000
000000
003000
003000
00F000
00F000
033000
033000
0C3000
0C3000
003000
003000
003000
003000
003000
003000
003000
003000
003000
003000
003000
003000
003000
003000
003000
003000
003000
003000
003000
003000
0FFFC0
0FFFC0
000000
000000
000000
000000
000000
000000
000000
000000
000000
000000
ENDCHAR
STARTCHAR two
ENCODING 50
SWIDTH 500 0
DWIDTH 24 0
BBX 24 48 0 -10
BITMAP
000000
000000
000000
000000
000000
000000
000000
000000
03FF00
03FF00
0C00C0
0C00C0
300030
300030
300030
300030
300030
300030
000030
000030
0000C0
0000C0
000300
000300
000C00
000C00
003000
003000
00C000
00C000
030000
030000
0C0000
0C0000
300000
300000
3FFFF0
3FFFF0
000000
000000
000000
000000
000000
000000
000000
000000
000000
000000
ENDCHAR
STARTCHAR three
ENCODING 51
SWIDTH 500 0
DWIDTH 24 0
BBX 24 48 0 -10
BITMAP
000000
000000
000000
000000
000000
000000
000000
000000
03FF00
03FF00
0C00C0
0C00C0
300030
300030
000030
000030
000030
000030
000030
000030
0000C0
0000C0
00FF00
00FF00
0000C0
0000C0
000030
000030
000030
000030
000030
000030
300030
300030
0C00C0
0C00C0
03FF00
03FF00
000000
000000
000000
000000
000000
000000
000000
000000
000000
000000
ENDCHAR
STARTCHAR four
ENCODING 52
SWIDTH 500 0
DWIDTH 24 0
BBX 24 48 0 -10
BITMAP
000000
000000
000000
000000
000000
000000
000000
000000
000030
000030
0000F0
0000F0
000330
000330
000C30
000C30
003030
003030
00C030
00C030
030030
030030
0C0030
0C0030
300030
300030
300030
300030
300030
300030
3FFFF0
3FFFF0
000030
000030
000030
000030
000030
000030
000000
000000
000000
000000
000000
000000
000000
000000
000000
000000
ENDCHAR
STARTCHAR five
ENCODING 53
SWIDTH 500 0
DWIDTH 24 0
BBX 24 48 0 -10
BITMAP
000000
000000
000000
000000
000000
000000
000000
000000
3FFFF0
3FFFF0
300000
300000
300000
300000
300000
300000
300000
300000
300000
300000
3FFF00
3FFF00
0000C0
0000C0
000030
000030
000030
000030
000030
000030
000030
000030
300030
300030
0C00C0
0C00C0
03FF00
03FF00
000000
000000
000000
000000
000000
000000
000000
000000
000000
000000
ENDCHAR
STARTCHAR six
ENCODING 54
SWIDTH 500 0
DWIDTH 24 0
BBX 24 48 0 -10
BITMAP
000000
000000
000000
000000
000000
000000
000000
000000
03FFC0
03FFC0
0C0000
0C0000
300000
300000
300000
300000
300000
300000
300000
300000
3FFF00
3FFF00
3000C0
3000C0
300030
300030
300030
300030
300030
300030
300030
300030
300030
300030
0C00C0
0C00C0
03FF00
03FF00
000000
000000
000000
000000
000000
000000
000000
000000
000000
000000
ENDCHAR
STARTCHAR seven
ENCODING 55
SWIDTH 500 0
DWIDTH 24 0
BBX 24 48 0 -10
BITMAP
000000
000000
000000
000000
000000
000000
000000
000000
3FFFF0
3FFFF0
300030
300030
300030
300030
000030
000030
0000C0
0000C0
0000C0
0000C0
000300
000300
000300
000300
000C00
000C00
000C00
000C00
003000
003000
003000
003000
003000
003000
003000
003000
003000
003000
000000
000000
000000
000000
000000
000000
000000
000000
000000
000000
ENDCHAR
STARTCHAR eight
ENCODING 56
SWIDTH 500 0
DWIDTH 24 0
BBX 24 48 0 -10
BITMAP
000000
000000
000000
000000
000000
000000
000000
000000
03FF00
03FF00
0C00C0
0C00C0
300030
300030
300030
300030
300030
300030
300030
300030
0C00C0
0C00C0
03FF00
03FF00
0C00C0
0C00C0
300030
300030
300030
300030
300030
300030
300030
300030
0C00C0
0C00C0
03FF00
03FF00
000000
000000
000000
000000
000000
000000
000000
000000
000000
000000
ENDCHAR
STARTCHAR nine
ENCODING 57
SWIDTH 500 0
DWIDTH 24 0
BBX 24 48 0 -10
BITMAP
000000
000000
000000
000000
000000
000000
000000
000000
03FF00
03FF00
0C00C0
0C00C0
300030
300030
300030
300030
300030
300030
300030
300030
300030
300030
0C0030
0C0030
03FFF0
03FFF0
000030
000030
000030
000030
000030
000030
000030
000030
0000C0
0000C0
0FFF00
0FFF00
000000
000000
000000
000000
000000
000000
000000
000000
000000
000000
ENDCHAR
STARTCHAR colon
ENCODING 58
SWIDTH 500 0
DWIDTH 24 0
BBX 24 48 0 -10
BITMAP
000000
000000
000000
000000
000000
000000
000000
000000
000000
000000
000000
000000
000000
000000
000000
000000
003000
003000
003000
003000
003000
003000
000000
000000
000000
000000
000000
000000
000000
000000
003000
003000
003000
003000
003000
003000
000000
000000
000000
000000
000000
000000
000000
000000
000000
000000
000000
000000
ENDCHAR
STARTCHAR semicolon
ENCODING 59
SWIDTH 500 0
DWIDTH 24 0
BBX 24 48 0 -10
BITMAP
000000
000000
000000
000000
000000
000000
000000
000000
000000
000000
000000
000000
000000
000000
000000
000000
003000
003000
003000
003000
003000
003000
000000
000000
000000
000000
000000
000000
000000
000000
003000
003000
003000
003000
003000
003000
003000
003000
00C000
00C000
000000
000000
000000
000000
000000
000000
000000
000000
ENDCHAR
STARTCHAR less
ENCODING 60
SWIDTH 500 0
DWIDTH 24 0
BBX 24 48 0 -10
BITMAP
000000
000000
000000
000000
000000
000000
000000
000000
000030
000030
0000C0
0000C0
000300
000300
000C00
000C00
003000
003000
00C000
00C000
030000
030000
0C0000
0C0000
030000
030000
00C000
00C000
003000
003000
000C00
000C00
000300
000300
0000C0
0000C0
000030
000030
000000
000000
000000
000000
000000
000000
000000
000000
000000
000000
ENDCHAR
STARTCHAR equal
ENCODING 61
SWIDTH 500 0
DWIDTH 24 0
BBX 24 48 0 -10
BITMAP
000000
000000
000000
000000
000000
000000
000000
000000
000000
000000
000000
000000
000000
000000
000000
000000
000000
000000
3FFFF0
3FFFF0
000000
000000
000000
000000
000000
000000
000000
000000
3FFFF0
3FFFF0
000000
000000
000000
000000
000000
000000
000000
000000
000000
000000
000000
000000
000000
000000
000000
000000
000000
000000
ENDCHAR
STARTCHAR greater
ENCODING 62
SWIDTH 500 0
DWIDTH 24 0
BBX 24 48 0 -10
BITMAP
000000
000000
000000
000000
000000
000000
000000
000000
0C0000
0C0000
030000
030000
00C000
00C000
003000
003000
000C00
000C00
000300
000300
0000C0
0000C0
000030
000030
0000C0
0000C0
000300
000300
000C00
000C00
003000
003000
00C000
00C000
030000
030000
0C0000
0C0000
000000
000000
000000
000000
000000
000000
000000
000000
000000
000000
ENDCHAR
STARTCHAR question
ENCODING 63
SWIDTH 500 0
DWIDTH 24 0
BBX 24 48 0 -10
BITMAP
000000
000000
000000
000000
000000
000000
000000
000000
03FF00
03FF00
0C00C0
0C00C0
300030
300030
300030
300030
300030
300030
0000C0
0000C0
000300
000300
000C00
000C00
003000
003000
003000
003000
000000
000000
000000
000000
003000
003000
003000
003000
003000
003000
000000
000000
000000
000000
000000
000000
000000
000000
000000
000000
ENDCHAR
STARTCHAR at
ENCODING 64
SWIDTH 500 0
DWIDTH 24 0
BBX 24 48 0 -10
BITMAP
000000
000000
000000
000000
000000
000000
000000
000000
03FFC0
03FFC0
0C0030
0C0030
30000C
30000C
300FFC
300FFC
30300C
30300C
30C00C
30C00C
30C00C
30C00C
30C00C
30C00C
30C00C
30C00C
30C00C
30C00C
30303C
30303C
300FCC
300FCC
300000
300000
0C0000
0C0000
03FFFC
03FFFC
000000
000000
000000
000000
000000
000000
000000
000000
000000
000000
ENDCHAR
STARTCHAR A
ENCODING 65
SWIDTH 500 0
DWIDTH 24 0
BBX 24 48 0 -10
BITMAP
000000
000000
000000
000000
000000
000000
000000
000000
03FF00
03FF00
0C00C0
0C00C0
300030
300030
300030
300030
300030
300030
300030
300030
300030
300030
300030
300030
3FFFF0
3FFFF0
300030
300030
300030
300030
300030
300030
300030
300030
300030
300030
300030
300030
000000
000000
000000
000000
000000
000000
000000
000000
000000
000000
ENDCHAR
STARTCHAR B
ENCODING 66
SWIDTH 500 0
DWIDTH 24 0
BBX 24 48 0 -10
BITMAP
000000
000000
000000
000000
000000
000000
000000
000000
3FFF00
3FFF00
3000C0
3000C0
300030
300030
300030
300030
300030
300030
3000C0
3000C0
3FFF00
3FFF00
3000C0
3000C0
300030
300030
300030
300030
300030
300030
300030
300030
300030
300030
3000C0
3000C0
3FFF00
3FFF00
000000
000000
000000
000000
000000
000000
000000
000000
000000
000000
ENDCHAR
STARTCHAR C
ENCODING 67
SWIDTH 500 0
DWIDTH 24 0
BBX 24 48 0 -10
BITMAP
000000
000000
000000
000000
000000
000000
000000
000000
03FF00
03FF00
0C00C0
0C00C0
300030
300030
300030
300030
300000
300000
300000
300000
300000
300000
300000
300000
300000
300000
300000
300000
300000
300000
300030
300030
300030
300030
0C00C0
0C00C0
03FF00
03FF00
000000
000000
000000
000000
000000
000000
000000
000000
000000
000000
ENDCHAR
STARTCHAR D
ENCODING 68
SWIDTH 500 0
DWIDTH 24 0
BBX 24 48 0 -10
BITMAP
000000
000000
000000
000000
000000
000000
000000
000000
3FFF00
3FFF00
3000C0
3000C0
300030
300030
300030
300030
300030
300030
300030
300030
300030
300030
300030
300030
300030
300030
300030
300030
300030
300030
300030
300030
300030
300030
3000C0
3000C0
3FFF00
3FFF00
000000
000000
000000
000000
000000
000000
000000
000000
000000
000000
ENDCHAR
STARTCHAR E
ENCODING 69
SWIDTH 500 0
DWIDTH 24 0
BBX 24 48 0 -10
BITMAP
000000
000000
000000
000000
000000
000000
000000
000000
3FFFF0
3FFFF0
300000
300000
300000
300000
300000
300000
300000
300000
300000
300000
300000
300000
3FFF00
3FFF00
300000
300000
300000
300000
300000
300000
300000
300000
300000
300000
300000
300000
3FFFF0
3FFFF0
000000
000000
000000
000000
000000
000000
000000
000000
000000
000000
ENDCHAR
STARTCHAR F
ENCODING 70
SWIDTH 500 0
DWIDTH 24 0
BBX 24 48 0 -10
BITMAP
000000
000000
000000
000000
000000
000000
000000
000000
3FFFF0
3FFFF0
300000
300000
300000
300000
300000
300000
300000
300000
300000
300000
300000
300000
3FFF00
3FFF00
300000
300000
300000
300000
300000
300000
300000
300000
300000
300000
300000
300000
300000
300000
000000
000000
000000
000000
000000
000000
000000
000000
000000
000000
ENDCHAR
STARTCHAR G
ENCODING 71
SWIDTH 500 0
DWIDTH 24 0
BBX 24 48 0 -10
BITMAP
000000
000000
000000
000000
000000
000000
000000
000000
03FF00
03FF00
0C00C0
0C00C0
300030
300030
300030
300030
300000
300000
300000
300000
300000
300000
303FF0
303FF0
300030
300030
300030
300030
300030
300030
300030
300030
300030
300030
0C00C0
0C00C0
03FF00
03FF00
000000
000000
000000
000000
000000
000000
000000
000000
000000
000000
ENDCHAR
STARTCHAR H
ENCODING 72
SWIDTH 500 0
DWIDTH 24 0
BBX 24 48 0 -10
BITMAP
000000
000000
000000
000000
000000
000000
000000
000000
300030
300030
300030
300030
300030
300030
300030
300030
300030
300030
300030
300030
300030
300030
3FFFF0
3FFFF0
300030
300030
300030
300030
300030
300030
300030
300030
300030
300030
300030
300030
300030
300030
000000
000000
000000
000000
000000
000000
000000
000000
000000
000000
ENDCHAR
STARTCHAR I
ENCODING 73
SWIDTH 500 0
DWIDTH 24 0
BBX 24 48 0 -10
BITMAP
000000
000000
000000
000000
000000
000000
000000
000000
03FF00
03FF00
003000
003000
003000
003000
003000
003000
003000
003000
003000
003000
003000
003000
003000
003000
003000
003000
003000
003000
003000
003000
003000
003000
003000
003000
003000
003000
03FF00
03FF00
000000
000000
000000
000000
000000
000000
000000
000000
000000
000000
ENDCHAR
STARTCHAR J
ENCODING 74
SWIDTH 500 0
DWIDTH 24 0
BBX 24 48 0 -10
BITMAP
000000
000000
000000
000000
000000
000000
000000
000000
000FFC
000FFC
0000C0
0000C0
0000C0
0000C0
0000C0
0000C0
0000C0
0000C0
0000C0
0000C0
0000C0
0000C0
0000C0
0000C0
0000C0
0000C0
0000C0
0000C0
3000C0
3000C0
3000C0
3000C0
3000C0
3000C0
0C0300
0C0300
03FC00
03FC00
000000
000000
000000
000000
000000
000000
000000
000000
000000
000000
ENDCHAR
STARTCHAR K
ENCODING 75
SWIDTH 500 0
DWIDTH 24 0
BBX 24 48 0 -10
BITMAP
000000
000000
000000
000000
000000
000000
000000
000000
300030
300030
3000C0
3000C0
300300
300300
300C00
300C00
303000
303000
30C000
30C000
330000
330000
3C0000
3C0000
330000
330000
30C000
30C000
303000
303000
300C00
300C00
300300
300300
3000C0
3000C0
300030
300030
000000
000000
000000
000000
000000
000000
000000
000000
000000
000000
ENDCHAR
STARTCHAR L
ENCODING 76
SWIDTH 500 0
DWIDTH 24 0
BBX 24 48 0 -10
BITMAP
000000
000000
000000
000000
000000
000000
000000
000000
300000
300000
300000
300000
300000
300000
300000
300000
300000
300000
300000
300000
300000
300000
300000
300000
300000
300000
300000
300000
300000
300000
300000
300000
300000
300000
300000
300000
3FFFF0
3FFFF0
000000
000000
000000
000000
000000
000000
000000
000000
000000
000000
ENDCHAR
STARTCHAR M
ENCODING 77
SWIDTH 500 0
DWIDTH 24 0
BBX 24 48 0 -10
BITMAP
000000
000000
000000
000000
000000
000000
000000
000000
30000C
30000C
3C003C
3C003C
3300CC
3300CC
3300CC
3300CC
30C30C
30C30C
303C0C
303C0C
303C0C
303C0C
30000C
30000C
30000C
30000C
30000C
30000C
30000C
30000C
30000C
30000C
30000C
30000C
30000C
30000C
30000C
30000C
000000
000000
000000
000000
000000
000000
000000
000000
000000
000000
ENDCHAR
STARTCHAR N
ENCODING 78
SWIDTH 500 0
DWIDTH 24 0
BBX 24 48 0 -10
BITMAP
000000
000000
000000
000000
000000
000000
000000
000000
300030
300030
300030
300030
300030
300030
300030
300030
3C0030
3C0030
330030
330030
30C030
30C030
303030
303030
300C30
300C30
300330
300330
3000F0
3000F0
300030
300030
300030
300030
300030
300030
300030
300030
000000
000000
000000
000000
000000
000000
000000
000000
000000
000000
ENDCHAR
STARTCHAR O
ENCODING 79
SWIDTH 500 0
DWIDTH 24 0
BBX 24 48 0 -10
BITMAP
000000
000000
000000
000000
000000
000000
000000
000000
03FF00
03FF00
0C00C0
0C00C0
300030
300030
300030
300030
300030
300030
300030
300030
300030
300030
300030
300030
300030
300030
300030
300030
300030
300030
300030
300030
300030
300030
0C00C0
0C00C0
03FF00
03FF00
000000
000000
000000
000000
000000
000000
000000
000000
000000
000000
ENDCHAR
STARTCHAR P
ENCODING 80
SWIDTH 500 0
DWIDTH 24 0
BBX 24 48 0 -10
BITMAP
000000
000000
000000
000000
000000
000000
000000
000000
3FFF00
3FFF00
3000C0
3000C0
300030
300030
300030
300030
300030
300030
300030
300030
3000C0
3000C0
3FFF00
3FFF00
300000
300000
300000
300000
300000
300000
300000
300000
300000
300000
300000
300000
300000
300000
000000
000000
000000
000000
000000
000000
000000
000000
000000
000000
ENDCHAR
STARTCHAR Q
ENCODING 81
SWIDTH 500 0
DWIDTH 24 0
BBX 24 48 0 -10
BITMAP
000000
000000
000000
000000
000000
000000
000000
000000
03FF00
03FF00
0C00C0
0C00C0
300030
300030
300030
300030
300030
300030
300030
300030
300030
300030
300030
300030
300030
300030
300030
300030
300030
300030
300030
300030
303030
303030
0C0CC0
0C0CC0
03FF00
03FF00
0000C0
0000C0
000030
000030
000000
000000
000000
000000
000000
000000
ENDCHAR
STARTCHAR R
ENCODING 82
SWIDTH 500 0
DWIDTH 24 0
BBX 24 48 0 -10
BITMAP
000000
000000
000000
000000
000000
000000
000000
000000
3FFF00
3FFF00
3000C0
3000C0
300030
300030
300030
300030
300030
300030
300030
300030
3000C0
3000C0
3FFF00
3FFF00
330000
330000
30C000
30C000
303000
303000
300C00
300C00
300300
300300
3000C0
3000C0
300030
300030
000000
000000
000000
000000
000000
000000
000000
000000
000000
000000
ENDCHAR
STARTCHAR S
ENCODING 83
SWIDTH 500 0
DWIDTH 24 0
BBX 24 48 0 -10
BITMAP
000000
000000
000000
000000
000000
000000
000000
000000
03FF00
03FF00
0C00C0
0C00C0
300030
300030
300000
300000
300000
300000
300000
300000
0C0000
0C0000
03FF00
03FF00
0000C0
0000C0
000030
000030
000030
000030
000030
000030
300030
300030
0C00C0
0C00C0
03FF00
03FF00
000000
000000
000000
000000
000000
000000
000000
000000
000000
000000
ENDCHAR
STARTCHAR T
ENCODING 84
SWIDTH 500 0
DWIDTH 24 0
BBX 24 48 0 -10
BITMAP
000000
000000
000000
000000
000000
000000
000000
000000
3FFFF0
3FFFF0
003000
003000
003000
003000
003000
003000
003000
003000
003000
003000
003000
003000
003000
003000
003000
003000
003000
003000
003000
003000
003000
003000
003000
003000
003000
003000
003000
003000
000000
000000
000000
000000
000000
000000
000000
000000
000000
000000
ENDCHAR
STARTCHAR U
ENCODING 85
SWIDTH 500 0
DWIDTH 24 0
BBX 24 48 0 -10
BITMAP
000000
000000
000000
000000
000000
000000
000000
000000
300030
300030
300030
300030
300030
300030
300030
300030
300030
300030
300030
300030
300030
300030
300030
300030
300030
300030
300030
300030
300030
300030
300030
300030
300030
300030
0C00C0
0C00C0
03FF00
03FF00
000000
000000
000000
000000
000000
000000
000000
000000
000000
000000
ENDCHAR
STARTCHAR V
ENCODING 86
SWIDTH 500 0
DWIDTH 24 0
BBX 24 48 0 -10
BITMAP
000000
000000
000000
000000
000000
000000
000000
000000
300030
300030
300030
300030
300030
300030
300030
300030
0C00C0
0C00C0
0C00C0
0C00C0
0C00C0
0C00C0
030300
030300
030300
030300
030300
030300
00CC00
00CC00
00CC00
00CC00
00CC00
00CC00
003000
003000
003000
003000
000000
000000
000000
000000
000000
000000
000000
000000
000000
000000
ENDCHAR
STARTCHAR W
ENCODING 87
SWIDTH 500 0
DWIDTH 24 0
BBX 24 48 0 -10
BITMAP
000000
000000
000000
000000
000000
000000
000000
000000
30000C
30000C
30000C
30000C
30000C
30000C
30000C
30000C
30000C
30000C
30000C
30000C
30000C
30000C
30000C
30000C
303C0C
303C0C
303C0C
303C0C
30C30C
30C30C
3300CC
3300CC
3300CC
3300CC
3C003C
3C003C
30000C
30000C
000000
000000
000000
000000
000000
000000
000000
000000
000000
000000
ENDCHAR
STARTCHAR X
ENCODING 88
SWIDTH 500 0
DWIDTH 24 0
BBX 24 48 0 -10
BITMAP
000000
000000
000000
000000
000000
000000
000000
000000
300030
300030
300030
300030
0C00C0
0C00C0
0C00C0
0C00C0
030300
030300
030300
030300
00CC00
00CC00
003000
003000
00CC00
00CC00
030300
030300
030300
030300
0C00C0
0C00C0
0C00C0
0C00C0
300030
300030
300030
300030
000000
000000
000000
000000
000000
000000
000000
000000
000000
000000
ENDCHAR
STARTCHAR Y
ENCODING 89
SWIDTH 500 0
DWIDTH 24 0
BBX 24 48 0 -10
BITMAP
000000
000000
000000
000000
000000
000000
000000
000000
300030
300030
300030
300030
0C00C0
0C00C0
0C00C0
0C00C0
030300
030300
030300
030300
00CC00
00CC00
00CC00
00CC00
003000
003000
003000
003000
003000
003000
003000
003000
003000
003000
003000
003000
003000
003000
000000
000000
000000
000000
000000
000000
000000
000000
000000
000000
ENDCHAR
STARTCHAR Z
ENCODING 90
SWIDTH 500 0
DWIDTH 24 0
BBX 24 48 0 -10
BITMAP
000000
000000
000000
000000
000000
000000
000000
000000
3FFFF0
3FFFF0
000030
000030
000030
000030
000030
000030
0000C0
0000C0
000300
000300
000C00
000C00
003000
003000
00C000
00C000
030000
030000
0C0000
0C0000
300000
300000
300000
300000
300000
300000
3FFFF0
3FFFF0
000000
000000
000000
000000
000000
000000
000000
000000
000000
000000
ENDCHAR
STARTCHAR bracketleft
ENCODING 91
SWIDTH 500 0
DWIDTH 24 0
BBX 24 48 0 -10
BITMAP
000000
000000
000000
000000
000000
000000
000000
000000
00FF00
00FF00
00C000
00C000
00C000
00C000
00C000
00C000
00C000
00C000
00C000
00C000
00C000
00C000
00C000
00C000
00C000
00C000
00C000
00C000
00C000
00C000
00C000
00C000
00C000
00C000
00C000
00C000
00FF00
00FF00
000000
000000
000000
000000
000000
000000
000000
000000
000000
000000
ENDCHAR
STARTCHAR backslash
ENCODING 92
SWIDTH 500 0
DWIDTH 24 0
BBX 24 48 0 -10
BITMAP
000000
000000
000000
000000
000000
000000
000000
000000
000000
000000
0C0000
0C0000
0C0000
0C0000
030000
030000
030000
030000
00C000
00C000
00C000
00C000
003000
003000
003000
003000
000C00
000C00
000C00
000C00
000300
000300
000300
000300
0000C0
0000C0
0000C0
0000C0
000000
000000
000000
000000
000000
000000
000000
000000
000000
000000
ENDCHAR
STARTCHAR bracketright
ENCODING 93
SWIDTH 500 0
DWIDTH 24 0
BBX 24 48 0 -10
BITMAP
000000
000000
000000
000000
000000
000000
000000
000000
00FF00
00FF00
000300
000300
000300
000300
000300
000300
000300
000300
000300
000300
000300
000300
000300
000300
000300
000300
000300
000300
000300
000300
000300
000300
000300
000300
000300
000300
00FF00
00FF00
000000
000000
000000
000000
000000
000000
000000
000000
000000
000000
ENDCHAR
STARTCHAR asciicircum
ENCODING 94
SWIDTH 500 0
DWIDTH 24 0
BBX 24 48 0 -10
BITMAP
000000
000000
000000
000000
003000
003000
00CC00
00CC00
030300
030300
0C00C0
0C00C0
300030
300030
000000
000000
000000
000000
000000
000000
000000
000000
000000
000000
000000
000000
000000
000000
000000
000000
000000
000000
000000
000000
000000
000000
000000
000000
000000
000000
000000
000000
000000
000000
000000
000000
000000
000000
ENDCHAR
STARTCHAR underscore
ENCODING 95
SWIDTH 500 0
DWIDTH 24 0
BBX 24 48 0 -10
BITMAP
000000
000000
000000
000000
000000
000000
000000
000000
000000
000000
000000
000000
000000
000000
000000
000000
000000
000000
000000
000000
000000
000000
000000
000000
000000
000000
000000
000000
000000
000000
000000
000000
000000
000000
000000
000000
000000
000000
000000
000000
3FFFF0
3FFFF0
000000
000000
000000
000000
000000
000000
ENDCHAR
STARTCHAR grave
ENCODING 96
SWIDTH 500 0
DWIDTH 24 0
BBX 24 48 0 -10
BITMAP
000000
000000
030000
030000
00C000
00C000
003000
003000
000000
000000
000000
000000
000000
000000
000000
000000
000000
000000
000000
000000
000000
000000
000000
000000
000000
000000
000000
000000
000000
000000
000000
000000
000000
000000
000000
000000
000000
000000
000000
000000
000000
000000
000000
000000
000000
000000
000000
000000
ENDCHAR
STARTCHAR a
ENCODING 97
SWIDTH 500 0
DWIDTH 24 0
BBX 24 48 0 -10
BITMAP
000000
000000
000000
000000
000000
000000
000000
000000
000000
000000
000000
000000
000000
000000
000000
000000
0FFF00
0FFF00
0000C0
0000C0
000030
000030
000030
000030
03FFF0
03FFF0
0C0030
0C0030
300030
300030
300030
300030
300030
300030
0C0030
0C0030
03FFF0
03FFF0
000000
000000
000000
000000
000000
000000
000000
000000
000000
000000
ENDCHAR
STARTCHAR b
ENCODING 98
SWIDTH 500 0
DWIDTH 24 0
BBX 24 48 0 -10
BITMAP
000000
000000
000000
000000
000000
000000
000000
000000
300000
300000
300000
300000
300000
300000
300000
300000
3FFF00
3FFF00
3000C0
3000C0
300030
300030
300030
300030
300030
300030
300030
300030
300030
300030
300030
300030
300030
300030
3000C0
3000C0
3FFF00
3FFF00
000000
000000
000000
000000
000000
000000
000000
000000
000000
000000
ENDCHAR
STARTCHAR c
ENCODING 99
SWIDTH 500 0
DWIDTH 24 0
BBX 24 48 0 -10
BITMAP
000000
000000
000000
000000
000000
000000
000000
000000
000000
000000
000000
000000
000000
000000
000000
000000
03FF00
03FF00
0C00C0
0C00C0
300030
300030
300000
300000
300000
300000
300000
300000
300000
300000
300000
300000
300030
300030
0C00C0
0C00C0
03FF00
03FF00
000000
000000
000000
000000
000000
000000
000000
000000
000000
000000
ENDCHAR
STARTCHAR d
ENCODING 100
SWIDTH 500 0
DWIDTH 24 0
BBX 24 48 0 -10
BITMAP
000000
000000
000000
000000
000000
000000
000000
000000
000030
000030
000030
000030
000030
000030
000030
000030
03FFF0
03FFF0
0C0030
0C0030
300030
300030
300030
300030
300030
300030
300030
300030
300030
300030
300030
300030
300030
300030
0C0030
0C0030
03FFF0
03FFF0
000000
000000
000000
000000
000000
000000
000000
000000
000000
000000
ENDCHAR
STARTCHAR e
ENCODING 101
SWIDTH 500 0
DWIDTH 24 0
BBX 24 48 0 -10
BITMAP
000000
000000
000000
000000
000000
000000
000000
000000
000000
000000
000000
000000
000000
000000
000000
000000
03FF00
03FF00
0C00C0
0C00C0
300030
300030
300030
300030
300030
300030
3FFFF0
3FFFF0
300000
300000
300000
300000
300000
300000
0C0030
0C0030
03FFC0
03FFC0
000000
000000
000000
000000
000000
000000
000000
000000
000000
000000
ENDCHAR
STARTCHAR f
ENCODING 102
SWIDTH 500 0
DWIDTH 24 0
BBX 24 48 0 -10
BITMAP
000000
000000
000000
000000
000000
000000
000000
000000
000FF0
000FF0
003000
003000
003000
003000
003000
003000
0FFFC0
0FFFC0
003000
003000
003000
003000
003000
003000
003000
003000
003000
003000
003000
003000
003000
003000
003000
003000
003000
003000
003000
003000
000000
000000
000000
000000
000000
000000
000000
000000
000000
000000
ENDCHAR
STARTCHAR g
ENCODING 103
SWIDTH 500 0
DWIDTH 24 0
BBX 24 48 0 -10
BITMAP
000000
000000
000000
000000
000000
000000
000000
000000
000000
000000
000000
000000
000000
000000
000000
000000
03FFF0
03FFF0
0C0030
0C0030
300030
300030
300030
300030
300030
300030
300030
300030
300030
300030
300030
300030
300030
300030
0C00F0
0C00F0
03FF30
03FF30
000030
000030
000030
000030
0000C0
0000C0
0FFF00
0FFF00
000000
000000
ENDCHAR
STARTCHAR h
ENCODING 104
SWIDTH 500 0
DWIDTH 24 0
BBX 24 48 0 -10
BITMAP
000000
000000
000000
000000
000000
000000
000000
000000
300000
300000
300000
300000
300000
300000
300000
300000
3FFF00
3FFF00
3000C0
3000C0
300030
300030
300030
300030
300030
300030
300030
300030
300030
300030
300030
300030
300030
300030
300030
300030
300030
300030
000000
000000
000000
000000
000000
000000
000000
000000
000000
000000
ENDCHAR
STARTCHAR i
ENCODING 105
SWIDTH 500 0
DWIDTH 24 0
BBX 24 48 0 -10
BITMAP
000000
000000
000000
000000
000000
000000
000000
000000
003000
003000
003000
003000
003000
003000
000000
000000
03F000
03F000
003000
003000
003000
003000
003000
003000
003000
003000
003000
003000
003000
003000
003000
003000
003000
003000
003000
003000
03FF00
03FF00
000000
000000
000000
000000
000000
000000
000000
000000
000000
000000
ENDCHAR
STARTCHAR j
ENCODING 106
SWIDTH 500 0
DWIDTH 24 0
BBX 24 48 0 -10
BITMAP
000000
000000
000000
000000
000000
000000
000000
000000
0000C0
0000C0
0000C0
0000C0
0000C0
0000C0
000000
000000
000FC0
000FC0
0000C0
0000C0
0000C0
0000C0
0000C0
0000C0
0000C0
0000C0
0000C0
0000C0
0000C0
0000C0
0000C0
0000C0
0000C0
0000C0
0000C0
0000C0
0000C0
0000C0
0C00C0
0C00C0
0C00C0
0C00C0
030300
030300
00FC00
00FC00
000000
000000
ENDCHAR
STARTCHAR k
ENCODING 107
SWIDTH 500 0
DWIDTH 24 0
BBX 24 48 0 -10
BITMAP
000000
000000
000000
000000
000000
000000
000000
000000
0C0000
0C0000
0C0000
0C0000
0C0000
0C0000
0C0000
0C0000
0C0030
0C0030
0C00C0
0C00C0
0C0300
0C0300
0C0C00
0C0C00
0C3000
0C3000
0FC000
0FC000
0C3000
0C3000
0C0C00
0C0C00
0C0300
0C0300
0C00C0
0C00C0
0C0030
0C0030
000000
000000
000000
000000
000000
000000
000000
000000
000000
000000
ENDCHAR
STARTCHAR l
ENCODING 108
SWIDTH 500 0
DWIDTH 24 0
BBX 24 48 0 -10
BITMAP
000000
000000
000000
000000
000000
000000
000000
000000
03F000
03F000
003000
003000
003000
003000
003000
003000
003000
003000
003000
003000
003000
003000
003000
003000
003000
003000
003000
003000
003000
003000
003000
003000
003000
003000
003000
003000
03FF00
03FF00
000000
000000
000000
000000
000000
000000
000000
000000
000000
000000
ENDCHAR
STARTCHAR m
ENCODING 109
SWIDTH 500 0
DWIDTH 24 0
BBX 24 48 0 -10
BITMAP
000000
000000
000000
000000
000000
000000
000000
000000
000000
000000
000000
000000
000000
000000
000000
000000
3FFF00
3FFF00
3030C0
3030C0
303030
303030
303030
303030
303030
303030
303030
303030
303030
303030
303030
303030
303030
303030
303030
303030
303030
303030
000000
000000
000000
000000
000000
000000
000000
000000
000000
000000
ENDCHAR
STARTCHAR n
ENCODING 110
SWIDTH 500 0
DWIDTH 24 0
BBX 24 48 0 -10
BITMAP
000000
000000
000000
000000
000000
000000
000000
000000
000000
000000
000000
000000
000000
000000
000000
000000
3FFF00
3FFF00
3000C0
3000C0
300030
300030
300030
300030
300030
300030
300030
300030
300030
300030
300030
300030
300030
300030
300030
300030
300030
300030
000000
000000
000000
000000
000000
000000
000000
000000
000000
000000
ENDCHAR
STARTCHAR o
ENCODING 111
SWIDTH 500 0
DWIDTH 24 0
BBX 24 48 0 -10
BITMAP
000000
000000
000000
000000
000000
000000
000000
000000
000000
000000
000000
000000
000000
000000
000000
000000
03FF00
03FF00
0C00C0
0C00C0
300030
300030
300030
300030
300030
300030
300030
300030
300030
300030
300030
300030
300030
300030
0C00C0
0C00C0
03FF00
03FF00
000000
000000
000000
000000
000000
000000
000000
000000
000000
000000
ENDCHAR
STARTCHAR p
ENCODING 112
SWIDTH 500 0
DWIDTH 24 0
BBX 24 48 0 -10
BITMAP
000000
000000
000000
000000
000000
000000
000000
000000
000000
000000
000000
000000
000000
000000
000000
000000
3FFF00
3FFF00
3000C0
3000C0
300030
300030
300030
300030
300030
300030
300030
300030
300030
300030
300030
300030
300030
300030
3000C0
3000C0
3FFF00
3FFF00
300000
300000
300000
300000
300000
300000
300000
300000
000000
000000
ENDCHAR
STARTCHAR q
ENCODING 113
SWIDTH 500 0
DWIDTH 24 0
BBX 24 48 0 -10
BITMAP
000000
000000
000000
000000
000000
000000
000000
000000
000000
000000
000000
000000
000000
000000
000000
000000
03FFF0
03FFF0
0C0030
0C0030
300030
300030
300030
300030
300030
300030
300030
300030
300030
300030
300030
300030
300030
300030
0C0030
0C0030
03FFF0
03FFF0
000030
000030
000030
000030
000030
000030
000030
000030
000000
000000
ENDCHAR
STARTCHAR r
ENCODING 114
SWIDTH 500 0
DWIDTH 24 0
BBX 24 48 0 -10
BITMAP
000000
000000
000000
000000
000000
000000
000000
000000
000000
000000
000000
000000
000000
000000
000000
000000
303FF0
303FF0
30C000
30C000
330000
330000
3C0000
3C0000
300000
300000
300000
300000
300000
300000
300000
300000
300000
300000
300000
300000
300000
300000
000000
000000
000000
000000
000000
000000
000000
000000
000000
000000
ENDCHAR
STARTCHAR s
ENCODING 115
SWIDTH 500 0
DWIDTH 24 0
BBX 24 48 0 -10
BITMAP
000000
000000
000000
000000
000000
000000
000000
000000
000000
000000
000000
000000
000000
000000
000000
000000
0FFFC0
0FFFC0
300030
300030
300000
300000
300000
300000
300000
300000
0FFFC0
0FFFC0
000030
000030
000030
000030
000030
000030
300030
300030
0FFFC0
0FFFC0
000000
000000
000000
000000
000000
000000
000000
000000
000000
000000
ENDCHAR
STARTCHAR t
ENCODING 116
SWIDTH 500 0
DWIDTH 24 0
BBX 24 48 0 -10
BITMAP
000000
000000
000000
000000
000000
000000
000000
000000
003000
003000
003000
003000
003000
003000
003000
003000
0FFFC0
0FFFC0
003000
003000
003000
003000
003000
003000
003000
003000
003000
003000
003000
003000
003000
003000
003000
003000
003000
003000
000FF0
000FF0
000000
000000
000000
000000
000000
000000
000000
000000
000000
000000
ENDCHAR
STARTCHAR u
ENCODING 117
SWIDTH 500 0
DWIDTH 24 0
BBX 24 48 0 -10
BITMAP
000000
000000
000000
000000
000000
000000
000000
000000
000000
000000
000000
000000
000000
000000
000000
000000
300030
300030
300030
300030
300030
300030
300030
300030
300030
300030
300030
300030
300030
300030
300030
300030
300030
300030
0C0030
0C0030
03FFF0
03FFF0
000000
000000
000000
000000
000000
000000
000000
000000
000000
000000
ENDCHAR
STARTCHAR v
ENCODING 118
SWIDTH 500 0
DWIDTH 24 0
BBX 24 48 0 -10
BITMAP
000000
000000
000000
000000
000000
000000
000000
000000
000000
000000
000000
000000
000000
000000
000000
000000
300030
300030
300030
300030
300030
300030
0C00C0
0C00C0
0C00C0
0C00C0
030300
030300
030300
030300
00CC00
00CC00
00CC00
00CC00
003000
003000
003000
003000
000000
000000
000000
000000
000000
000000
000000
000000
000000
000000
ENDCHAR
STARTCHAR w
ENCODING 119
SWIDTH 500 0
DWIDTH 24 0
BBX 24 48 0 -10
BITMAP
000000
000000
000000
000000
000000
000000
000000
000000
000000
000000
000000
000000
000000
000000
000000
000000
300030
300030
300030
300030
300030
300030
300030
300030
303030
303030
303030
303030
303030
303030
303030
303030
303030
303030
303030
303030
0FFFC0
0FFFC0
000000
000000
000000
000000
000000
000000
000000
000000
000000
000000
ENDCHAR
STARTCHAR x
ENCODING 120
SWIDTH 500 0
DWIDTH 24 0
BBX 24 48 0 -10
BITMAP
000000
000000
000000
000000
000000
000000
000000
000000
000000
000000
000000
000000
000000
000000
000000
000000
300030
300030
300030
300030
0C00C0
0C00C0
030300
030300
00CC00
00CC00
003000
003000
00CC00
00CC00
030300
030300
0C00C0
0C00C0
300030
300030
300030
300030
000000
000000
000000
000000
000000
000000
000000
000000
000000
000000
ENDCHAR
STARTCHAR y
ENCODING 121
SWIDTH 500 0
DWIDTH 24 0
BBX 24 48 0 -10
BITMAP
000000
000000
000000
000000
000000
000000
000000
000000
000000
000000
000000
000000
000000
000000
000000
000000
300030
300030
300030
300030
300030
300030
300030
300030
300030
300030
300030
300030
300030
300030
300030
300030
300030
300030
0C00F0
0C00F0
03FF30
03FF30
000030
000030
000030
000030
0000C0
0000C0
0FFF00
0FFF00
000000
000000
ENDCHAR
STARTCHAR z
ENCODING 122
SWIDTH 500 0
DWIDTH 24 0
BBX 24 48 0 -10
BITMAP
000000
000000
000000
000000
000000
000000
000000
000000
000000
000000
000000
000000
000000
000000
000000
000000
3FFFF0
3FFFF0
000030
000030
0000C0
0000C0
000300
000300
000C00
000C00
003000
003000
00C000
00C000
030000
030000
0C0000
0C0000
300000
300000
3FFFF0
3FFFF0
000000
000000
000000
000000
000000
000000
000000
000000
000000
000000
ENDCHAR
STARTCHAR braceleft
ENCODING 123
SWIDTH 500 0
DWIDTH 24 0
BBX 24 48 0 -10
BITMAP
000000
000000
000000
000000
000000
000000
000000
000000
0003C0
0003C0
000C00
000C00
003000
003000
003000
003000
003000
003000
003000
003000
003000
003000
03C000
03C000
003000
003000
003000
003000
003000
003000
003000
003000
003000
003000
000C00
000C00
0003C0
0003C0
000000
000000
000000
000000
000000
000000
000000
000000
000000
000000
ENDCHAR
STARTCHAR bar
ENCODING 124
SWIDTH 500 0
DWIDTH 24 0
BBX 24 48 0 -10
BITMAP
000000
000000
000000
000000
000000
000000
000000
000000
003000
003000
003000
003000
003000
003000
003000
003000
003000
003000
003000
003000
003000
003000
003000
003000
003000
003000
003000
003000
003000
003000
003000
003000
003000
003000
003000
003000
003000
003000
000000
000000
000000
000000
000000
000000
000000
000000
000000
000000
ENDCHAR
STARTCHAR braceright
ENCODING 125
SWIDTH 500 0
DWIDTH 24 0
BBX 24 48 0 -10
BITMAP
000000
000000
000000
000000
000000
000000
000000
000000
03C000
03C000
003000
003000
000C00
000C00
000C00
000C00
000C00
000C00
000C00
000C00
000C00
000C00
0003C0
0003C0
000C00
000C00
000C00
000C00
000C00
000C00
000C00
000C00
000C00
000C00
003000
003000
03C000
03C000
000000
000000
000000
000000
000000
000000
000000
000000
000000
000000
ENDCHAR
STARTCHAR asciitilde
ENCODING 126
SWIDTH 500 0
DWIDTH 24 0
BBX 24 48 0 -10
BITMAP
000000
000000
000000
000000
0FC030
0FC030
303030
303030
303030
303030
300FC0
300FC0
000000
000000
000000
000000
000000
000000
000000
000000
000000
000000
000000
000000
000000
000000
000000
000000
000000
000000
000000
000000
000000
000000
000000
000000
000000
000000
000000
000000
000000
000000
000000
000000
000000
000000
000000
000000
ENDCHAR
STARTCHAR nbspace
ENCODING 160
SWIDTH 500 0
DWIDTH 24 0
BBX 24 48 0 -10
BITMAP
000000
000000
000000
000000
000000
000000
000000
000000
000000
000000
000000
000000
000000
000000
000000
000000
000000
000000
000000
000000
000000
000000
000000
000000
000000
000000
000000
000000
000000
000000
000000
000000
000000
000000
000000
000000
000000
000000
000000
000000
000000
000000
000000
000000
000000
000000
000000
000000
ENDCHAR
STARTCHAR exclamdown
ENCODING 161
SWIDTH 500 0
DWIDTH 24 0
BBX 24 48 0 -10
BITMAP
000000
000000
000000
000000
000000
000000
000000
000000
003000
003000
003000
003000
003000
003000
000000
000000
000000
000000
003000
003000
003000
003000
003000
003000
003000
003000
003000
003000
003000
003000
003000
003000
003000
003000
003000
003000
003000
003000
000000
000000
000000
000000
000000
000000
000000
000000
000000
000000
ENDCHAR
STARTCHAR cent
ENCODING 162
SWIDTH 500 0
DWIDTH 24 0
BBX 24 48 0 -10
BITMAP
000000
000000
000000
000000
000000
000000
000000
000000
000000
000000
000000
000000
003000
003000
003000
003000
03FF00
03FF00
0C30C0
0C30C0
303030
303030
303000
303000
303000
303000
303000
303000
303000
303000
303000
303000
303030
303030
0C30C0
0C30C0
03FF00
03FF00
003000
003000
003000
003000
000000
000000
000000
000000
000000
000000
ENDCHAR
STARTCHAR sterling
ENCODING 163
SWIDTH 500 0
DWIDTH 24 0
BBX 24 48 0 -10
BITMAP
000000
000000
000000
000000
000000
000000
000000
000000
00FC00
00FC00
030300
030300
0C00C0
0C00C0
0C0000
0C0000
0C0000
0C0000
0C0000
0C0000
0C0000
0C0000
3FFC00
3FFC00
0C0000
0C0000
0C0000
0C0000
0C0000
0C0000
0C0000
0C0000
0C0030
0C0030
0C0030
0C0030
3FFFF0
3FFFF0
000000
000000
000000
000000
000000
000000
000000
000000
000000
000000
ENDCHAR
STARTCHAR currency
ENCODING 164
SWIDTH 500 0
DWIDTH 24 0
BBX 24 48 0 -10
BITMAP
000000
000000
000000
000000
000000
000000
000000
000000
000000
000000
000000
000000
30000C
30000C
0C0030
0C0030
03FFC0
03FFC0
0C0030
0C0030
0C0030
0C0030
0C0030
0C0030
0C0030
0C0030
0C0030
0C0030
0C0030
0C0030
03FFC0
03FFC0
0C0030
0C0030
30000C
30000C
000000
000000
000000
000000
000000
000000
000000
000000
000000
000000
000000
000000
ENDCHAR
STARTCHAR yen
ENCODING 165
SWIDTH 500 0
DWIDTH 24 0
BBX 24 48 0 -10
BITMAP
000000
000000
000000
000000
000000
000000
000000
000000
300030
300030
300030
300030
0C00C0
0C00C0
0C00C0
0C00C0
030300
030300
030300
030300
00CC00
00CC00
003000
003000
003000
003000
0FFFC0
0FFFC0
003000
003000
003000
003000
0FFFC0
0FFFC0
003000
003000
003000
003000
000000
000000
000000
000000
000000
000000
000000
000000
000000
000000
ENDCHAR
STARTCHAR brokenbar
ENCODING 166
SWIDTH 500 0
DWIDTH 24 0
BBX 24 48 0 -10
BITMAP
000000
000000
000000
000000
000000
000000
000000
000000
003000
003000
003000
003000
003000
003000
003000
003000
003000
003000
003000
003000
000000
000000
000000
000000
000000
000000
003000
003000
003000
003000
003000
003000
003000
003000
003000
003000
003000
003000
000000
000000
000000
000000
000000
000000
000000
000000
000000
000000
ENDCHAR
STARTCHAR section
ENCODING 167
SWIDTH 500 0
DWIDTH 24 0
BBX 24 48 0 -10
BITMAP
000000
000000
000000
000000
000000
000000
00FF00
00FF00
0300C0
0300C0
030000
030000
030000
030000
00FC00
00FC00
030300
030300
0300C0
0300C0
0300C0
0300C0
0300C0
0300C0
0300C0
0300C0
00C0C0
00C0C0
003F00
003F00
0000C0
0000C0
0000C0
0000C0
0300C0
0300C0
00FF00
00FF00
000000
000000
000000
000000
000000
000000
000000
000000
000000
000000
ENDCHAR
STARTCHAR dieresis
ENCODING 168
SWIDTH 500 0
DWIDTH 24 0
BBX 24 48 0 -10
BITMAP
030300
030300
030300
030300
030300
030300
000000
000000
000000
000000
000000
000000
000000
000000
000000
000000
000000
000000
000000
000000
000000
000000
000000
000000
000000
000000
000000
000000
000000
000000
000000
000000
000000
000000
000000
000000
000000
000000
000000
000000
000000
000000
000000
000000
000000
000000
000000
000000
ENDCHAR
STARTCHAR copyright
ENCODING 169
SWIDTH 500 0
DWIDTH 24 0
BBX 24 48 0 -10
BITMAP
000000
000000
000000
000000
000000
000000
000000
000000
000000
000000
000000
000000
03FFC0
03FFC0
0C0030
0C0030
30FF0C
30FF0C
3300CC
3300CC
3300CC
3300CC
33000C
33000C
33000C
33000C
3300CC
3300CC
3300CC
3300CC
30FF0C
30FF0C
0C0030
0C0030
03FFC0
03FFC0
000000
000000
000000
000000
000000
000000
000000
000000
000000
000000
000000
000000
ENDCHAR
STARTCHAR ordfeminine
ENCODING 170
SWIDTH 500 0
DWIDTH 24 0
BBX 24 48 0 -10
BITMAP
000000
000000
03FFC0
03FFC0
000030
000030
000030
000030
03FFF0
03FFF0
0C0030
0C0030
0C0030
0C0030
0C0030
0C0030
0C0030
0C0030
03FFF0
03FFF0
000000
000000
0FFFF0
0FFFF0
000000
000000
000000
000000
000000
000000
000000
000000
000000
000000
000000
000000
000000
000000
000000
000000
000000
000000
000000
000000
000000
000000
000000
000000
ENDCHAR
STARTCHAR guillemotleft
ENCODING 171
SWIDTH 500 0
DWIDTH 24 0
BBX 24 48 0 -10
BITMAP
000000
000000
000000
000000
000000
000000
000000
000000
000000
000000
000000
000000
000000
000000
000000
000000
000C0C
000C0C
003030
003030
00C0C0
00C0C0
030300
030300
0C0C00
0C0C00
303000
303000
0C0C00
0C0C00
030300
030300
00C0C0
00C0C0
003030
003030
000C0C
000C0C
000000
000000
000000
000000
000000
000000
000000
000000
000000
000000
ENDCHAR
STARTCHAR logicalnot
ENCODING 172
SWIDTH 500 0
DWIDTH 24 0
BBX 24 48 0 -10
BITMAP
000000
000000
000000
000000
000000
000000
000000
000000
000000
000000
000000
000000
000000
000000
000000
000000
000000
000000
3FFFF0
3FFFF0
000030
000030
000030
000030
000030
000030
000030
000030
000030
000030
000000
000000
000000
000000
000000
000000
000000
000000
000000
000000
000000
000000
000000
000000
000000
000000
000000
000000
ENDCHAR
STARTCHAR softhyphen
ENCODING 173
SWIDTH 500 0
DWIDTH 24 0
BBX 24 48 0 -10
BITMAP
000000
000000
000000
000000
000000
000000
000000
000000
000000
000000
000000
000000
000000
000000
000000
000000
000000
000000
000000
000000
000000
000000
0FFFC0
0FFFC0
000000
000000
000000
000000
000000
000000
000000
000000
000000
000000
000000
000000
000000
000000
000000
000000
000000
000000
000000
000000
000000
000000
000000
000000
ENDCHAR
STARTCHAR registered
ENCODING 174
SWIDTH 500 0
DWIDTH 24 0
BBX 24 48 0 -10
BITMAP
000000
000000
000000
000000
000000
000000
000000
000000
000000
000000
000000
000000
03FFC0
03FFC0
0C0030
0C0030
33FF0C
33FF0C
3300CC
3300CC
3300CC
3300CC
3300CC
3300CC
33FF0C
33FF0C
330C0C
330C0C
33030C
33030C
3300CC
3300CC
0C0030
0C0030
03FFC0
03FFC0
000000
000000
000000
000000
000000
000000
000000
000000
000000
000000
000000
000000
ENDCHAR
STARTCHAR macron
ENCODING 175
SWIDTH 500 0
DWIDTH 24 0
BBX 24 48 0 -10
BITMAP
000000
000000
0FFFC0
0FFFC0
000000
000000
000000
000000
000000
000000
000000
000000
000000
000000
000000
000000
000000
000000
000000
000000
000000
000000
000000
000000
000000
000000
000000
000000
000000
000000
000000
000000
000000
000000
000000
000000
000000
000000
000000
000000
000000
000000
000000
000000
000000
000000
000000
000000
ENDCHAR
STARTCHAR degree
ENCODING 176
SWIDTH 500 0
DWIDTH 24 0
BBX 24 48 0 -10
BITMAP
000000
000000
000000
000000
00FF00
00FF00
0300C0
0300C0
0300C0
0300C0
0300C0
0300C0
0300C0
0300C0
00FF00
00FF00
000000
000000
000000
000000
000000
000000
000000
000000
000000
000000
000000
000000
000000
000000
000000
000000
000000
000000
000000
000000
000000
000000
000000
000000
000000
000000
000000
000000
000000
000000
000000
000000
ENDCHAR
STARTCHAR plusminus
ENCODING 177
SWIDTH 500 0
DWIDTH 24 0
BBX 24 48 0 -10
BITMAP
000000
000000
000000
000000
000000
000000
000000
000000
000000
000000
000000
000000
000000
000000
003000
003000
003000
003000
003000
003000
003000
003000
3FFFF0
3FFFF0
003000
003000
003000
003000
003000
003000
003000
003000
000000
000000
000000
000000
3FFFF0
3FFFF0
000000
000000
000000
000000
000000
000000
000000
000000
000000
000000
ENDCHAR
STARTCHAR twosuperior
ENCODING 178
SWIDTH 500 0
DWIDTH 24 0
BBX 24 48 0 -10
BITMAP
000000
000000
000000
000000
00FF00
00FF00
0300C0
0300C0
0300C0
0300C0
0000C0
0000C0
000300
000300
000C00
000C00
003000
003000
00C000
00C000
03FFC0
03FFC0
000000
000000
000000
000000
000000
000000
000000
000000
000000
000000
000000
000000
000000
000000
000000
000000
000000
000000
000000
000000
000000
000000
000000
000000
000000
000000
ENDCHAR
STARTCHAR threesuperior
ENCODING 179
SWIDTH 500 0
DWIDTH 24 0
BBX 24 48 0 -10
BITMAP
000000
000000
000000
000000
00FF00
00FF00
0300C0
0300C0
0000C0
0000C0
0000C0
0000C0
003F00
003F00
0000C0
0000C0
0000C0
0000C0
0300C0
0300C0
00FF00
00FF00
000000
000000
000000
000000
000000
000000
000000
000000
000000
000000
000000
000000
000000
000000
000000
000000
000000
000000
000000
000000
000000
000000
000000
000000
000000
000000
ENDCHAR
STARTCHAR acute
ENCODING 180
SWIDTH 500 0
DWIDTH 24 0
BBX 24 48 0 -10
BITMAP
000300
000300
000C00
000C00
003000
003000
000000
000000
000000
000000
000000
000000
000000
000000
000000
000000
000000
000000
000000
000000
000000
000000
000000
000000
000000
000000
000000
000000
000000
000000
000000
000000
000000
000000
000000
000000
000000
000000
000000
000000
000000
000000
000000
000000
000000
000000
000000
000000
ENDCHAR
STARTCHAR mu
ENCODING 181
SWIDTH 500 0
DWIDTH 24 0
BBX 24 48 0 -10
BITMAP
000000
000000
000000
000000
000000
000000
000000
000000
000000
000000
000000
000000
000000
000000
000000
000000
300030
300030
300030
300030
300030
300030
300030
300030
300030
300030
300030
300030
300030
300030
300030
300030
3000F0
3000F0
300330
300330
3FFC30
3FFC30
300000
300000
300000
300000
300000
300000
300000
300000
000000
000000
ENDCHAR
STARTCHAR paragraph
ENCODING 182
SWIDTH 500 0
DWIDTH 24 0
BBX 24 48 0 -10
BITMAP
000000
000000
000000
000000
000000
000000
000000
000000
0FFFF0
0FFFF0
303030
303030
303030
303030
303030
303030
303030
303030
303030
303030
303030
303030
0FF030
0FF030
003030
003030
003030
003030
003030
003030
003030
003030
003030
003030
003030
003030
003030
003030
000000
000000
000000
000000
000000
000000
000000
000000
000000
000000
ENDCHAR
STARTCHAR periodcentered
ENCODING 183
SWIDTH 500 0
DWIDTH 24 0
BBX 24 48 0 -10
BITMAP
000000
000000
000000
000000
000000
000000
000000
000000
000000
000000
000000
000000
000000
000000
000000
000000
000000
000000
000000
000000
003000
003000
003000
003000
003000
003000
000000
000000
000000
000000
000000
000000
000000
000000
000000
000000
000000
000000
000000
000000
000000
000000
000000
000000
000000
000000
000000
000000
ENDCHAR
STARTCHAR cedilla
ENCODING 184
SWIDTH 500 0
DWIDTH 24 0
BBX 24 48 0 -10
BITMAP
000000
000000
000000
000000
000000
000000
000000
000000
000000
000000
000000
000000
000000
000000
000000
000000
000000
000000
000000
000000
000000
000000
000000
000000
000000
000000
000000
000000
000000
000000
000000
000000
000000
000000
000000
000000
000000
000000
003000
003000
003000
003000
003000
003000
00C000
00C000
000000
000000
ENDCHAR
STARTCHAR onesuperior
ENCODING 185
SWIDTH 500 0
DWIDTH 24 0
BBX 24 48 0 -10
BITMAP
000000
000000
000000
000000
003000
003000
00F000
00F000
033000
033000
003000
003000
003000
003000
003000
003000
003000
003000
003000
003000
03FF00
03FF00
000000
000000
000000
000000
000000
000000
000000
000000
000000
000000
000000
000000
000000
000000
000000
000000
000000
000000
000000
000000
000000
000000
000000
000000
000000
000000
ENDCHAR
STARTCHAR ordmasculine
ENCODING 186
SWIDTH 500 0
DWIDTH 24 0
BBX 24 48 0 -10
BITMAP
000000
000000
00FF00
00FF00
0300C0
0300C0
0C0030
0C0030
0C0030
0C0030
0C0030
0C0030
0C0030
0C0030
0C0030
0C0030
0300C0
0300C0
00FF00
00FF00
000000
000000
0FFFF0
0FFFF0
000000
000000
000000
000000
000000
000000
000000
000000
000000
000000
000000
000000
000000
000000
000000
000000
000000
000000
000000
000000
000000
000000
000000
000000
ENDCHAR
STARTCHAR guillemotright
ENCODING 187
SWIDTH 500 0
DWIDTH 24 0
BBX 24 48 0 -10
BITMAP
000000
000000
000000
000000
000000
000000
000000
000000
000000
000000
000000
000000
000000
000000
000000
000000
303000
303000
0C0C00
0C0C00
030300
030300
00C0C0
00C0C0
003030
003030
000C0C
000C0C
003030
003030
00C0C0
00C0C0
030300
030300
0C0C00
0C0C00
303000
303000
000000
000000
000000
000000
000000
000000
000000
000000
000000
000000
ENDCHAR
STARTCHAR onequarter
ENCODING 188
SWIDTH 500 0
DWIDTH 24 0
BBX 24 48 0 -10
BITMAP
000000
000000
000000
000000
000000
000000
00C000
00C000
03C000
03C000
0CC000
0CC000
00C000
00C000
00C030
00C030
00C0C0
00C0C0
00C300
00C300
000C00
000C00
003000
003000
00C0C0
00C0C0
0303C0
0303C0
0C0CC0
0C0CC0
3030C0
3030C0
00C0C0
00C0C0
00FFC0
00FFC0
0000C0
0000C0
0000C0
0000C0
000000
000000
000000
000000
000000
000000
000000
000000
ENDCHAR
STARTCHAR onehalf
ENCODING 189
SWIDTH 500 0
DWIDTH 24 0
BBX 24 48 0 -10
BITMAP
000000
000000
000000
000000
000000
000000
00C000
00C000
03C000
03C000
0CC000
0CC000
00C000
00C000
00C030
00C030
00C0C0
00C0C0
00C300
00C300
000C00
000C00
003000
003000
00C000
00C000
030FC0
030FC0
0C3030
0C3030
303030
303030
0000C0
0000C0
000300
000300
000C00
000C00
003FF0
003FF0
000000
000000
000000
000000
000000
000000
000000
000000
ENDCHAR
STARTCHAR threequarters
ENCODING 190
SWIDTH 500 0
DWIDTH 24 0
BBX 24 48 0 -10
BITMAP
000000
000000
000000
000000
000000
000000
03F000
03F000
0C0C00
0C0C00
000C00
000C00
00F000
00F000
000C00
000C00
0C0C30
0C0C30
03F0C0
03F0C0
000300
000300
000C00
000C00
0030C0
0030C0
00C3C0
00C3C0
030CC0
030CC0
0C30C0
0C30C0
30C0C0
30C0C0
00FFC0
00FFC0
0000C0
0000C0
0000C0
0000C0
000000
000000
000000
000000
000000
000000
000000
000000
ENDCHAR
STARTCHAR questiondown
ENCODING 191
SWIDTH 500 0
DWIDTH 24 0
BBX 24 48 0 -10
BITMAP
000000
000000
000000
000000
000000
000000
000000
000000
003000
003000
003000
003000
003000
003000
000000
000000
000000
000000
003000
003000
003000
003000
00C000
00C000
030000
030000
0C0000
0C0000
300030
300030
300030
300030
300030
300030
0C00C0
0C00C0
03FF00
03FF00
000000
000000
000000
000000
000000
000000
000000
000000
000000
000000
ENDCHAR
STARTCHAR Agrave
ENCODING 192
SWIDTH 500 0
DWIDTH 24 0
BBX 24 48 0 -10
BITMAP
030000
030000
00C000
00C000
003000
003000
000000
000000
03FF00
03FF00
0C00C0
0C00C0
300030
300030
300030
300030
300030
300030
300030
300030
300030
300030
300030
300030
3FFFF0
3FFFF0
300030
300030
300030
300030
300030
300030
300030
300030
300030
300030
300030
300030
000000
000000
000000
000000
000000
000000
000000
000000
000000
000000
ENDCHAR
STARTCHAR Aacute
ENCODING 193
SWIDTH 500 0
DWIDTH 24 0
BBX 24 48 0 -10
BITMAP
000300
000300
000C00
000C00
003000
003000
000000
000000
03FF00
03FF00
0C00C0
0C00C0
300030
300030
300030
300030
300030
300030
300030
300030
300030
300030
300030
300030
3FFFF0
3FFFF0
300030
300030
300030
300030
300030
300030
300030
300030
300030
300030
300030
300030
000000
000000
000000
000000
000000
000000
000000
000000
000000
000000
ENDCHAR
STARTCHAR Acircumflex
ENCODING 194
SWIDTH 500 0
DWIDTH 24 0
BBX 24 48 0 -10
BITMAP
003000
003000
00CC00
00CC00
030300
030300
000000
000000
03FF00
03FF00
0C00C0
0C00C0
300030
300030
300030
300030
300030
300030
300030
300030
300030
300030
300030
300030
3FFFF0
3FFFF0
300030
300030
300030
300030
300030
300030
300030
300030
300030
300030
300030
300030
000000
000000
000000
000000
000000
000000
000000
000000
000000
000000
ENDCHAR
STARTCHAR Atilde
ENCODING 195
SWIDTH 500 0
DWIDTH 24 0
BBX 24 48 0 -10
BITMAP
03C0C0
03C0C0
0C30C0
0C30C0
0C0F00
0C0F00
000000
000000
03FF00
03FF00
0C00C0
0C00C0
300030
300030
300030
300030
300030
300030
300030
300030
300030
300030
300030
300030
3FFFF0
3FFFF0
300030
300030
300030
300030
300030
300030
300030
300030
300030
300030
300030
300030
000000
000000
000000
000000
000000
000000
000000
000000
000000
000000
ENDCHAR
STARTCHAR Adieresis
ENCODING 196
SWIDTH 500 0
DWIDTH 24 0
BBX 24 48 0 -10
BITMAP
030300
030300
030300
030300
030300
030300
000000
000000
03FF00
03FF00
0C00C0
0C00C0
300030
300030
300030
300030
300030
300030
300030
300030
300030
300030
300030
300030
3FFFF0
3FFFF0
300030
300030
300030
300030
300030
300030
300030
300030
300030
300030
300030
300030
000000
000000
000000
000000
000000
000000
000000
000000
000000
000000
ENDCHAR
STARTCHAR Aring
ENCODING 197
SWIDTH 500 0
DWIDTH 24 0
BBX 24 48 0 -10
BITMAP
00FC00
00FC00
030300
030300
030300
030300
00FC00
00FC00
03FF00
03FF00
0C00C0
0C00C0
300030
300030
300030
300030
300030
300030
300030
300030
300030
300030
300030
300030
3FFFF0
3FFFF0
300030
300030
300030
300030
300030
300030
300030
300030
300030
300030
300030
300030
000000
000000
000000
000000
000000
000000
000000
000000
000000
000000
ENDCHAR
STARTCHAR AE
ENCODING 198
SWIDTH 500 0
DWIDTH 24 0
BBX 24 48 0 -10
BITMAP
000000
000000
000000
000000
000000
000000
000000
000000
0FFFFC
0FFFFC
303000
303000
C03000
C03000
C03000
C03000
C03000
C03000
C03000
C03000
C03000
C03000
FFFFF0
FFFFF0
C03000
C03000
C03000
C03000
C03000
C03000
C03000
C03000
C03000
C03000
C03000
C03000
C03FFC
C03FFC
000000
000000
000000
000000
000000
000000
000000
000000
000000
000000
ENDCHAR
STARTCHAR Ccedilla
ENCODING 199
SWIDTH 500 0
DWIDTH 24 0
BBX 24 48 0 -10
BITMAP
000000
000000
000000
000000
000000
000000
000000
000000
03FF00
03FF00
0C00C0
0C00C0
300030
300030
300030
300030
300000
300000
300000
300000
300000
300000
300000
300000
300000
300000
300000
300000
300000
300000
300030
300030
300030
300030
0C00C0
0C00C0
03FF00
03FF00
003000
003000
003000
003000
003000
003000
00C000
00C000
000000
000000
ENDCHAR
STARTCHAR Egrave
ENCODING 200
SWIDTH 500 0
DWIDTH 24 0
BBX 24 48 0 -10
BITMAP
030000
030000
00C000
00C000
003000
003000
000000
000000
3FFFF0
3FFFF0
300000
300000
300000
300000
300000
300000
300000
300000
300000
300000
300000
300000
3FFF00
3FFF00
300000
300000
300000
300000
300000
300000
300000
300000
300000
300000
300000
300000
3FFFF0
3FFFF0
000000
000000
000000
000000
000000
000000
000000
000000
000000
000000
ENDCHAR
STARTCHAR Eacute
ENCODING 201
SWIDTH 500 0
DWIDTH 24 0
BBX 24 48 0 -10
BITMAP
000300
000300
000C00
000C00
003000
003000
000000
000000
3FFFF0
3FFFF0
300000
300000
300000
300000
300000
300000
300000
300000
300000
300000
300000
300000
3FFF00
3FFF00
300000
300000
300000
300000
300000
300000
300000
300000
300000
300000
300000
300000
3FFFF0
3FFFF0
000000
000000
000000
000000
000000
000000
000000
000000
000000
000000
ENDCHAR
STARTCHAR Ecircumflex
ENCODING 202
SWIDTH 500 0
DWIDTH 24 0
BBX 24 48 0 -10
BITMAP
003000
003000
00CC00
00CC00
030300
030300
000000
000000
3FFFF0
3FFFF0
300000
300000
300000
300000
300000
300000
300000
300000
300000
300000
300000
300000
3FFF00
3FFF00
300000
300000
300000
300000
300000
300000
300000
300000
300000
300000
300000
300000
3FFFF0
3FFFF0
000000
000000
000000
000000
000000
000000
000000
000000
000000
000000
ENDCHAR
STARTCHAR Edieresis
ENCODING 203
SWIDTH 500 0
DWIDTH 24 0
BBX 24 48 0 -10
BITMAP
030300
030300
030300
030300
030300
030300
000000
000000
3FFFF0
3FFFF0
300000
300000
300000
300000
300000
300000
300000
300000
300000
300000
300000
300000
3FFF00
3FFF00
300000
300000
300000
300000
300000
300000
300000
300000
300000
300000
300000
300000
3FFFF0
3FFFF0
000000
000000
000000
000000
000000
000000
000000
000000
000000
000000
ENDCHAR
STARTCHAR Igrave
ENCODING 204
SWIDTH 500 0
DWIDTH 24 0
BBX 24 48 0 -10
BITMAP
030000
030000
00C000
00C000
003000
003000
000000
000000
03FF00
03FF00
003000
003000
003000
003000
003000
003000
003000
003000
003000
003000
003000
003000
003000
003000
003000
003000
003000
003000
003000
003000
003000
003000
003000
003000
003000
003000
03FF00
03FF00
000000
000000
000000
000000
000000
000000
000000
000000
000000
000000
ENDCHAR
STARTCHAR Iacute
ENCODING 205
SWIDTH 500 0
DWIDTH 24 0
BBX 24 48 0 -10
BITMAP
000300
000300
000C00
000C00
003000
003000
000000
000000
03FF00
03FF00
003000
003000
003000
003000
003000
003000
003000
003000
003000
003000
003000
003000
003000
003000
003000
003000
003000
003000
003000
003000
003000
003000
003000
003000
003000
003000
03FF00
03FF00
000000
000000
000000
000000
000000
000000
000000
000000
000000
000000
ENDCHAR
STARTCHAR Icircumflex
ENCODING 206
SWIDTH 500 0
DWIDTH 24 0
BBX 24 48 0 -10
BITMAP
003000
003000
00CC00
00CC00
030300
030300
000000
000000
03FF00
03FF00
003000
003000
003000
003000
003000
003000
003000
003000
003000
003000
003000
003000
003000
003000
003000
003000
003000
003000
003000
003000
003000
003000
003000
003000
003000
003000
03FF00
03FF00
000000
000000
000000
000000
000000
000000
000000
000000
000000
000000
ENDCHAR
STARTCHAR Idieresis
ENCODING 207
SWIDTH 500 0
DWIDTH 24 0
BBX 24 48 0 -10
BITMAP
030300
030300
030300
030300
030300
030300
000000
000000
03FF00
03FF00
003000
003000
003000
003000
003000
003000
003000
003000
003000
003000
003000
003000
003000
003000
003000
003000
003000
003000
003000
003000
003000
003000
003000
003000
003000
003000
03FF00
03FF00
000000
000000
000000
000000
000000
000000
000000
000000
000000
000000
ENDCHAR
STARTCHAR Eth
ENCODING 208
SWIDTH 500 0
DWIDTH 24 0
BBX 24 48 0 -10
BITMAP
000000
000000
000000
000000
000000
000000
000000
000000
3FFF00
3FFF00
3000C0
3000C0
300030
300030
300030
300030
300030
300030
300030
300030
300030
300030
FFF030
FFF030
300030
300030
300030
300030
300030
300030
300030
300030
300030
300030
3000C0
3000C0
3FFF00
3FFF00
000000
000000
000000
000000
000000
000000
000000
000000
000000
000000
ENDCHAR
STARTCHAR Ntilde
ENCODING 209
SWIDTH 500 0
DWIDTH 24 0
BBX 24 48 0 -10
BITMAP
03C0C0
03C0C0
0C30C0
0C30C0
0C0F00
0C0F00
000000
000000
300030
300030
300030
300030
300030
300030
300030
300030
3C0030
3C0030
330030
330030
30C030
30C030
303030
303030
300C30
300C30
300330
300330
3000F0
3000F0
300030
300030
300030
300030
300030
300030
300030
300030
000000
000000
000000
000000
000000
000000
000000
000000
000000
000000
ENDCHAR
STARTCHAR Ograve
ENCODING 210
SWIDTH 500 0
DWIDTH 24 0
BBX 24 48 0 -10
BITMAP
030000
030000
00C000
00C000
003000
003000
000000
000000
03FF00
03FF00
0C00C0
0C00C0
300030
300030
300030
300030
300030
300030
300030
300030
300030
300030
300030
300030
300030
300030
300030
300030
300030
300030
300030
300030
300030
300030
0C00C0
0C00C0
03FF00
03FF00
000000
000000
000000
000000
000000
000000
000000
000000
000000
000000
ENDCHAR
STARTCHAR Oacute
ENCODING 211
SWIDTH 500 0
DWIDTH 24 0
BBX 24 48 0 -10
BITMAP
000300
000300
000C00
000C00
003000
003000
000000
000000
03FF00
03FF00
0C00C0
0C00C0
300030
300030
300030
300030
300030
300030
300030
300030
300030
300030
300030
300030
300030
300030
300030
300030
300030
300030
300030
300030
300030
300030
0C00C0
0C00C0
03FF00
03FF00
000000
000000
000000
000000
000000
000000
000000
000000
000000
000000
ENDCHAR
STARTCHAR Ocircumflex
ENCODING 212
SWIDTH 500 0
DWIDTH 24 0
BBX 24 48 0 -10
BITMAP
003000
003000
00CC00
00CC00
030300
030300
000000
000000
03FF00
03FF00
0C00C0
0C00C0
300030
300030
300030
300030
300030
300030
300030
300030
300030
300030
300030
300030
300030
300030
300030
300030
300030
300030
300030
300030
300030
300030
0C00C0
0C00C0
03FF00
03FF00
000000
000000
000000
000000
000000
000000
000000
000000
000000
000000
ENDCHAR
STARTCHAR Otilde
ENCODING 213
SWIDTH 500 0
DWIDTH 24 0
BBX 24 48 0 -10
BITMAP
03C0C0
03C0C0
0C30C0
0C30C0
0C0F00
0C0F00
000000
000000
03FF00
03FF00
0C00C0
0C00C0
300030
300030
300030
300030
300030
300030
300030
300030
300030
300030
300030
300030
300030
300030
300030
300030
300030
300030
300030
300030
300030
300030
0C00C0
0C00C0
03FF00
03FF00
000000
000000
000000
000000
000000
000000
000000
000000
000000
000000
ENDCHAR
STARTCHAR Odieresis
ENCODING 214
SWIDTH 500 0
DWIDTH 24 0
BBX 24 48 0 -10
BITMAP
030300
030300
030300
030300
030300
030300
000000
000000
03FF00
03FF00
0C00C0
0C00C0
300030
300030
300030
300030
300030
300030
300030
300030
300030
300030
300030
300030
300030
300030
300030
300030
300030
300030
300030
300030
300030
300030
0C00C0
0C00C0
03FF00
03FF00
000000
000000
000000
000000
000000
000000
000000
000000
000000
000000
ENDCHAR
STARTCHAR multiply
ENCODING 215
SWIDTH 500 0
DWIDTH 24 0
BBX 24 48 0 -10
BITMAP
000000
000000
000000
000000
000000
000000
000000
000000
000000
000000
000000
000000
000000
000000
300030
300030
0C00C0
0C00C0
030300
030300
00CC00
00CC00
003000
003000
00CC00
00CC00
030300
030300
0C00C0
0C00C0
300030
300030
000000
000000
000000
000000
000000
000000
000000
000000
000000
000000
000000
000000
000000
000000
000000
000000
ENDCHAR
STARTCHAR Oslash
ENCODING 216
SWIDTH 500 0
DWIDTH 24 0
BBX 24 48 0 -10
BITMAP
000000
000000
000000
000000
000000
000000
000000
000000
03FF00
03FF00
0C00C0
0C00C0
30003C
30003C
300030
300030
3000F0
3000F0
300330
300330
300C30
300C30
303030
303030
30C030
30C030
330030
330030
3C0030
3C0030
300030
300030
F00030
F00030
0C00C0
0C00C0
03FF00
03FF00
000000
000000
000000
000000
000000
000000
000000
000000
000000
000000
ENDCHAR
STARTCHAR Ugrave
ENCODING 217
SWIDTH 500 0
DWIDTH 24 0
BBX 24 48 0 -10
BITMAP
030000
030000
00C000
00C000
003000
003000
000000
000000
300030
300030
300030
300030
300030
300030
300030
300030
300030
300030
300030
300030
300030
300030
300030
300030
300030
300030
300030
300030
300030
300030
300030
300030
300030
300030
0C00C0
0C00C0
03FF00
03FF00
000000
000000
000000
000000
000000
000000
000000
000000
000000
000000
ENDCHAR
STARTCHAR Uacute
ENCODING 218
SWIDTH 500 0
DWIDTH 24 0
BBX 24 48 0 -10
BITMAP
000300
000300
000C00
000C00
003000
003000
000000
000000
300030
300030
300030
300030
300030
300030
300030
300030
300030
300030
300030
300030
300030
300030
300030
300030
300030
300030
300030
300030
300030
300030
300030
300030
300030
300030
0C00C0
0C00C0
03FF00
03FF00
000000
000000
000000
000000
000000
000000
000000
000000
000000
000000
ENDCHAR
STARTCHAR Ucircumflex
ENCODING 219
SWIDTH 500 0
DWIDTH 24 0
BBX 24 48 0 -10
BITMAP
003000
003000
00CC00
00CC00
030300
030300
000000
000000
300030
300030
300030
300030
300030
300030
300030
300030
300030
300030
300030
300030
300030
300030
300030
300030
300030
300030
300030
300030
300030
300030
300030
300030
300030
300030
0C00C0
0C00C0
03FF00
03FF00
000000
000000
000000
000000
000000
000000
000000
000000
000000
000000
ENDCHAR
STARTCHAR Udieresis
ENCODING 220
SWIDTH 500 0
DWIDTH 24 0
BBX 24 48 0 -10
BITMAP
030300
030300
030300
030300
030300
030300
000000
000000
300030
300030
300030
300030
300030
300030
300030
300030
300030
300030
300030
300030
300030
300030
300030
300030
300030
300030
300030
300030
300030
300030
300030
300030
300030
300030
0C00C0
0C00C0
03FF00
03FF00
000000
000000
000000
000000
000000
000000
000000
000000
000000
000000
ENDCHAR
STARTCHAR Yacute
ENCODING 221
SWIDTH 500 0
DWIDTH 24 0
BBX 24 48 0 -10
BITMAP
000300
000300
000C00
000C00
003000
003000
000000
000000
300030
300030
300030
300030
0C00C0
0C00C0
0C00C0
0C00C0
030300
030300
030300
030300
00CC00
00CC00
00CC00
00CC00
003000
003000
003000
003000
003000
003000
003000
003000
003000
003000
003000
003000
003000
003000
000000
000000
000000
000000
000000
000000
000000
000000
000000
000000
ENDCHAR
STARTCHAR Thorn
ENCODING 222
SWIDTH 500 0
DWIDTH 24 0
BBX 24 48 0 -10
BITMAP
000000
000000
000000
000000
000000
000000
000000
000000
300000
300000
300000
300000
300000
300000
3FFF00
3FFF00
3000C0
3000C0
300030
300030
300030
300030
300030
300030
300030
300030
3000C0
3000C0
3FFF00
3FFF00
300000
300000
300000
300000
300000
300000
300000
300000
000000
000000
000000
000000
000000
000000
000000
000000
000000
000000
ENDCHAR
STARTCHAR germandbls
ENCODING 223
SWIDTH 500 0
DWIDTH 24 0
BBX 24 48 0 -10
BITMAP
000000
000000
000000
000000
000000
000000
000000
000000
0FFC00
0FFC00
300300
300300
3000C0
3000C0
3000C0
3000C0
3000C0
3000C0
300300
300300
3FFF00
3FFF00
3000C0
3000C0
300030
300030
300030
300030
300030
300030
300030
300030
3C0030
3C0030
3300C0
3300C0
30FF00
30FF00
000000
000000
000000
000000
000000
000000
000000
000000
000000
000000
ENDCHAR
STARTCHAR agrave
ENCODING 224
SWIDTH 500 0
DWIDTH 24 0
BBX 24 48 0 -10
BITMAP
000000
000000
000000
000000
000000
000000
000000
000000
030000
030000
00C000
00C000
003000
003000
000000
000000
0FFF00
0FFF00
0000C0
0000C0
000030
000030
000030
000030
03FFF0
03FFF0
0C0030
0C0030
300030
300030
300030
300030
300030
300030
0C0030
0C0030
03FFF0
03FFF0
000000
000000
000000
000000
000000
000000
000000
000000
000000
000000
ENDCHAR
STARTCHAR aacute
ENCODING 225
SWIDTH 500 0
DWIDTH 24 0
BBX 24 48 0 -10
BITMAP
000000
000000
000000
000000
000000
000000
000000
000000
000300
000300
000C00
000C00
003000
003000
000000
000000
0FFF00
0FFF00
0000C0
0000C0
000030
000030
000030
000030
03FFF0
03FFF0
0C0030
0C0030
300030
300030
300030
300030
300030
300030
0C0030
0C0030
03FFF0
03FFF0
000000
000000
000000
000000
000000
000000
000000
000000
000000
000000
ENDCHAR
STARTCHAR acircumflex
ENCODING 226
SWIDTH 500 0
DWIDTH 24 0
BBX 24 48 0 -10
BITMAP
000000
000000
000000
000000
000000
000000
000000
000000
003000
003000
00CC00
00CC00
030300
030300
000000
000000
0FFF00
0FFF00
0000C0
0000C0
000030
000030
000030
000030
03FFF0
03FFF0
0C0030
0C0030
300030
300030
300030
300030
300030
300030
0C0030
0C0030
03FFF0
03FFF0
000000
000000
000000
000000
000000
000000
000000
000000
000000
000000
ENDCHAR
STARTCHAR atilde
ENCODING 227
SWIDTH 500 0
DWIDTH 24 0
BBX 24 48 0 -10
BITMAP
000000
000000
000000
000000
000000
000000
000000
000000
03C0C0
03C0C0
0C30C0
0C30C0
0C0F00
0C0F00
000000
000000
0FFF00
0FFF00
0000C0
0000C0
000030
000030
000030
000030
03FFF0
03FFF0
0C0030
0C0030
300030
300030
300030
300030
300030
300030
0C0030
0C0030
03FFF0
03FFF0
000000
000000
000000
000000
000000
000000
000000
000000
000000
000000
ENDCHAR
STARTCHAR adieresis
ENCODING 228
SWIDTH 500 0
DWIDTH 24 0
BBX 24 48 0 -10
BITMAP
000000
000000
000000
000000
000000
000000
000000
000000
030300
030300
030300
030300
030300
030300
000000
000000
0FFF00
0FFF00
0000C0
0000C0
000030
000030
000030
000030
03FFF0
03FFF0
0C0030
0C0030
300030
300030
300030
300030
300030
300030
0C0030
0C0030
03FFF0
03FFF0
000000
000000
000000
000000
000000
000000
000000
000000
000000
000000
ENDCHAR
STARTCHAR aring
ENCODING 229
SWIDTH 500 0
DWIDTH 24 0
BBX 24 48 0 -10
BITMAP
000000
000000
000000
000000
000000
000000
000000
000000
00FC00
00FC00
030300
030300
030300
030300
00FC00
00FC00
0FFF00
0FFF00
0000C0
0000C0
000030
000030
000030
000030
03FFF0
03FFF0
0C0030
0C0030
300030
300030
300030
300030
300030
300030
0C0030
0C0030
03FFF0
03FFF0
000000
000000
000000
000000
000000
000000
000000
000000
000000
000000
ENDCHAR
STARTCHAR ae
ENCODING 230
SWIDTH 500 0
DWIDTH 24 0
BBX 24 48 0 -10
BITMAP
000000
000000
000000
000000
000000
000000
000000
000000
000000
000000
000000
000000
000000
000000
000000
000000
3FCFF0
3FCFF0
00300C
00300C
00300C
00300C
00300C
00300C
3FF00C
3FF00C
C03FFC
C03FFC
C03000
C03000
C03000
C03000
C03000
C03000
C0300C
C0300C
3FCFF0
3FCFF0
000000
000000
000000
000000
000000
000000
000000
000000
000000
000000
ENDCHAR
STARTCHAR ccedilla
ENCODING 231
SWIDTH 500 0
DWIDTH 24 0
BBX 24 48 0 -10
BITMAP
000000
000000
000000
000000
000000
000000
000000
000000
000000
000000
000000
000000
000000
000000
000000
000000
03FF00
03FF00
0C00C0
0C00C0
300030
300030
300000
300000
300000
300000
300000
300000
300000
300000
300000
300000
300030
300030
0C00C0
0C00C0
03FF00
03FF00
003000
003000
003000
003000
003000
003000
00C000
00C000
000000
000000
ENDCHAR
STARTCHAR egrave
ENCODING 232
SWIDTH 500 0
DWIDTH 24 0
BBX 24 48 0 -10
BITMAP
000000
000000
000000
000000
000000
000000
000000
000000
030000
030000
00C000
00C000
003000
003000
000000
000000
03FF00
03FF00
0C00C0
0C00C0
300030
300030
300030
300030
300030
300030
3FFFF0
3FFFF0
300000
300000
300000
300000
300000
300000
0C0030
0C0030
03FFC0
03FFC0
000000
000000
000000
000000
000000
000000
000000
000000
000000
000000
ENDCHAR
STARTCHAR eacute
ENCODING 233
SWIDTH 500 0
DWIDTH 24 0
BBX 24 48 0 -10
BITMAP
000000
000000
000000
000000
000000
000000
000000
000000
000300
000300
000C00
000C00
003000
003000
000000
000000
03FF00
03FF00
0C00C0
0C00C0
300030
300030
300030
300030
300030
300030
3FFFF0
3FFFF0
300000
300000
300000
300000
300000
300000
0C0030
0C0030
03FFC0
03FFC0
000000
000000
000000
000000
000000
000000
000000
000000
000000
000000
ENDCHAR
STARTCHAR ecircumflex
ENCODING 234
SWIDTH 500 0
DWIDTH 24 0
BBX 24 48 0 -10
BITMAP
000000
000000
000000
000000
000000
000000
000000
000000
003000
003000
00CC00
00CC00
030300
030300
000000
000000
03FF00
03FF00
0C00C0
0C00C0
300030
300030
300030
300030
300030
300030
3FFFF0
3FFFF0
300000
300000
300000
300000
300000
300000
0C0030
0C0030
03FFC0
03FFC0
000000
000000
000000
000000
000000
000000
000000
000000
000000
000000
ENDCHAR
STARTCHAR edieresis
ENCODING 235
SWIDTH 500 0
DWIDTH 24 0
BBX 24 48 0 -10
BITMAP
000000
000000
000000
000000
000000
000000
000000
000000
030300
030300
030300
030300
030300
030300
000000
000000
03FF00
03FF00
0C00C0
0C00C0
300030
300030
300030
300030
300030
300030
3FFFF0
3FFFF0
300000
300000
300000
300000
300000
300000
0C0030
0C0030
03FFC0
03FFC0
000000
000000
000000
000000
000000
000000
000000
000000
000000
000000
ENDCHAR
STARTCHAR igrave
ENCODING 236
SWIDTH 500 0
DWIDTH 24 0
BBX 24 48 0 -10
BITMAP
000000
000000
000000
000000
000000
000000
000000
000000
030000
030000
00C000
00C000
003000
003000
000000
000000
03F000
03F000
003000
003000
003000
003000
003000
003000
003000
003000
003000
003000
003000
003000
003000
003000
003000
003000
003000
003000
03FF00
03FF00
000000
000000
000000
000000
000000
000000
000000
000000
000000
000000
ENDCHAR
STARTCHAR iacute
ENCODING 237
SWIDTH 500 0
DWIDTH 24 0
BBX 24 48 0 -10
BITMAP
000000
000000
000000
000000
000000
000000
000000
000000
000300
000300
000C00
000C00
003000
003000
000000
000000
03F000
03F000
003000
003000
003000
003000
003000
003000
003000
003000
003000
003000
003000
003000
003000
003000
003000
003000
003000
003000
03FF00
03FF00
000000
000000
000000
000000
000000
000000
000000
000000
000000
000000
ENDCHAR
STARTCHAR icircumflex
ENCODING 238
SWIDTH 500 0
DWIDTH 24 0
BBX 24 48 0 -10
BITMAP
000000
000000
000000
000000
000000
000000
000000
000000
003000
003000
00CC00
00CC00
030300
030300
000000
000000
03F000
03F000
003000
003000
003000
003000
003000
003000
003000
003000
003000
003000
003000
003000
003000
003000
003000
003000
003000
003000
03FF00
03FF00
000000
000000
000000
000000
000000
000000
000000
000000
000000
000000
ENDCHAR
STARTCHAR idieresis
ENCODING 239
SWIDTH 500 0
DWIDTH 24 0
BBX 24 48 0 -10
BITMAP
000000
000000
000000
000000
000000
000000
000000
000000
030300
030300
030300
030300
030300
030300
000000
000000
03F000
03F000
003000
003000
003000
003000
003000
003000
003000
003000
003000
003000
003000
003000
003000
003000
003000
003000
003000
003000
03FF00
03FF00
000000
000000
000000
000000
000000
000000
000000
000000
000000
000000
ENDCHAR
STARTCHAR eth
ENCODING 240
SWIDTH 500 0
DWIDTH 24 0
BBX 24 48 0 -10
BITMAP
000000
000000
000000
000000
000000
000000
000000
000000
033C00
033C00
00C000
00C000
0F3000
0F3000
000C00
000C00
03FF00
03FF00
0C00C0
0C00C0
300030
300030
300030
300030
300030
300030
300030
300030
300030
300030
300030
300030
300030
300030
0C00C0
0C00C0
03FF00
03FF00
000000
000000
000000
000000
000000
000000
000000
000000
000000
000000
ENDCHAR
STARTCHAR ntilde
ENCODING 241
SWIDTH 500 0
DWIDTH 24 0
BBX 24 48 0 -10
BITMAP
000000
000000
000000
000000
000000
000000
000000
000000
03C0C0
03C0C0
0C30C0
0C30C0
0C0F00
0C0F00
000000
000000
3FFF00
3FFF00
3000C0
3000C0
300030
300030
300030
300030
300030
300030
300030
300030
300030
300030
300030
300030
300030
300030
300030
300030
300030
300030
000000
000000
000000
000000
000000
000000
000000
000000
000000
000000
ENDCHAR
STARTCHAR ograve
ENCODING 242
SWIDTH 500 0
DWIDTH 24 0
BBX 24 48 0 -10
BITMAP
000000
000000
000000
000000
000000
000000
000000
000000
030000
030000
00C000
00C000
003000
003000
000000
000000
03FF00
03FF00
0C00C0
0C00C0
300030
300030
300030
300030
300030
300030
300030
300030
300030
300030
300030
300030
300030
300030
0C00C0
0C00C0
03FF00
03FF00
000000
000000
000000
000000
000000
000000
000000
000000
000000
000000
ENDCHAR
STARTCHAR oacute
ENCODING 243
SWIDTH 500 0
DWIDTH 24 0
BBX 24 48 0 -10
BITMAP
000000
000000
000000
000000
000000
000000
000000
000000
000300
000300
000C00
000C00
003000
003000
000000
000000
03FF00
03FF00
0C00C0
0C00C0
300030
300030
300030
300030
300030
300030
300030
300030
300030
300030
300030
300030
300030
300030
0C00C0
0C00C0
03FF00
03FF00
000000
000000
000000
000000
000000
000000
000000
000000
000000
000000
ENDCHAR
STARTCHAR ocircumflex
ENCODING 244
SWIDTH 500 0
DWIDTH 24 0
BBX 24 48 0 -10
BITMAP
000000
000000
000000
000000
000000
000000
000000
000000
003000
003000
00CC00
00CC00
030300
030300
000000
000000
03FF00
03FF00
0C00C0
0C00C0
300030
300030
300030
300030
300030
300030
300030
300030
300030
300030
300030
300030
300030
300030
0C00C0
0C00C0
03FF00
03FF00
000000
000000
000000
000000
000000
000000
000000
000000
000000
000000
ENDCHAR
STARTCHAR otilde
ENCODING 245
SWIDTH 500 0
DWIDTH 24 0
BBX 24 48 0 -10
BITMAP
000000
000000
000000
000000
000000
000000
000000
000000
03C0C0
03C0C0
0C30C0
0C30C0
0C0F00
0C0F00
000000
000000
03FF00
03FF00
0C00C0
0C00C0
300030
300030
300030
300030
300030
300030
300030
300030
300030
300030
300030
300030
300030
300030
0C00C0
0C00C0
03FF00
03FF00
000000
000000
000000
000000
000000
000000
000000
000000
000000
000000
ENDCHAR
STARTCHAR odieresis
ENCODING 246
SWIDTH 500 0
DWIDTH 24 0
BBX 24 48 0 -10
BITMAP
000000
000000
000000
000000
000000
000000
000000
000000
030300
030300
030300
030300
030300
030300
000000
000000
03FF00
03FF00
0C00C0
0C00C0
300030
300030
300030
300030
300030
300030
300030
300030
300030
300030
300030
300030
300030
300030
0C00C0
0C00C0
03FF00
03FF00
000000
000000
000000
000000
000000
000000
000000
000000
000000
000000
ENDCHAR
STARTCHAR divide
ENCODING 247
SWIDTH 500 0
DWIDTH 24 0
BBX 24 48 0 -10
BITMAP
000000
000000
000000
000000
000000
000000
000000
000000
000000
000000
000000
000000
003000
003000
003000
003000
003000
003000
000000
000000
000000
000000
3FFFF0
3FFFF0
000000
000000
000000
000000
003000
003000
003000
003000
003000
003000
000000
000000
000000
000000
000000
000000
000000
000000
000000
000000
000000
000000
000000
000000
ENDCHAR
STARTCHAR oslash
ENCODING 248
SWIDTH 500 0
DWIDTH 24 0
BBX 24 48 0 -10
BITMAP
000000
000000
000000
000000
000000
000000
000000
000000
000000
000000
000000
000000
000000
000000
000000
000000
03FF0C
03FF0C
0C00F0
0C00F0
3000F0
3000F0
300330
300330
300C30
300C30
303030
303030
30C030
30C030
330030
330030
3C0030
3C0030
3C00C0
3C00C0
C3FF00
C3FF00
000000
000000
000000
000000
000000
000000
000000
000000
000000
000000
ENDCHAR
STARTCHAR ugrave
ENCODING 249
SWIDTH 500 0
DWIDTH 24 0
BBX 24 48 0 -10
BITMAP
000000
000000
000000
000000
000000
000000
000000
000000
030000
030000
00C000
00C000
003000
003000
000000
000000
300030
300030
300030
300030
300030
300030
300030
300030
300030
300030
300030
300030
300030
300030
300030
300030
300030
300030
0C0030
0C0030
03FFF0
03FFF0
000000
000000
000000
000000
000000
000000
000000
000000
000000
000000
ENDCHAR
STARTCHAR uacute
ENCODING 250
SWIDTH 500 0
DWIDTH 24 0
BBX 24 48 0 -10
BITMAP
000000
000000
000000
000000
000000
000000
000000
000000
000300
000300
000C00
000C00
003000
003000
000000
000000
300030
300030
300030
300030
300030
300030
300030
300030
300030
300030
300030
300030
300030
300030
300030
300030
300030
300030
0C0030
0C0030
03FFF0
03FFF0
000000
000000
000000
000000
000000
000000
000000
000000
000000
000000
ENDCHAR
STARTCHAR ucircumflex
ENCODING 251
SWIDTH 500 0
DWIDTH 24 0
BBX 24 48 0 -10
BITMAP
000000
000000
000000
000000
000000
000000
000000
000000
003000
003000
00CC00
00CC00
030300
030300
000000
000000
300030
300030
300030
300030
300030
300030
300030
300030
300030
300030
300030
300030
300030
300030
300030
300030
300030
300030
0C0030
0C0030
03FFF0
03FFF0
000000
000000
000000
000000
000000
000000
000000
000000
000000
000000
ENDCHAR
STARTCHAR udieresis
ENCODING 252
SWIDTH 500 0
DWIDTH 24 0
BBX 24 48 0 -10
BITMAP
000000
000000
000000
000000
000000
000000
000000
000000
030300
030300
030300
030300
030300
030300
000000
000000
300030
300030
300030
300030
300030
300030
300030
300030
300030
300030
300030
300030
300030
300030
300030
300030
300030
300030
0C0030
0C0030
03FFF0
03FFF0
000000
000000
000000
000000
000000
000000
000000
000000
000000
000000
ENDCHAR
STARTCHAR yacute
ENCODING 253
SWIDTH 500 0
DWIDTH 24 0
BBX 24 48 0 -10
BITMAP
000000
000000
000000
000000
000000
000000
000000
000000
000300
000300
000C00
000C00
003000
003000
000000
000000
300030
300030
300030
300030
300030
300030
300030
300030
300030
300030
300030
300030
300030
300030
300030
300030
300030
300030
0C00F0
0C00F0
03FF30
03FF30
000030
000030
000030
000030
0000C0
0000C0
0FFF00
0FFF00
000000
000000
ENDCHAR
STARTCHAR thorn
ENCODING 254
SWIDTH 500 0
DWIDTH 24 0
BBX 24 48 0 -10
BITMAP
000000
000000
000000
000000
000000
000000
000000
000000
300000
300000
300000
300000
300000
300000
300000
300000
3FFF00
3FFF00
3000C0
3000C0
300030
300030
300030
300030
300030
300030
300030
300030
300030
300030
300030
300030
300030
300030
3000C0
3000C0
3FFF00
3FFF00
300000
300000
300000
300000
300000
300000
300000
300000
000000
000000
ENDCHAR
STARTCHAR ydieresis
ENCODING 255
SWIDTH 500 0
DWIDTH 24 0
BBX 24 48 0 -10
BITMAP
000000
000000
000000
000000
000000
000000
000000
000000
030300
030300
030300
030300
030300
030300
000000
000000
300030
300030
300030
300030
300030
300030
300030
300030
300030
300030
300030
300030
300030
300030
300030
300030
300030
300030
0C00F0
0C00F0
03FF30
03FF30
000030
000030
000030
000030
0000C0
0000C0
0FFF00
0FFF00
000000
000000
ENDCHAR
STARTCHAR Amacron
ENCODING 256
SWIDTH 500 0
DWIDTH 24 0
BBX 24 48 0 -10
BITMAP
000000
000000
0FFFC0
0FFFC0
000000
000000
000000
000000
03FF00
03FF00
0C00C0
0C00C0
300030
300030
300030
300030
300030
300030
300030
300030
300030
300030
300030
300030
3FFFF0
3FFFF0
300030
300030
300030
300030
300030
300030
300030
300030
300030
300030
300030
300030
000000
000000
000000
000000
000000
000000
000000
000000
000000
000000
ENDCHAR
STARTCHAR amacron
ENCODING 257
SWIDTH 500 0
DWIDTH 24 0
BBX 24 48 0 -10
BITMAP
000000
000000
000000
000000
000000
000000
000000
000000
000000
000000
0FFFC0
0FFFC0
000000
000000
000000
000000
0FFF00
0FFF00
0000C0
0000C0
000030
000030
000030
000030
03FFF0
03FFF0
0C0030
0C0030
300030
300030
300030
300030
300030
300030
0C0030
0C0030
03FFF0
03FFF0
000000
000000
000000
000000
000000
000000
000000
000000
000000
000000
ENDCHAR
STARTCHAR Abreve
ENCODING 258
SWIDTH 500 0
DWIDTH 24 0
BBX 24 48 0 -10
BITMAP
0C00C0
0C00C0
0C00C0
0C00C0
03FF00
03FF00
000000
000000
03FF00
03FF00
0C00C0
0C00C0
300030
300030
300030
300030
300030
300030
300030
300030
300030
300030
300030
300030
3FFFF0
3FFFF0
300030
300030
300030
300030
300030
300030
300030
300030
300030
300030
300030
300030
000000
000000
000000
000000
000000
000000
000000
000000
000000
000000
ENDCHAR
STARTCHAR abreve
ENCODING 259
SWIDTH 500 0
DWIDTH 24 0
BBX 24 48 0 -10
BITMAP
000000
000000
000000
000000
000000
000000
000000
000000
0C00C0
0C00C0
0C00C0
0C00C0
03FF00
03FF00
000000
000000
0FFF00
0FFF00
0000C0
0000C0
000030
000030
000030
000030
03FFF0
03FFF0
0C0030
0C0030
300030
300030
300030
300030
300030
300030
0C0030
0C0030
03FFF0
03FFF0
000000
000000
000000
000000
000000
000000
000000
000000
000000
000000
ENDCHAR
STARTCHAR Aogonek
ENCODING 260
SWIDTH 500 0
DWIDTH 24 0
BBX 24 48 0 -10
BITMAP
000000
000000
000000
000000
000000
000000
000000
000000
03FF00
03FF00
0C00C0
0C00C0
300030
300030
300030
300030
300030
300030
300030
300030
300030
300030
300030
300030
3FFFF0
3FFFF0
300030
300030
300030
300030
300030
300030
300030
300030
300030
300030
300030
300030
0000C0
0000C0
000300
000300
000300
000300
0000FC
0000FC
000000
000000
ENDCHAR
STARTCHAR aogonek
ENCODING 261
SWIDTH 500 0
DWIDTH 24 0
BBX 24 48 0 -10
BITMAP
000000
000000
000000
000000
000000
000000
000000
000000
000000
000000
000000
000000
000000
000000
000000
000000
0FFF00
0FFF00
0000C0
0000C0
000030
000030
000030
000030
03FFF0
03FFF0
0C0030
0C0030
300030
300030
300030
300030
300030
300030
0C0030
0C0030
03FFF0
03FFF0
0000C0
0000C0
000300
000300
000300
000300
0000FC
0000FC
000000
000000
ENDCHAR
STARTCHAR Cacute
ENCODING 262
SWIDTH 500 0
DWIDTH 24 0
BBX 24 48 0 -10
BITMAP
000300
000300
000C00
000C00
003000
003000
000000
000000
03FF00
03FF00
0C00C0
0C00C0
300030
300030
300030
300030
300000
300000
300000
300000
300000
300000
300000
300000
300000
300000
300000
300000
300000
300000
300030
300030
300030
300030
0C00C0
0C00C0
03FF00
03FF00
000000
000000
000000
000000
000000
000000
000000
000000
000000
000000
ENDCHAR
STARTCHAR cacute
ENCODING 263
SWIDTH 500 0
DWIDTH 24 0
BBX 24 48 0 -10
BITMAP
000000
000000
000000
000000
000000
000000
000000
000000
000300
000300
000C00
000C00
003000
003000
000000
000000
03FF00
03FF00
0C00C0
0C00C0
300030
300030
300000
300000
300000
300000
300000
300000
300000
300000
300000
300000
300030
300030
0C00C0
0C00C0
03FF00
03FF00
000000
000000
000000
000000
000000
000000
000000
000000
000000
000000
ENDCHAR
STARTCHAR Ccircumflex
ENCODING 264
SWIDTH 500 0
DWIDTH 24 0
BBX 24 48 0 -10
BITMAP
003000
003000
00CC00
00CC00
030300
030300
000000
000000
03FF00
03FF00
0C00C0
0C00C0
300030
300030
300030
300030
300000
300000
300000
300000
300000
300000
300000
300000
300000
300000
300000
300000
300000
300000
300030
300030
300030
300030
0C00C0
0C00C0
03FF00
03FF00
000000
000000
000000
000000
000000
000000
000000
000000
000000
000000
ENDCHAR
STARTCHAR ccircumflex
ENCODING 265
SWIDTH 500 0
DWIDTH 24 0
BBX 24 48 0 -10
BITMAP
000000
000000
000000
000000
000000
000000
000000
000000
003000
003000
00CC00
00CC00
030300
030300
000000
000000
03FF00
03FF00
0C00C0
0C00C0
300030
300030
300000
300000
300000
300000
300000
300000
300000
300000
300000
300000
300030
300030
0C00C0
0C00C0
03FF00
03FF00
000000
000000
000000
000000
000000
000000
000000
000000
000000
000000
ENDCHAR
STARTCHAR Cdotaccent
ENCODING 266
SWIDTH 500 0
DWIDTH 24 0
BBX 24 48 0 -10
BITMAP
003000
003000
003000
003000
003000
003000
000000
000000
03FF00
03FF00
0C00C0
0C00C0
300030
300030
300030
300030
300000
300000
300000
300000
300000
300000
300000
300000
300000
300000
300000
300000
300000
300000
300030
300030
300030
300030
0C00C0
0C00C0
03FF00
03FF00
000000
000000
000000
000000
000000
000000
000000
000000
000000
000000
ENDCHAR
STARTCHAR cdotaccent
ENCODING 267
SWIDTH 500 0
DWIDTH 24 0
BBX 24 48 0 -10
BITMAP
000000
000000
000000
000000
000000
000000
000000
000000
003000
003000
003000
003000
003000
003000
000000
000000
03FF00
03FF00
0C00C0
0C00C0
300030
300030
300000
300000
300000
300000
300000
300000
300000
300000
300000
300000
300030
300030
0C00C0
0C00C0
03FF00
03FF00
000000
000000
000000
000000
000000
000000
000000
000000
000000
000000
ENDCHAR
STARTCHAR Ccaron
ENCODING 268
SWIDTH 500 0
DWIDTH 24 0
BBX 24 48 0 -10
BITMAP
030300
030300
00CC00
00CC00
003000
003000
000000
000000
03FF00
03FF00
0C00C0
0C00C0
300030
300030
300030
300030
300000
300000
300000
300000
300000
300000
300000
300000
300000
300000
300000
300000
300000
300000
300030
300030
300030
300030
0C00C0
0C00C0
03FF00
03FF00
000000
000000
000000
000000
000000
000000
000000
000000
000000
000000
ENDCHAR
STARTCHAR ccaron
ENCODING 269
SWIDTH 500 0
DWIDTH 24 0
BBX 24 48 0 -10
BITMAP
000000
000000
000000
000000
000000
000000
000000
000000
030300
030300
00CC00
00CC00
003000
003000
000000
000000
03FF00
03FF00
0C00C0
0C00C0
300030
300030
300000
300000
300000
300000
300000
300000
300000
300000
300000
300000
300030
300030
0C00C0
0C00C0
03FF00
03FF00
000000
000000
000000
000000
000000
000000
000000
000000
000000
000000
ENDCHAR
STARTCHAR Dcaron
ENCODING 270
SWIDTH 500 0
DWIDTH 24 0
BBX 24 48 0 -10
BITMAP
030300
030300
00CC00
00CC00
003000
003000
000000
000000
3FFF00
3FFF00
3000C0
3000C0
300030
300030
300030
300030
300030
300030
300030
300030
300030
300030
300030
300030
300030
300030
300030
300030
300030
300030
300030
300030
300030
300030
3000C0
3000C0
3FFF00
3FFF00
000000
000000
000000
000000
000000
000000
000000
000000
000000
000000
ENDCHAR
STARTCHAR dcaron
ENCODING 271
SWIDTH 500 0
DWIDTH 24 0
BBX 24 48 0 -10
BITMAP
030300
030300
00CC00
00CC00
003000
003000
000000
000000
000030
000030
000030
000030
000030
000030
000030
000030
03FFF0
03FFF0
0C0030
0C0030
300030
300030
300030
300030
300030
300030
300030
300030
300030
300030
300030
300030
300030
300030
0C0030
0C0030
03FFF0
03FFF0
000000
000000
000000
000000
000000
000000
000000
000000
000000
000000
ENDCHAR
STARTCHAR Dcroat
ENCODING 272
SWIDTH 500 0
DWIDTH 24 0
BBX 24 48 0 -10
BITMAP
000000
000000
000000
000000
000000
000000
000000
000000
3FFF00
3FFF00
3000C0
3000C0
300030
300030
300030
300030
300030
300030
300030
300030
300030
300030
FFF030
FFF030
300030
300030
300030
300030
300030
300030
300030
300030
300030
300030
3000C0
3000C0
3FFF00
3FFF00
000000
000000
000000
000000
000000
000000
000000
000000
000000
000000
ENDCHAR
STARTCHAR dcroat
ENCODING 273
SWIDTH 500 0
DWIDTH 24 0
BBX 24 48 0 -10
BITMAP
000000
000000
000000
000000
000000
000000
000000
000000
000030
000030
003FFC
003FFC
000030
000030
000030
000030
03FFF0
03FFF0
0C0030
0C0030
300030
300030
300030
300030
300030
300030
300030
300030
300030
300030
300030
300030
300030
300030
0C0030
0C0030
03FFF0
03FFF0
000000
000000
000000
000000
000000
000000
000000
000000
000000
000000
ENDCHAR
STARTCHAR Emacron
ENCODING 274
SWIDTH 500 0
DWIDTH 24 0
BBX 24 48 0 -10
BITMAP
000000
000000
0FFFC0
0FFFC0
000000
000000
000000
000000
3FFFF0
3FFFF0
300000
300000
300000
300000
300000
300000
300000
300000
300000
300000
300000
300000
3FFF00
3FFF00
300000
300000
300000
300000
300000
300000
300000
300000
300000
300000
300000
300000
3FFFF0
3FFFF0
000000
000000
000000
000000
000000
000000
000000
000000
000000
000000
ENDCHAR
STARTCHAR emacron
ENCODING 275
SWIDTH 500 0
DWIDTH 24 0
BBX 24 48 0 -10
BITMAP
000000
000000
000000
000000
000000
000000
000000
000000
000000
000000
0FFFC0
0FFFC0
000000
000000
000000
000000
03FF00
03FF00
0C00C0
0C00C0
300030
300030
300030
300030
300030
300030
3FFFF0
3FFFF0
300000
300000
300000
300000
300000
300000
0C0030
0C0030
03FFC0
03FFC0
000000
000000
000000
000000
000000
000000
000000
000000
000000
000000
ENDCHAR
STARTCHAR Ebreve
ENCODING 276
SWIDTH 500 0
DWIDTH 24 0
BBX 24 48 0 -10
BITMAP
0C00C0
0C00C0
0C00C0
0C00C0
03FF00
03FF00
000000
000000
3FFFF0
3FFFF0
300000
300000
300000
300000
300000
300000
300000
300000
300000
300000
300000
300000
3FFF00
3FFF00
300000
300000
300000
300000
300000
300000
300000
300000
300000
300000
300000
300000
3FFFF0
3FFFF0
000000
000000
000000
000000
000000
000000
000000
000000
000000
000000
ENDCHAR
STARTCHAR ebreve
ENCODING 277
SWIDTH 500 0
DWIDTH 24 0
BBX 24 48 0 -10
BITMAP
000000
000000
000000
000000
000000
000000
000000
000000
0C00C0
0C00C0
0C00C0
0C00C0
03FF00
03FF00
000000
000000
03FF00
03FF00
0C00C0
0C00C0
300030
300030
300030
300030
300030
300030
3FFFF0
3FFFF0
300000
300000
300000
300000
300000
300000
0C0030
0C0030
03FFC0
03FFC0
000000
000000
000000
000000
000000
000000
000000
000000
000000
000000
ENDCHAR
STARTCHAR Edotaccent
ENCODING 278
SWIDTH 500 0
DWIDTH 24 0
BBX 24 48 0 -10
BITMAP
003000
003000
003000
003000
003000
003000
000000
000000
3FFFF0
3FFFF0
300000
300000
300000
300000
300000
300000
300000
300000
300000
300000
300000
300000
3FFF00
3FFF00
300000
300000
300000
300000
300000
300000
300000
300000
300000
300000
300000
300000
3FFFF0
3FFFF0
000000
000000
000000
000000
000000
000000
000000
000000
000000
000000
ENDCHAR
STARTCHAR edotaccent
ENCODING 279
SWIDTH 500 0
DWIDTH 24 0
BBX 24 48 0 -10
BITMAP
000000
000000
000000
000000
000000
000000
000000
000000
003000
003000
003000
003000
003000
003000
000000
000000
03FF00
03FF00
0C00C0
0C00C0
300030
300030
300030
300030
300030
300030
3FFFF0
3FFFF0
300000
300000
300000
300000
300000
300000
0C0030
0C0030
03FFC0
03FFC0
000000
000000
000000
000000
000000
000000
000000
000000
000000
000000
ENDCHAR
STARTCHAR Eogonek
ENCODING 280
SWIDTH 500 0
DWIDTH 24 0
BBX 24 48 0 -10
BITMAP
000000
000000
000000
000000
000000
000000
000000
000000
3FFFF0
3FFFF0
300000
300000
300000
300000
300000
300000
300000
300000
300000
300000
300000
300000
3FFF00
3FFF00
300000
300000
300000
300000
300000
300000
300000
300000
300000
300000
300000
300000
3FFFF0
3FFFF0
0000C0
0000C0
000300
000300
000300
000300
0000FC
0000FC
000000
000000
ENDCHAR
STARTCHAR eogonek
ENCODING 281
SWIDTH 500 0
DWIDTH 24 0
BBX 24 48 0 -10
BITMAP
000000
000000
000000
000000
000000
000000
000000
000000
000000
000000
000000
000000
000000
000000
000000
000000
03FF00
03FF00
0C00C0
0C00C0
300030
300030
300030
300030
300030
300030
3FFFF0
3FFFF0
300000
300000
300000
300000
300000
300000
0C0030
0C0030
03FFC0
03FFC0
000C00
000C00
003000
003000
003000
003000
000FC0
000FC0
000000
000000
ENDCHAR
STARTCHAR Ecaron
ENCODING 282
SWIDTH 500 0
DWIDTH 24 0
BBX 24 48 0 -10
BITMAP
030300
030300
00CC00
00CC00
003000
003000
000000
000000
3FFFF0
3FFFF0
300000
300000
300000
300000
300000
300000
300000
300000
300000
300000
300000
300000
3FFF00
3FFF00
300000
300000
300000
300000
300000
300000
300000
300000
300000
300000
300000
300000
3FFFF0
3FFFF0
000000
000000
000000
000000
000000
000000
000000
000000
000000
000000
ENDCHAR
STARTCHAR ecaron
ENCODING 283
SWIDTH 500 0
DWIDTH 24 0
BBX 24 48 0 -10
BITMAP
000000
000000
000000
000000
000000
000000
000000
000000
030300
030300
00CC00
00CC00
003000
003000
000000
000000
03FF00
03FF00
0C00C0
0C00C0
300030
300030
300030
300030
300030
300030
3FFFF0
3FFFF0
300000
300000
300000
300000
300000
300000
0C0030
0C0030
03FFC0
03FFC0
000000
000000
000000
000000
000000
000000
000000
000000
000000
000000
ENDCHAR
STARTCHAR Gcircumflex
ENCODING 284
SWIDTH 500 0
DWIDTH 24 0
BBX 24 48 0 -10
BITMAP
003000
003000
00CC00
00CC00
030300
030300
000000
000000
03FF00
03FF00
0C00C0
0C00C0
300030
300030
300030
300030
300000
300000
300000
300000
300000
300000
303FF0
303FF0
300030
300030
300030
300030
300030
300030
300030
300030
300030
300030
0C00C0
0C00C0
03FF00
03FF00
000000
000000
000000
000000
000000
000000
000000
000000
000000
000000
ENDCHAR
STARTCHAR gcircumflex
ENCODING 285
SWIDTH 500 0
DWIDTH 24 0
BBX 24 48 0 -10
BITMAP
000000
000000
000000
000000
000000
000000
000000
000000
003000
003000
00CC00
00CC00
030300
030300
000000
000000
03FFF0
03FFF0
0C0030
0C0030
300030
300030
300030
300030
300030
300030
300030
300030
300030
300030
300030
300030
300030
300030
0C00F0
0C00F0
03FF30
03FF30
000030
000030
000030
000030
0000C0
0000C0
0FFF00
0FFF00
000000
000000
ENDCHAR
STARTCHAR Gbreve
ENCODING 286
SWIDTH 500 0
DWIDTH 24 0
BBX 24 48 0 -10
BITMAP
0C00C0
0C00C0
0C00C0
0C00C0
03FF00
03FF00
000000
000000
03FF00
03FF00
0C00C0
0C00C0
300030
300030
300030
300030
300000
300000
300000
300000
300000
300000
303FF0
303FF0
300030
300030
300030
300030
300030
300030
300030
300030
300030
300030
0C00C0
0C00C0
03FF00
03FF00
000000
000000
000000
000000
000000
000000
000000
000000
000000
000000
ENDCHAR
STARTCHAR gbreve
ENCODING 287
SWIDTH 500 0
DWIDTH 24 0
BBX 24 48 0 -10
BITMAP
000000
000000
000000
000000
000000
000000
000000
000000
0C00C0
0C00C0
0C00C0
0C00C0
03FF00
03FF00
000000
000000
03FFF0
03FFF0
0C0030
0C0030
300030
300030
300030
300030
300030
300030
300030
300030
300030
300030
300030
300030
300030
300030
0C00F0
0C00F0
03FF30
03FF30
000030
000030
000030
000030
0000C0
0000C0
0FFF00
0FFF00
000000
000000
ENDCHAR
STARTCHAR Gdotaccent
ENCODING 288
SWIDTH 500 0
DWIDTH 24 0
BBX 24 48 0 -10
BITMAP
003000
003000
003000
003000
003000
003000
000000
000000
03FF00
03FF00
0C00C0
0C00C0
300030
300030
300030
300030
300000
300000
300000
300000
300000
300000
303FF0
303FF0
300030
300030
300030
300030
300030
300030
300030
300030
300030
300030
0C00C0
0C00C0
03FF00
03FF00
000000
000000
000000
000000
000000
000000
000000
000000
000000
000000
ENDCHAR
STARTCHAR gdotaccent
ENCODING 289
SWIDTH 500 0
DWIDTH 24 0
BBX 24 48 0 -10
BITMAP
000000
000000
000000
000000
000000
000000
000000
000000
000C00
000C00
000C00
000C00
000C00
000C00
000000
000000
03FFF0
03FFF0
0C0030
0C0030
300030
300030
300030
300030
300030
300030
300030
300030
300030
300030
300030
300030
300030
300030
0C00F0
0C00F0
03FF30
03FF30
000030
000030
000030
000030
0000C0
0000C0
0FFF00
0FFF00
000000
000000
ENDCHAR
STARTCHAR Gcommaaccent
ENCODING 290
SWIDTH 500 0
DWIDTH 24 0
BBX 24 48 0 -10
BITMAP
000000
000000
000000
000000
000000
000000
000000
000000
03FF00
03FF00
0C00C0
0C00C0
300030
300030
300030
300030
300000
300000
300000
300000
300000
300000
303FF0
303FF0
300030
300030
300030
300030
300030
300030
300030
300030
300030
300030
0C00C0
0C00C0
03FF00
03FF00
000000
000000
003000
003000
003000
003000
003000
003000
00C000
00C000
ENDCHAR
STARTCHAR gcommaaccent
ENCODING 291
SWIDTH 500 0
DWIDTH 24 0
BBX 24 48 0 -10
BITMAP
000000
000000
000000
000000
000000
000000
000300
000300
000C00
000C00
000C00
000C00
000C00
000C00
000000
000000
03FFF0
03FFF0
0C0030
0C0030
300030
300030
300030
300030
300030
300030
300030
300030
300030
300030
300030
300030
300030
300030
0C00F0
0C00F0
03FF30
03FF30
000030
000030
000030
000030
0000C0
0000C0
0FFF00
0FFF00
000000
000000
ENDCHAR
STARTCHAR Hcircumflex
ENCODING 292
SWIDTH 500 0
DWIDTH 24 0
BBX 24 48 0 -10
BITMAP
003000
003000
00CC00
00CC00
030300
030300
000000
000000
300030
300030
300030
300030
300030
300030
300030
300030
300030
300030
300030
300030
300030
300030
3FFFF0
3FFFF0
300030
300030
300030
300030
300030
300030
300030
300030
300030
300030
300030
300030
300030
300030
000000
000000
000000
000000
000000
000000
000000
000000
000000
000000
ENDCHAR
STARTCHAR hcircumflex
ENCODING 293
SWIDTH 500 0
DWIDTH 24 0
BBX 24 48 0 -10
BITMAP
003000
003000
00CC00
00CC00
030300
030300
000000
000000
300000
300000
300000
300000
300000
300000
300000
300000
3FFF00
3FFF00
3000C0
3000C0
300030
300030
300030
300030
300030
300030
300030
300030
300030
300030
300030
300030
300030
300030
300030
300030
300030
300030
000000
000000
000000
000000
000000
000000
000000
000000
000000
000000
ENDCHAR
STARTCHAR Hbar
ENCODING 294
SWIDTH 500 0
DWIDTH 24 0
BBX 24 48 0 -10
BITMAP
000000
000000
000000
000000
000000
000000
000000
000000
300030
300030
300030
300030
300030
300030
FFFFFC
FFFFFC
300030
300030
300030
300030
300030
300030
3FFFF0
3FFFF0
300030
300030
300030
300030
300030
300030
300030
300030
300030
300030
300030
300030
300030
300030
000000
000000
000000
000000
000000
000000
000000
000000
000000
000000
ENDCHAR
STARTCHAR hbar
ENCODING 295
SWIDTH 500 0
DWIDTH 24 0
BBX 24 48 0 -10
BITMAP
000000
000000
000000
000000
000000
000000
000000
000000
300000
300000
FFF000
FFF000
300000
300000
300000
300000
3FFF00
3FFF00
3000C0
3000C0
300030
300030
300030
300030
300030
300030
300030
300030
300030
300030
300030
300030
300030
300030
300030
300030
300030
300030
000000
000000
000000
000000
000000
000000
000000
000000
000000
000000
ENDCHAR
STARTCHAR Itilde
ENCODING 296
SWIDTH 500 0
DWIDTH 24 0
BBX 24 48 0 -10
BITMAP
03C0C0
03C0C0
0C30C0
0C30C0
0C0F00
0C0F00
000000
000000
03FF00
03FF00
003000
003000
003000
003000
003000
003000
003000
003000
003000
003000
003000
003000
003000
003000
003000
003000
003000
003000
003000
003000
003000
003000
003000
003000
003000
003000
03FF00
03FF00
000000
000000
000000
000000
000000
000000
000000
000000
000000
000000
ENDCHAR
STARTCHAR itilde
ENCODING 297
SWIDTH 500 0
DWIDTH 24 0
BBX 24 48 0 -10
BITMAP
000000
000000
000000
000000
000000
000000
000000
000000
03C0C0
03C0C0
0C30C0
0C30C0
0C0F00
0C0F00
000000
000000
03F000
03F000
003000
003000
003000
003000
003000
003000
003000
003000
003000
003000
003000
003000
003000
003000
003000
003000
003000
003000
03FF00
03FF00
000000
000000
000000
000000
000000
000000
000000
000000
000000
000000
ENDCHAR
STARTCHAR Imacron
ENCODING 298
SWIDTH 500 0
DWIDTH 24 0
BBX 24 48 0 -10
BITMAP
000000
000000
0FFFC0
0FFFC0
000000
000000
000000
000000
03FF00
03FF00
003000
003000
003000
003000
003000
003000
003000
003000
003000
003000
003000
003000
003000
003000
003000
003000
003000
003000
003000
003000
003000
003000
003000
003000
003000
003000
03FF00
03FF00
000000
000000
000000
000000
000000
000000
000000
000000
000000
000000
ENDCHAR
STARTCHAR imacron
ENCODING 299
SWIDTH 500 0
DWIDTH 24 0
BBX 24 48 0 -10
BITMAP
000000
000000
000000
000000
000000
000000
000000
000000
000000
000000
0FFFC0
0FFFC0
000000
000000
000000
000000
03F000
03F000
003000
003000
003000
003000
003000
003000
003000
003000
003000
003000
003000
003000
003000
003000
003000
003000
003000
003000
03FF00
03FF00
000000
000000
000000
000000
000000
000000
000000
000000
000000
000000
ENDCHAR
STARTCHAR Ibreve
ENCODING 300
SWIDTH 500 0
DWIDTH 24 0
BBX 24 48 0 -10
BITMAP
0C00C0
0C00C0
0C00C0
0C00C0
03FF00
03FF00
000000
000000
03FF00
03FF00
003000
003000
003000
003000
003000
003000
003000
003000
003000
003000
003000
003000
003000
003000
003000
003000
003000
003000
003000
003000
003000
003000
003000
003000
003000
003000
03FF00
03FF00
000000
000000
000000
000000
000000
000000
000000
000000
000000
000000
ENDCHAR
STARTCHAR ibreve
ENCODING 301
SWIDTH 500 0
DWIDTH 24 0
BBX 24 48 0 -10
BITMAP
000000
000000
000000
000000
000000
000000
000000
000000
0C00C0
0C00C0
0C00C0
0C00C0
03FF00
03FF00
000000
000000
03F000
03F000
003000
003000
003000
003000
003000
003000
003000
003000
003000
003000
003000
003000
003000
003000
003000
003000
003000
003000
03FF00
03FF00
000000
000000
000000
000000
000000
000000
000000
000000
000000
000000
ENDCHAR
STARTCHAR Iogonek
ENCODING 302
SWIDTH 500 0
DWIDTH 24 0
BBX 24 48 0 -10
BITMAP
000000
000000
000000
000000
000000
000000
000000
000000
03FF00
03FF00
003000
003000
003000
003000
003000
003000
003000
003000
003000
003000
003000
003000
003000
003000
003000
003000
003000
003000
003000
003000
003000
003000
003000
003000
003000
003000
03FF00
03FF00
003000
003000
00C000
00C000
00C000
00C000
003F00
003F00
000000
000000
ENDCHAR
STARTCHAR iogonek
ENCODING 303
SWIDTH 500 0
DWIDTH 24 0
BBX 24 48 0 -10
BITMAP
000000
000000
000000
000000
000000
000000
000000
000000
003000
003000
003000
003000
003000
003000
000000
000000
03F000
03F000
003000
003000
003000
003000
003000
003000
003000
003000
003000
003000
003000
003000
003000
003000
003000
003000
003000
003000
03FF00
03FF00
003000
003000
00C000
00C000
00C000
00C000
003F00
003F00
000000
000000
ENDCHAR
STARTCHAR Idotaccent
ENCODING 304
SWIDTH 500 0
DWIDTH 24 0
BBX 24 48 0 -10
BITMAP
003000
003000
003000
003000
003000
003000
000000
000000
03FF00
03FF00
003000
003000
003000
003000
003000
003000
003000
003000
003000
003000
003000
003000
003000
003000
003000
003000
003000
003000
003000
003000
003000
003000
003000
003000
003000
003000
03FF00
03FF00
000000
000000
000000
000000
000000
000000
000000
000000
000000
000000
ENDCHAR
STARTCHAR dotlessi
ENCODING 305
SWIDTH 500 0
DWIDTH 24 0
BBX 24 48 0 -10
BITMAP
000000
000000
000000
000000
000000
000000
000000
000000
000000
000000
000000
000000
000000
000000
000000
000000
03F000
03F000
003000
003000
003000
003000
003000
003000
003000
003000
003000
003000
003000
003000
003000
003000
003000
003000
003000
003000
03FF00
03FF00
000000
000000
000000
000000
000000
000000
000000
000000
000000
000000
ENDCHAR
STARTCHAR IJ
ENCODING 306
SWIDTH 500 0
DWIDTH 24 0
BBX 24 48 0 -10
BITMAP
000000
000000
000000
000000
000000
000000
000000
000000
FC00FC
FC00FC
300030
300030
300030
300030
300030
300030
300030
300030
300030
300030
300030
300030
300030
300030
300030
300030
300030
300030
30C030
30C030
30C030
30C030
30C030
30C030
30C030
30C030
FC3FC0
FC3FC0
000000
000000
000000
000000
000000
000000
000000
000000
000000
000000
ENDCHAR
STARTCHAR ij
ENCODING 307
SWIDTH 500 0
DWIDTH 24 0
BBX 24 48 0 -10
BITMAP
000000
000000
000000
000000
000000
000000
000000
000000
0C000C
0C000C
0C000C
0C000C
0C000C
0C000C
000000
000000
3C003C
3C003C
0C000C
0C000C
0C000C
0C000C
0C000C
0C000C
0C000C
0C000C
0C000C
0C000C
0C000C
0C000C
0C000C
0C000C
0C000C
0C000C
0C000C
0C000C
3F000C
3F000C
00300C
00300C
00300C
00300C
00300C
00300C
000FF0
000FF0
000000
000000
ENDCHAR
STARTCHAR Jcircumflex
ENCODING 308
SWIDTH 500 0
DWIDTH 24 0
BBX 24 48 0 -10
BITMAP
0000C0
0000C0
000330
000330
000C0C
000C0C
000000
000000
000FFC
000FFC
0000C0
0000C0
0000C0
0000C0
0000C0
0000C0
0000C0
0000C0
0000C0
0000C0
0000C0
0000C0
0000C0
0000C0
0000C0
0000C0
0000C0
0000C0
3000C0
3000C0
3000C0
3000C0
3000C0
3000C0
0C0300
0C0300
03FC00
03FC00
000000
000000
000000
000000
000000
000000
000000
000000
000000
000000
ENDCHAR
STARTCHAR jcircumflex
ENCODING 309
SWIDTH 500 0
DWIDTH 24 0
BBX 24 48 0 -10
BITMAP
000000
000000
000000
000000
000000
000000
000000
000000
0000C0
0000C0
000330
000330
000C0C
000C0C
000000
000000
000FC0
000FC0
0000C0
0000C0
0000C0
0000C0
0000C0
0000C0
0000C0
0000C0
0000C0
0000C0
0000C0
0000C0
0000C0
0000C0
0000C0
0000C0
0000C0
0000C0
0000C0
0000C0
0C00C0
0C00C0
0C00C0
0C00C0
030300
030300
00FC00
00FC00
000000
000000
ENDCHAR
STARTCHAR Kcommaaccent
ENCODING 310
SWIDTH 500 0
DWIDTH 24 0
BBX 24 48 0 -10
BITMAP
000000
000000
000000
000000
000000
000000
000000
000000
300030
300030
3000C0
3000C0
300300
300300
300C00
300C00
303000
303000
30C000
30C000
330000
330000
3C0000
3C0000
330000
330000
30C000
30C000
303000
303000
300C00
300C00
300300
300300
3000C0
3000C0
300030
300030
000000
000000
003000
003000
003000
003000
003000
003000
00C000
00C000
ENDCHAR
STARTCHAR kcommaaccent
ENCODING 311
SWIDTH 500 0
DWIDTH 24 0
BBX 24 48 0 -10
BITMAP
000000
000000
000000
000000
000000
000000
000000
000000
0C0000
0C0000
0C0000
0C0000
0C0000
0C0000
0C0000
0C0000
0C0030
0C0030
0C00C0
0C00C0
0C0300
0C0300
0C0C00
0C0C00
0C3000
0C3000
0FC000
0FC000
0C3000
0C3000
0C0C00
0C0C00
0C0300
0C0300
0C00C0
0C00C0
0C0030
0C0030
000000
000000
003000
003000
003000
003000
003000
003000
00C000
00C000
ENDCHAR
STARTCHAR kgreenlandic
ENCODING 312
SWIDTH 500 0
DWIDTH 24 0
BBX 24 48 0 -10
BITMAP
000000
000000
000000
000000
000000
000000
000000
000000
000000
000000
000000
000000
000000
000000
000000
000000
0C0030
0C0030
0C00C0
0C00C0
0C0300
0C0300
0C0C00
0C0C00
0C3000
0C3000
0FC000
0FC000
0C3000
0C3000
0C0C00
0C0C00
0C0300
0C0300
0C00C0
0C00C0
0C0030
0C0030
000000
000000
000000
000000
000000
000000
000000
000000
000000
000000
ENDCHAR
STARTCHAR Lacute
ENCODING 313
SWIDTH 500 0
DWIDTH 24 0
BBX 24 48 0 -10
BITMAP
030000
030000
0C0000
0C0000
300000
300000
000000
000000
300000
300000
300000
300000
300000
300000
300000
300000
300000
300000
300000
300000
300000
300000
300000
300000
300000
300000
300000
300000
300000
300000
300000
300000
300000
300000
300000
300000
3FFFF0
3FFFF0
000000
000000
000000
000000
000000
000000
000000
000000
000000
000000
ENDCHAR
STARTCHAR lacute
ENCODING 314
SWIDTH 500 0
DWIDTH 24 0
BBX 24 48 0 -10
BITMAP
000300
000300
000C00
000C00
003000
003000
000000
000000
03F000
03F000
003000
003000
003000
003000
003000
003000
003000
003000
003000
003000
003000
003000
003000
003000
003000
003000
003000
003000
003000
003000
003000
003000
003000
003000
003000
003000
03FF00
03FF00
000000
000000
000000
000000
000000
000000
000000
000000
000000
000000
ENDCHAR
STARTCHAR Lcommaaccent
ENCODING 315
SWIDTH 500 0
DWIDTH 24 0
BBX 24 48 0 -10
BITMAP
000000
000000
000000
000000
000000
000000
000000
000000
300000
300000
300000
300000
300000
300000
300000
300000
300000
300000
300000
300000
300000
300000
300000
300000
300000
300000
300000
300000
300000
300000
300000
300000
300000
300000
300000
300000
3FFFF0
3FFFF0
000000
000000
003000
003000
003000
003000
003000
003000
00C000
00C000
ENDCHAR
STARTCHAR lcommaaccent
ENCODING 316
SWIDTH 500 0
DWIDTH 24 0
BBX 24 48 0 -10
BITMAP
000000
000000
000000
000000
000000
000000
000000
000000
03F000
03F000
003000
003000
003000
003000
003000
003000
003000
003000
003000
003000
003000
003000
003000
003000
003000
003000
003000
003000
003000
003000
003000
003000
003000
003000
003000
003000
03FF00
03FF00
000000
000000
003000
003000
003000
003000
003000
003000
00C000
00C000
ENDCHAR
STARTCHAR Lcaron
ENCODING 317
SWIDTH 500 0
DWIDTH 24 0
BBX 24 48 0 -10
BITMAP
030300
030300
00CC00
00CC00
003000
003000
000000
000000
300000
300000
300000
300000
300000
300000
300000
300000
300000
300000
300000
300000
300000
300000
300000
300000
300000
300000
300000
300000
300000
300000
300000
300000
300000
300000
300000
300000
3FFFF0
3FFFF0
000000
000000
000000
000000
000000
000000
000000
000000
000000
000000
ENDCHAR
STARTCHAR lcaron
ENCODING 318
SWIDTH 500 0
DWIDTH 24 0
BBX 24 48 0 -10
BITMAP
030300
030300
00CC00
00CC00
003000
003000
000000
000000
03F000
03F000
003000
003000
003000
003000
003000
003000
003000
003000
003000
003000
003000
003000
003000
003000
003000
003000
003000
003000
003000
003000
003000
003000
003000
003000
003000
003000
03FF00
03FF00
000000
000000
000000
000000
000000
000000
000000
000000
000000
000000
ENDCHAR
STARTCHAR Ldot
ENCODING 319
SWIDTH 500 0
DWIDTH 24 0
BBX 24 48 0 -10
BITMAP
000000
000000
000000
000000
000000
000000
000000
000000
300000
300000
300000
300000
300000
300000
300000
300000
300000
300000
300000
300000
300300
300300
300300
300300
300300
300300
300000
300000
300000
300000
300000
300000
300000
300000
300000
300000
3FFFF0
3FFFF0
000000
000000
000000
000000
000000
000000
000000
000000
000000
000000
ENDCHAR
STARTCHAR ldot
ENCODING 320
SWIDTH 500 0
DWIDTH 24 0
BBX 24 48 0 -10
BITMAP
000000
000000
000000
000000
000000
000000
000000
000000
03F000
03F000
003000
003000
003000
003000
003000
003000
003000
003000
003000
003000
003003
003003
003003
003003
003003
003003
003000
003000
003000
003000
003000
003000
003000
003000
003000
003000
03FF00
03FF00
000000
000000
000000
000000
000000
000000
000000
000000
000000
000000
ENDCHAR
STARTCHAR Lslash
ENCODING 321
SWIDTH 500 0
DWIDTH 24 0
BBX 24 48 0 -10
BITMAP
000000
000000
000000
000000
000000
000000
000000
000000
0C0000
0C0000
0C0000
0C0000
0C0000
0C0000
0C0000
0C0000
0C0000
0C0000
0CC000
0CC000
0F0000
0F0000
0C0000
0C0000
3C0000
3C0000
CC0000
CC0000
0C0000
0C0000
0C0000
0C0000
0C0000
0C0000
0C0000
0C0000
0FFFFC
0FFFFC
000000
000000
000000
000000
000000
000000
000000
000000
000000
000000
ENDCHAR
STARTCHAR lslash
ENCODING 322
SWIDTH 500 0
DWIDTH 24 0
BBX 24 48 0 -10
BITMAP
000000
000000
000000
000000
000000
000000
000000
000000
03F000
03F000
003000
003000
003000
003000
003000
003000
003000
003000
003300
003300
003C00
003C00
003000
003000
00F000
00F000
033000
033000
003000
003000
003000
003000
003000
003000
003000
003000
03FF00
03FF00
000000
000000
000000
000000
000000
000000
000000
000000
000000
000000
ENDCHAR
STARTCHAR Nacute
ENCODING 323
SWIDTH 500 0
DWIDTH 24 0
BBX 24 48 0 -10
BITMAP
000300
000300
000C00
000C00
003000
003000
000000
000000
300030
300030
300030
300030
300030
300030
300030
300030
3C0030
3C0030
330030
330030
30C030
30C030
303030
303030
300C30
300C30
300330
300330
3000F0
3000F0
300030
300030
300030
300030
300030
300030
300030
300030
000000
000000
000000
000000
000000
000000
000000
000000
000000
000000
ENDCHAR
STARTCHAR nacute
ENCODING 324
SWIDTH 500 0
DWIDTH 24 0
BBX 24 48 0 -10
BITMAP
000000
000000
000000
000000
000000
000000
000000
000000
000300
000300
000C00
000C00
003000
003000
000000
000000
3FFF00
3FFF00
3000C0
3000C0
300030
300030
300030
300030
300030
300030
300030
300030
300030
300030
300030
300030
300030
300030
300030
300030
300030
300030
000000
000000
000000
000000
000000
000000
000000
000000
000000
000000
ENDCHAR
STARTCHAR Ncommaaccent
ENCODING 325
SWIDTH 500 0
DWIDTH 24 0
BBX 24 48 0 -10
BITMAP
000000
000000
000000
000000
000000
000000
000000
000000
300030
300030
300030
300030
300030
300030
300030
300030
3C0030
3C0030
330030
330030
30C030
30C030
303030
303030
300C30
300C30
300330
300330
3000F0
3000F0
300030
300030
300030
300030
300030
300030
300030
300030
000000
000000
003000
003000
003000
003000
003000
003000
00C000
00C000
ENDCHAR
STARTCHAR ncommaaccent
ENCODING 326
SWIDTH 500 0
DWIDTH 24 0
BBX 24 48 0 -10
BITMAP
000000
000000
000000
000000
000000
000000
000000
000000
000000
000000
000000
000000
000000
000000
000000
000000
3FFF00
3FFF00
3000C0
3000C0
300030
300030
300030
300030
300030
300030
300030
300030
300030
300030
300030
300030
300030
300030
300030
300030
300030
300030
000000
000000
003000
003000
003000
003000
003000
003000
00C000
00C000
ENDCHAR
STARTCHAR Ncaron
ENCODING 327
SWIDTH 500 0
DWIDTH 24 0
BBX 24 48 0 -10
BITMAP
030300
030300
00CC00
00CC00
003000
003000
000000
000000
300030
300030
300030
300030
300030
300030
300030
300030
3C0030
3C0030
330030
330030
30C030
30C030
303030
303030
300C30
300C30
300330
300330
3000F0
3000F0
300030
300030
300030
300030
300030
300030
300030
300030
000000
000000
000000
000000
000000
000000
000000
000000
000000
000000
ENDCHAR
STARTCHAR ncaron
ENCODING 328
SWIDTH 500 0
DWIDTH 24 0
BBX 24 48 0 -10
BITMAP
000000
000000
000000
000000
000000
000000
000000
000000
030300
030300
00CC00
00CC00
003000
003000
000000
000000
3FFF00
3FFF00
3000C0
3000C0
300030
300030
300030
300030
300030
300030
300030
300030
300030
300030
300030
300030
300030
300030
300030
300030
300030
300030
000000
000000
000000
000000
000000
000000
000000
000000
000000
000000
ENDCHAR
STARTCHAR napostrophe
ENCODING 329
SWIDTH 500 0
DWIDTH 24 0
BBX 24 48 0 -10
BITMAP
000000
000000
000000
000000
300000
300000
300000
300000
300000
300000
300000
300000
C00000
C00000
000000
000000
3FFF00
3FFF00
3000C0
3000C0
300030
300030
300030
300030
300030
300030
300030
300030
300030
300030
300030
300030
300030
300030
300030
300030
300030
300030
000000
000000
000000
000000
000000
000000
000000
000000
000000
000000
ENDCHAR
STARTCHAR Eng
ENCODING 330
SWIDTH 500 0
DWIDTH 24 0
BBX 24 48 0 -10
BITMAP
000000
000000
000000
000000
000000
000000
000000
000000
300030
300030
300030
300030
300030
300030
300030
300030
3C0030
3C0030
330030
330030
30C030
30C030
303030
303030
300C30
300C30
300330
300330
3000F0
3000F0
300030
300030
300030
300030
300030
300030
300030
300030
000030
000030
000030
000030
0000C0
0000C0
000F00
000F00
000000
000000
ENDCHAR
STARTCHAR eng
ENCODING 331
SWIDTH 500 0
DWIDTH 24 0
BBX 24 48 0 -10
BITMAP
000000
000000
000000
000000
000000
000000
000000
000000
000000
000000
000000
000000
000000
000000
000000
000000
3FFF00
3FFF00
3000C0
3000C0
300030
300030
300030
300030
300030
300030
300030
300030
300030
300030
300030
300030
300030
300030
300030
300030
300030
300030
000030
000030
000030
000030
0000C0
0000C0
000F00
000F00
000000
000000
ENDCHAR
STARTCHAR Omacron
ENCODING 332
SWIDTH 500 0
DWIDTH 24 0
BBX 24 48 0 -10
BITMAP
000000
000000
0FFFC0
0FFFC0
000000
000000
000000
000000
03FF00
03FF00
0C00C0
0C00C0
300030
300030
300030
300030
300030
300030
300030
300030
300030
300030
300030
300030
300030
300030
300030
300030
300030
300030
300030
300030
300030
300030
0C00C0
0C00C0
03FF00
03FF00
000000
000000
000000
000000
000000
000000
000000
000000
000000
000000
ENDCHAR
STARTCHAR omacron
ENCODING 333
SWIDTH 500 0
DWIDTH 24 0
BBX 24 48 0 -10
BITMAP
000000
000000
000000
000000
000000
000000
000000
000000
000000
000000
0FFFC0
0FFFC0
000000
000000
000000
000000
03FF00
03FF00
0C00C0
0C00C0
300030
300030
300030
300030
300030
300030
300030
300030
300030
300030
300030
300030
300030
300030
0C00C0
0C00C0
03FF00
03FF00
000000
000000
000000
000000
000000
000000
000000
000000
000000
000000
ENDCHAR
STARTCHAR Obreve
ENCODING 334
SWIDTH 500 0
DWIDTH 24 0
BBX 24 48 0 -10
BITMAP
0C00C0
0C00C0
0C00C0
0C00C0
03FF00
03FF00
000000
000000
03FF00
03FF00
0C00C0
0C00C0
300030
300030
300030
300030
300030
300030
300030
300030
300030
300030
300030
300030
300030
300030
300030
300030
300030
300030
300030
300030
300030
300030
0C00C0
0C00C0
03FF00
03FF00
000000
000000
000000
000000
000000
000000
000000
000000
000000
000000
ENDCHAR
STARTCHAR obreve
ENCODING 335
SWIDTH 500 0
DWIDTH 24 0
BBX 24 48 0 -10
BITMAP
000000
000000
000000
000000
000000
000000
000000
000000
0C00C0
0C00C0
0C00C0
0C00C0
03FF00
03FF00
000000
000000
03FF00
03FF00
0C00C0
0C00C0
300030
300030
300030
300030
300030
300030
300030
300030
300030
300030
300030
300030
300030
300030
0C00C0
0C00C0
03FF00
03FF00
000000
000000
000000
000000
000000
000000
000000
000000
000000
000000
ENDCHAR
STARTCHAR Ohungarumlaut
ENCODING 336
SWIDTH 500 0
DWIDTH 24 0
BBX 24 48 0 -10
BITMAP
003030
003030
00C0C0
00C0C0
030300
030300
000000
000000
03FF00
03FF00
0C00C0
0C00C0
300030
300030
300030
300030
300030
300030
300030
300030
300030
300030
300030
300030
300030
300030
300030
300030
300030
300030
300030
300030
300030
300030
0C00C0
0C00C0
03FF00
03FF00
000000
000000
000000
000000
000000
000000
000000
000000
000000
000000
ENDCHAR
STARTCHAR ohungarumlaut
ENCODING 337
SWIDTH 500 0
DWIDTH 24 0
BBX 24 48 0 -10
BITMAP
000000
000000
000000
000000
000000
000000
000000
000000
003030
003030
00C0C0
00C0C0
030300
030300
000000
000000
03FF00
03FF00
0C00C0
0C00C0
300030
300030
300030
300030
300030
300030
300030
300030
300030
300030
300030
300030
300030
300030
0C00C0
0C00C0
03FF00
03FF00
000000
000000
000000
000000
000000
000000
000000
000000
000000
000000
ENDCHAR
STARTCHAR OE
ENCODING 338
SWIDTH 500 0
DWIDTH 24 0
BBX 24 48 0 -10
BITMAP
000000
000000
000000
000000
000000
000000
000000
000000
0FFFFC
0FFFFC
303000
303000
C03000
C03000
C03000
C03000
C03000
C03000
C03000
C03000
C03000
C03000
C03FF0
C03FF0
C03000
C03000
C03000
C03000
C03000
C03000
C03000
C03000
C03000
C03000
303000
303000
0FFFFC
0FFFFC
000000
000000
000000
000000
000000
000000
000000
000000
000000
000000
ENDCHAR
STARTCHAR oe
ENCODING 339
SWIDTH 500 0
DWIDTH 24 0
BBX 24 48 0 -10
BITMAP
000000
000000
000000
000000
000000
000000
000000
000000
000000
000000
000000
000000
000000
000000
000000
000000
0FFFC0
0FFFC0
303030
303030
C0300C
C0300C
C0300C
C0300C
C0300C
C0300C
C03FFC
C03FFC
C03000
C03000
C03000
C03000
C03000
C03000
30300C
30300C
0FFFF0
0FFFF0
000000
000000
000000
000000
000000
000000
000000
000000
000000
000000
ENDCHAR
STARTCHAR Racute
ENCODING 340
SWIDTH 500 0
DWIDTH 24 0
BBX 24 48 0 -10
BITMAP
000300
000300
000C00
000C00
003000
003000
000000
000000
3FFF00
3FFF00
3000C0
3000C0
300030
300030
300030
300030
300030
300030
300030
300030
3000C0
3000C0
3FFF00
3FFF00
330000
330000
30C000
30C000
303000
303000
300C00
300C00
300300
300300
3000C0
3000C0
300030
300030
000000
000000
000000
000000
000000
000000
000000
000000
000000
000000
ENDCHAR
STARTCHAR racute
ENCODING 341
SWIDTH 500 0
DWIDTH 24 0
BBX 24 48 0 -10
BITMAP
000000
000000
000000
000000
000000
000000
000000
000000
000300
000300
000C00
000C00
003000
003000
000000
000000
303FF0
303FF0
30C000
30C000
330000
330000
3C0000
3C0000
300000
300000
300000
300000
300000
300000
300000
300000
300000
300000
300000
300000
300000
300000
000000
000000
000000
000000
000000
000000
000000
000000
000000
000000
ENDCHAR
STARTCHAR Rcommaaccent
ENCODING 342
SWIDTH 500 0
DWIDTH 24 0
BBX 24 48 0 -10
BITMAP
000000
000000
000000
000000
000000
000000
000000
000000
3FFF00
3FFF00
3000C0
3000C0
300030
300030
300030
300030
300030
300030
300030
300030
3000C0
3000C0
3FFF00
3FFF00
330000
330000
30C000
30C000
303000
303000
300C00
300C00
300300
300300
3000C0
3000C0
300030
300030
000000
000000
003000
003000
003000
003000
003000
003000
00C000
00C000
ENDCHAR
STARTCHAR rcommaaccent
ENCODING 343
SWIDTH 500 0
DWIDTH 24 0
BBX 24 48 0 -10
BITMAP
000000
000000
000000
000000
000000
000000
000000
000000
000000
000000
000000
000000
000000
000000
000000
000000
303FF0
303FF0
30C000
30C000
330000
330000
3C0000
3C0000
300000
300000
300000
300000
300000
300000
300000
300000
300000
300000
300000
300000
300000
300000
000000
000000
300000
300000
300000
300000
300000
300000
C00000
C00000
ENDCHAR
STARTCHAR Rcaron
ENCODING 344
SWIDTH 500 0
DWIDTH 24 0
BBX 24 48 0 -10
BITMAP
030300
030300
00CC00
00CC00
003000
003000
000000
000000
3FFF00
3FFF00
3000C0
3000C0
300030
300030
300030
300030
300030
300030
300030
300030
3000C0
3000C0
3FFF00
3FFF00
330000
330000
30C000
30C000
303000
303000
300C00
300C00
300300
300300
3000C0
3000C0
300030
300030
000000
000000
000000
000000
000000
000000
000000
000000
000000
000000
ENDCHAR
STARTCHAR rcaron
ENCODING 345
SWIDTH 500 0
DWIDTH 24 0
BBX 24 48 0 -10
BITMAP
000000
000000
000000
000000
000000
000000
000000
000000
030300
030300
00CC00
00CC00
003000
003000
000000
000000
303FF0
303FF0
30C000
30C000
330000
330000
3C0000
3C0000
300000
300000
300000
300000
300000
300000
300000
300000
300000
300000
300000
300000
300000
300000
000000
000000
000000
000000
000000
000000
000000
000000
000000
000000
ENDCHAR
STARTCHAR Sacute
ENCODING 346
SWIDTH 500 0
DWIDTH 24 0
BBX 24 48 0 -10
BITMAP
000300
000300
000C00
000C00
003000
003000
000000
000000
03FF00
03FF00
0C00C0
0C00C0
300030
300030
300000
300000
300000
300000
300000
300000
0C0000
0C0000
03FF00
03FF00
0000C0
0000C0
000030
000030
000030
000030
000030
000030
300030
300030
0C00C0
0C00C0
03FF00
03FF00
000000
000000
000000
000000
000000
000000
000000
000000
000000
000000
ENDCHAR
STARTCHAR sacute
ENCODING 347
SWIDTH 500 0
DWIDTH 24 0
BBX 24 48 0 -10
BITMAP
000000
000000
000000
000000
000000
000000
000000
000000
000300
000300
000C00
000C00
003000
003000
000000
000000
0FFFC0
0FFFC0
300030
300030
300000
300000
300000
300000
300000
300000
0FFFC0
0FFFC0
000030
000030
000030
000030
000030
000030
300030
300030
0FFFC0
0FFFC0
000000
000000
000000
000000
000000
000000
000000
000000
000000
000000
ENDCHAR
STARTCHAR Scircumflex
ENCODING 348
SWIDTH 500 0
DWIDTH 24 0
BBX 24 48 0 -10
BITMAP
003000
003000
00CC00
00CC00
030300
030300
000000
000000
03FF00
03FF00
0C00C0
0C00C0
300030
300030
300000
300000
300000
300000
300000
300000
0C0000
0C0000
03FF00
03FF00
0000C0
0000C0
000030
000030
000030
000030
000030
000030
300030
300030
0C00C0
0C00C0
03FF00
03FF00
000000
000000
000000
000000
000000
000000
000000
000000
000000
000000
ENDCHAR
STARTCHAR scircumflex
ENCODING 349
SWIDTH 500 0
DWIDTH 24 0
BBX 24 48 0 -10
BITMAP
000000
000000
000000
000000
000000
000000
000000
000000
003000
003000
00CC00
00CC00
030300
030300
000000
000000
0FFFC0
0FFFC0
300030
300030
300000
300000
300000
300000
300000
300000
0FFFC0
0FFFC0
000030
000030
000030
000030
000030
000030
300030
300030
0FFFC0
0FFFC0
000000
000000
000000
000000
000000
000000
000000
000000
000000
000000
ENDCHAR
STARTCHAR Scedilla
ENCODING 350
SWIDTH 500 0
DWIDTH 24 0
BBX 24 48 0 -10
BITMAP
000000
000000
000000
000000
000000
000000
000000
000000
03FF00
03FF00
0C00C0
0C00C0
300030
300030
300000
300000
300000
300000
300000
300000
0C0000
0C0000
03FF00
03FF00
0000C0
0000C0
000030
000030
000030
000030
000030
000030
300030
300030
0C00C0
0C00C0
03FF00
03FF00
003000
003000
003000
003000
003000
003000
00C000
00C000
000000
000000
ENDCHAR
STARTCHAR scedilla
ENCODING 351
SWIDTH 500 0
DWIDTH 24 0
BBX 24 48 0 -10
BITMAP
000000
000000
000000
000000
000000
000000
000000
000000
000000
000000
000000
000000
000000
000000
000000
000000
0FFFC0
0FFFC0
300030
300030
300000
300000
300000
300000
300000
300000
0FFFC0
0FFFC0
000030
000030
000030
000030
000030
000030
300030
300030
0FFFC0
0FFFC0
003000
003000
003000
003000
003000
003000
00C000
00C000
000000
000000
ENDCHAR
STARTCHAR Scaron
ENCODING 352
SWIDTH 500 0
DWIDTH 24 0
BBX 24 48 0 -10
BITMAP
030300
030300
00CC00
00CC00
003000
003000
000000
000000
03FF00
03FF00
0C00C0
0C00C0
300030
300030
300000
300000
300000
300000
300000
300000
0C0000
0C0000
03FF00
03FF00
0000C0
0000C0
000030
000030
000030
000030
000030
000030
300030
300030
0C00C0
0C00C0
03FF00
03FF00
000000
000000
000000
000000
000000
000000
000000
000000
000000
000000
ENDCHAR
STARTCHAR scaron
ENCODING 353
SWIDTH 500 0
DWIDTH 24 0
BBX 24 48 0 -10
BITMAP
000000
000000
000000
000000
000000
000000
000000
000000
030300
030300
00CC00
00CC00
003000
003000
000000
000000
0FFFC0
0FFFC0
300030
300030
300000
300000
300000
300000
300000
300000
0FFFC0
0FFFC0
000030
000030
000030
000030
000030
000030
300030
300030
0FFFC0
0FFFC0
000000
000000
000000
000000
000000
000000
000000
000000
000000
000000
ENDCHAR
STARTCHAR Tcedilla
ENCODING 354
SWIDTH 500 0
DWIDTH 24 0
BBX 24 48 0 -10
BITMAP
000000
000000
000000
000000
000000
000000
000000
000000
3FFFF0
3FFFF0
003000
003000
003000
003000
003000
003000
003000
003000
003000
003000
003000
003000
003000
003000
003000
003000
003000
003000
003000
003000
003000
003000
003000
003000
003000
003000
003000
003000
000C00
000C00
000C00
000C00
000C00
000C00
003000
003000
000000
000000
ENDCHAR
STARTCHAR tcedilla
ENCODING 355
SWIDTH 500 0
DWIDTH 24 0
BBX 24 48 0 -10
BITMAP
000000
000000
000000
000000
000000
000000
000000
000000
003000
003000
003000
003000
003000
003000
003000
003000
0FFFC0
0FFFC0
003000
003000
003000
003000
003000
003000
003000
003000
003000
003000
003000
003000
003000
003000
003000
003000
003000
003000
000FF0
000FF0
000300
000300
000300
000300
000300
000300
000C00
000C00
000000
000000
ENDCHAR
STARTCHAR Tcaron
ENCODING 356
SWIDTH 500 0
DWIDTH 24 0
BBX 24 48 0 -10
BITMAP
030300
030300
00CC00
00CC00
003000
003000
000000
000000
3FFFF0
3FFFF0
003000
003000
003000
003000
003000
003000
003000
003000
003000
003000
003000
003000
003000
003000
003000
003000
003000
003000
003000
003000
003000
003000
003000
003000
003000
003000
003000
003000
000000
000000
000000
000000
000000
000000
000000
000000
000000
000000
ENDCHAR
STARTCHAR tcaron
ENCODING 357
SWIDTH 500 0
DWIDTH 24 0
BBX 24 48 0 -10
BITMAP
030300
030300
00CC00
00CC00
003000
003000
000000
000000
003000
003000
003000
003000
003000
003000
003000
003000
0FFFC0
0FFFC0
003000
003000
003000
003000
003000
003000
003000
003000
003000
003000
003000
003000
003000
003000
003000
003000
003000
003000
000FF0
000FF0
000000
000000
000000
000000
000000
000000
000000
000000
000000
000000
ENDCHAR
STARTCHAR Tbar
ENCODING 358
SWIDTH 500 0
DWIDTH 24 0
BBX 24 48 0 -10
BITMAP
000000
000000
000000
000000
000000
000000
000000
000000
3FFFF0
3FFFF0
003000
003000
003000
003000
003000
003000
003000
003000
003000
003000
003000
003000
0FFFC0
0FFFC0
003000
003000
003000
003000
003000
003000
003000
003000
003000
003000
003000
003000
003000
003000
000000
000000
000000
000000
000000
000000
000000
000000
000000
000000
ENDCHAR
STARTCHAR tbar
ENCODING 359
SWIDTH 500 0
DWIDTH 24 0
BBX 24 48 0 -10
BITMAP
000000
000000
000000
000000
000000
000000
000000
000000
003000
003000
003000
003000
003000
003000
003000
003000
0FFFC0
0FFFC0
003000
003000
003000
003000
03FF00
03FF00
003000
003000
003000
003000
003000
003000
003000
003000
003000
003000
003000
003000
000FF0
000FF0
000000
000000
000000
000000
000000
000000
000000
000000
000000
000000
ENDCHAR
STARTCHAR Utilde
ENCODING 360
SWIDTH 500 0
DWIDTH 24 0
BBX 24 48 0 -10
BITMAP
03C0C0
03C0C0
0C30C0
0C30C0
0C0F00
0C0F00
000000
000000
300030
300030
300030
300030
300030
300030
300030
300030
300030
300030
300030
300030
300030
300030
300030
300030
300030
300030
300030
300030
300030
300030
300030
300030
300030
300030
0C00C0
0C00C0
03FF00
03FF00
000000
000000
000000
000000
000000
000000
000000
000000
000000
000000
ENDCHAR
STARTCHAR utilde
ENCODING 361
SWIDTH 500 0
DWIDTH 24 0
BBX 24 48 0 -10
BITMAP
000000
000000
000000
000000
000000
000000
000000
000000
03C0C0
03C0C0
0C30C0
0C30C0
0C0F00
0C0F00
000000
000000
300030
300030
300030
300030
300030
300030
300030
300030
300030
300030
300030
300030
300030
300030
300030
300030
300030
300030
0C0030
0C0030
03FFF0
03FFF0
000000
000000
000000
000000
000000
000000
000000
000000
000000
000000
ENDCHAR
STARTCHAR Umacron
ENCODING 362
SWIDTH 500 0
DWIDTH 24 0
BBX 24 48 0 -10
BITMAP
000000
000000
0FFFC0
0FFFC0
000000
000000
000000
000000
300030
300030
300030
300030
300030
300030
300030
300030
300030
300030
300030
300030
300030
300030
300030
300030
300030
300030
300030
300030
300030
300030
300030
300030
300030
300030
0C00C0
0C00C0
03FF00
03FF00
000000
000000
000000
000000
000000
000000
000000
000000
000000
000000
ENDCHAR
STARTCHAR umacron
ENCODING 363
SWIDTH 500 0
DWIDTH 24 0
BBX 24 48 0 -10
BITMAP
000000
000000
000000
000000
000000
000000
000000
000000
000000
000000
0FFFC0
0FFFC0
000000
000000
000000
000000
300030
300030
300030
300030
300030
300030
300030
300030
300030
300030
300030
300030
300030
300030
300030
300030
300030
300030
0C0030
0C0030
03FFF0
03FFF0
000000
000000
000000
000000
000000
000000
000000
000000
000000
000000
ENDCHAR
STARTCHAR Ubreve
ENCODING 364
SWIDTH 500 0
DWIDTH 24 0
BBX 24 48 0 -10
BITMAP
0C00C0
0C00C0
0C00C0
0C00C0
03FF00
03FF00
000000
000000
300030
300030
300030
300030
300030
300030
300030
300030
300030
300030
300030
300030
300030
300030
300030
300030
300030
300030
300030
300030
300030
300030
300030
300030
300030
300030
0C00C0
0C00C0
03FF00
03FF00
000000
000000
000000
000000
000000
000000
000000
000000
000000
000000
ENDCHAR
STARTCHAR ubreve
ENCODING 365
SWIDTH 500 0
DWIDTH 24 0
BBX 24 48 0 -10
BITMAP
000000
000000
000000
000000
000000
000000
000000
000000
0C00C0
0C00C0
0C00C0
0C00C0
03FF00
03FF00
000000
000000
300030
300030
300030
300030
300030
300030
300030
300030
300030
300030
300030
300030
300030
300030
300030
300030
300030
300030
0C0030
0C0030
03FFF0
03FFF0
000000
000000
000000
000000
000000
000000
000000
000000
000000
000000
ENDCHAR
STARTCHAR Uring
ENCODING 366
SWIDTH 500 0
DWIDTH 24 0
BBX 24 48 0 -10
BITMAP
00FC00
00FC00
030300
030300
030300
030300
00FC00
00FC00
300030
300030
300030
300030
300030
300030
300030
300030
300030
300030
300030
300030
300030
300030
300030
300030
300030
300030
300030
300030
300030
300030
300030
300030
300030
300030
0C00C0
0C00C0
03FF00
03FF00
000000
000000
000000
000000
000000
000000
000000
000000
000000
000000
ENDCHAR
STARTCHAR uring
ENCODING 367
SWIDTH 500 0
DWIDTH 24 0
BBX 24 48 0 -10
BITMAP
000000
000000
000000
000000
000000
000000
000000
000000
00FC00
00FC00
030300
030300
030300
030300
00FC00
00FC00
300030
300030
300030
300030
300030
300030
300030
300030
300030
300030
300030
300030
300030
300030
300030
300030
300030
300030
0C0030
0C0030
03FFF0
03FFF0
000000
000000
000000
000000
000000
000000
000000
000000
000000
000000
ENDCHAR
STARTCHAR Uhungarumlaut
ENCODING 368
SWIDTH 500 0
DWIDTH 24 0
BBX 24 48 0 -10
BITMAP
003030
003030
00C0C0
00C0C0
030300
030300
000000
000000
300030
300030
300030
300030
300030
300030
300030
300030
300030
300030
300030
300030
300030
300030
300030
300030
300030
300030
300030
300030
300030
300030
300030
300030
300030
300030
0C00C0
0C00C0
03FF00
03FF00
000000
000000
000000
000000
000000
000000
000000
000000
000000
000000
ENDCHAR
STARTCHAR uhungarumlaut
ENCODING 369
SWIDTH 500 0
DWIDTH 24 0
BBX 24 48 0 -10
BITMAP
000000
000000
000000
000000
000000
000000
000000
000000
003030
003030
00C0C0
00C0C0
030300
030300
000000
000000
300030
300030
300030
300030
300030
300030
300030
300030
300030
300030
300030
300030
300030
300030
300030
300030
300030
300030
0C0030
0C0030
03FFF0
03FFF0
000000
000000
000000
000000
000000
000000
000000
000000
000000
000000
ENDCHAR
STARTCHAR Uogonek
ENCODING 370
SWIDTH 500 0
DWIDTH 24 0
BBX 24 48 0 -10
BITMAP
000000
000000
000000
000000
000000
000000
000000
000000
300030
300030
300030
300030
300030
300030
300030
300030
300030
300030
300030
300030
300030
300030
300030
300030
300030
300030
300030
300030
300030
300030
300030
300030
300030
300030
0C00C0
0C00C0
03FF00
03FF00
003000
003000
00C000
00C000
00C000
00C000
003F00
003F00
000000
000000
ENDCHAR
STARTCHAR uogonek
ENCODING 371
SWIDTH 500 0
DWIDTH 24 0
BBX 24 48 0 -10
BITMAP
000000
000000
000000
000000
000000
000000
000000
000000
000000
000000
000000
000000
000000
000000
000000
000000
300030
300030
300030
300030
300030
300030
300030
300030
300030
300030
300030
300030
300030
300030
300030
300030
300030
300030
0C0030
0C0030
03FFF0
03FFF0
0000C0
0000C0
000300
000300
000300
000300
0000FC
0000FC
000000
000000
ENDCHAR
STARTCHAR Wcircumflex
ENCODING 372
SWIDTH 500 0
DWIDTH 24 0
BBX 24 48 0 -10
BITMAP
003000
003000
00CC00
00CC00
030300
030300
000000
000000
30000C
30000C
30000C
30000C
30000C
30000C
30000C
30000C
30000C
30000C
30000C
30000C
30000C
30000C
30000C
30000C
303C0C
303C0C
303C0C
303C0C
30C30C
30C30C
3300CC
3300CC
3300CC
3300CC
3C003C
3C003C
30000C
30000C
000000
000000
000000
000000
000000
000000
000000
000000
000000
000000
ENDCHAR
STARTCHAR wcircumflex
ENCODING 373
SWIDTH 500 0
DWIDTH 24 0
BBX 24 48 0 -10
BITMAP
000000
000000
000000
000000
000000
000000
000000
000000
003000
003000
00CC00
00CC00
030300
030300
000000
000000
300030
300030
300030
300030
300030
300030
300030
300030
303030
303030
303030
303030
303030
303030
303030
303030
303030
303030
303030
303030
0FFFC0
0FFFC0
000000
000000
000000
000000
000000
000000
000000
000000
000000
000000
ENDCHAR
STARTCHAR Ycircumflex
ENCODING 374
SWIDTH 500 0
DWIDTH 24 0
BBX 24 48 0 -10
BITMAP
003000
003000
00CC00
00CC00
030300
030300
000000
000000
300030
300030
300030
300030
0C00C0
0C00C0
0C00C0
0C00C0
030300
030300
030300
030300
00CC00
00CC00
00CC00
00CC00
003000
003000
003000
003000
003000
003000
003000
003000
003000
003000
003000
003000
003000
003000
000000
000000
000000
000000
000000
000000
000000
000000
000000
000000
ENDCHAR
STARTCHAR ycircumflex
ENCODING 375
SWIDTH 500 0
DWIDTH 24 0
BBX 24 48 0 -10
BITMAP
000000
000000
000000
000000
000000
000000
000000
000000
003000
003000
00CC00
00CC00
030300
030300
000000
000000
300030
300030
300030
300030
300030
300030
300030
300030
300030
300030
300030
300030
300030
300030
300030
300030
300030
300030
0C00F0
0C00F0
03FF30
03FF30
000030
000030
000030
000030
0000C0
0000C0
0FFF00
0FFF00
000000
000000
ENDCHAR
STARTCHAR Ydieresis
ENCODING 376
SWIDTH 500 0
DWIDTH 24 0
BBX 24 48 0 -10
BITMAP
030300
030300
030300
030300
030300
030300
000000
000000
300030
300030
300030
300030
0C00C0
0C00C0
0C00C0
0C00C0
030300
030300
030300
030300
00CC00
00CC00
00CC00
00CC00
003000
003000
003000
003000
003000
003000
003000
003000
003000
003000
003000
003000
003000
003000
000000
000000
000000
000000
000000
000000
000000
000000
000000
000000
ENDCHAR
STARTCHAR Zacute
ENCODING 377
SWIDTH 500 0
DWIDTH 24 0
BBX 24 48 0 -10
BITMAP
000300
000300
000C00
000C00
003000
003000
000000
000000
3FFFF0
3FFFF0
000030
000030
000030
000030
000030
000030
0000C0
0000C0
000300
000300
000C00
000C00
003000
003000
00C000
00C000
030000
030000
0C0000
0C0000
300000
300000
300000
300000
300000
300000
3FFFF0
3FFFF0
000000
000000
000000
000000
000000
000000
000000
000000
000000
000000
ENDCHAR
STARTCHAR zacute
ENCODING 378
SWIDTH 500 0
DWIDTH 24 0
BBX 24 48 0 -10
BITMAP
000000
000000
000000
000000
000000
000000
000000
000000
000300
000300
000C00
000C00
003000
003000
000000
000000
3FFFF0
3FFFF0
000030
000030
0000C0
0000C0
000300
000300
000C00
000C00
003000
003000
00C000
00C000
030000
030000
0C0000
0C0000
300000
300000
3FFFF0
3FFFF0
000000
000000
000000
000000
000000
000000
000000
000000
000000
000000
ENDCHAR
STARTCHAR Zdotaccent
ENCODING 379
SWIDTH 500 0
DWIDTH 24 0
BBX 24 48 0 -10
BITMAP
003000
003000
003000
003000
003000
003000
000000
000000
3FFFF0
3FFFF0
000030
000030
000030
000030
000030
000030
0000C0
0000C0
000300
000300
000C00
000C00
003000
003000
00C000
00C000
030000
030000
0C0000
0C0000
300000
300000
300000
300000
300000
300000
3FFFF0
3FFFF0
000000
000000
000000
000000
000000
000000
000000
000000
000000
000000
ENDCHAR
STARTCHAR zdotaccent
ENCODING 380
SWIDTH 500 0
DWIDTH 24 0
BBX 24 48 0 -10
BITMAP
000000
000000
000000
000000
000000
000000
000000
000000
003000
003000
003000
003000
003000
003000
000000
000000
3FFFF0
3FFFF0
000030
000030
0000C0
0000C0
000300
000300
000C00
000C00
003000
003000
00C000
00C000
030000
030000
0C0000
0C0000
300000
300000
3FFFF0
3FFFF0
000000
000000
000000
000000
000000
000000
000000
000000
000000
000000
ENDCHAR
STARTCHAR Zcaron
ENCODING 381
SWIDTH 500 0
DWIDTH 24 0
BBX 24 48 0 -10
BITMAP
030300
030300
00CC00
00CC00
003000
003000
000000
000000
3FFFF0
3FFFF0
000030
000030
000030
000030
000030
000030
0000C0
0000C0
000300
000300
000C00
000C00
003000
003000
00C000
00C000
030000
030000
0C0000
0C0000
300000
300000
300000
300000
300000
300000
3FFFF0
3FFFF0
000000
000000
000000
000000
000000
000000
000000
000000
000000
000000
ENDCHAR
STARTCHAR zcaron
ENCODING 382
SWIDTH 500 0
DWIDTH 24 0
BBX 24 48 0 -10
BITMAP
000000
000000
000000
000000
000000
000000
000000
000000
030300
030300
00CC00
00CC00
003000
003000
000000
000000
3FFFF0
3FFFF0
000030
000030
0000C0
0000C0
000300
000300
000C00
000C00
003000
003000
00C000
00C000
030000
030000
0C0000
0C0000
300000
300000
3FFFF0
3FFFF0
000000
000000
000000
000000
000000
000000
000000
000000
000000
000000
ENDCHAR
STARTCHAR longs
ENCODING 383
SWIDTH 500 0
DWIDTH 24 0
BBX 24 48 0 -10
BITMAP
000000
000000
000000
000000
000000
000000
000000
000000
000FF0
000FF0
003000
003000
003000
003000
003000
003000
003000
003000
003000
003000
003000
003000
003000
003000
003000
003000
003000
003000
003000
003000
003000
003000
003000
003000
003000
003000
003000
003000
000000
000000
000000
000000
000000
000000
000000
000000
000000
000000
ENDCHAR
STARTCHAR uni0186
ENCODING 390
SWIDTH 500 0
DWIDTH 24 0
BBX 24 48 0 -10
BITMAP
000000
000000
000000
000000
000000
000000
000000
000000
03FF00
03FF00
0C00C0
0C00C0
300030
300030
300030
300030
000030
000030
000030
000030
000030
000030
000030
000030
000030
000030
000030
000030
000030
000030
300030
300030
300030
300030
0C00C0
0C00C0
03FF00
03FF00
000000
000000
000000
000000
000000
000000
000000
000000
000000
000000
ENDCHAR
STARTCHAR uni018E
ENCODING 398
SWIDTH 500 0
DWIDTH 24 0
BBX 24 48 0 -10
BITMAP
000000
000000
000000
000000
000000
000000
000000
000000
3FFFF0
3FFFF0
000030
000030
000030
000030
000030
000030
000030
000030
000030
000030
000030
000030
03FFF0
03FFF0
000030
000030
000030
000030
000030
000030
000030
000030
000030
000030
000030
000030
3FFFF0
3FFFF0
000000
000000
000000
000000
000000
000000
000000
000000
000000
000000
ENDCHAR
STARTCHAR Schwa
ENCODING 399
SWIDTH 500 0
DWIDTH 24 0
BBX 24 48 0 -10
BITMAP
000000
000000
000000
000000
000000
000000
000000
000000
03FF00
03FF00
0C00C0
0C00C0
300030
300030
000030
000030
000030
000030
000030
000030
000030
000030
3FFFF0
3FFFF0
300030
300030
300030
300030
300030
300030
300030
300030
300030
300030
0C00C0
0C00C0
03FF00
03FF00
000000
000000
000000
000000
000000
000000
000000
000000
000000
000000
ENDCHAR
STARTCHAR uni0190
ENCODING 400
SWIDTH 500 0
DWIDTH 24 0
BBX 24 48 0 -10
BITMAP
000000
000000
000000
000000
000000
000000
000000
000000
03FF00
03FF00
0C00C0
0C00C0
300030
300030
300000
300000
300000
300000
300000
300000
0C0000
0C0000
03FC00
03FC00
0C0000
0C0000
300000
300000
300000
300000
300000
300000
300030
300030
0C00C0
0C00C0
03FF00
03FF00
000000
000000
000000
000000
000000
000000
000000
000000
000000
000000
ENDCHAR
STARTCHAR florin
ENCODING 402
SWIDTH 500 0
DWIDTH 24 0
BBX 24 48 0 -10
BITMAP
000000
000000
000000
000000
000000
000000
000000
000000
000FC0
000FC0
003030
003030
003030
003030
003000
003000
003000
003000
003000
003000
0FFFC0
0FFFC0
003000
003000
003000
003000
003000
003000
003000
003000
003000
003000
003000
003000
003000
003000
003000
003000
003000
003000
303000
303000
303000
303000
0FC000
0FC000
000000
000000
ENDCHAR
STARTCHAR uni019D
ENCODING 413
SWIDTH 500 0
DWIDTH 24 0
BBX 24 48 0 -10
BITMAP
000000
000000
000000
000000
000000
000000
000000
000000
300030
300030
300030
300030
300030
300030
300030
300030
3C0030
3C0030
330030
330030
30C030
30C030
303030
303030
300C30
300C30
300330
300330
3000F0
3000F0
300030
300030
300030
300030
300030
300030
300030
300030
300000
300000
300000
300000
300000
300000
C00000
C00000
000000
000000
ENDCHAR
STARTCHAR uni019E
ENCODING 414
SWIDTH 500 0
DWIDTH 24 0
BBX 24 48 0 -10
BITMAP
000000
000000
000000
000000
000000
000000
000000
000000
000000
000000
000000
000000
000000
000000
000000
000000
3FFF00
3FFF00
3000C0
3000C0
300030
300030
300030
300030
300030
300030
300030
300030
300030
300030
300030
300030
300030
300030
300030
300030
300030
300030
000030
000030
000030
000030
000030
000030
000030
000030
000000
000000
ENDCHAR
STARTCHAR uni01B5
ENCODING 437
SWIDTH 500 0
DWIDTH 24 0
BBX 24 48 0 -10
BITMAP
000000
000000
000000
000000
000000
000000
000000
000000
3FFFF0
3FFFF0
000030
000030
000030
000030
000030
000030
0000C0
0000C0
000300
000300
000C00
000C00
3FFFF0
3FFFF0
003000
003000
00C000
00C000
030000
030000
0C0000
0C0000
300000
300000
300000
300000
3FFFF0
3FFFF0
000000
000000
000000
000000
000000
000000
000000
000000
000000
000000
ENDCHAR
STARTCHAR uni01B6
ENCODING 438
SWIDTH 500 0
DWIDTH 24 0
BBX 24 48 0 -10
BITMAP
000000
000000
000000
000000
000000
000000
000000
000000
000000
000000
000000
000000
000000
000000
000000
000000
3FFFF0
3FFFF0
000030
000030
0000C0
0000C0
000300
000300
000C00
000C00
3FFFF0
3FFFF0
00C000
00C000
030000
030000
0C0000
0C0000
300000
300000
3FFFF0
3FFFF0
000000
000000
000000
000000
000000
000000
000000
000000
000000
000000
ENDCHAR
STARTCHAR Ezh
ENCODING 439
SWIDTH 500 0
DWIDTH 24 0
BBX 24 48 0 -10
BITMAP
000000
000000
000000
000000
000000
000000
000000
000000
3FFFF0
3FFFF0
000030
000030
0000C0
0000C0
000300
000300
000C00
000C00
003000
003000
00FF00
00FF00
0000C0
0000C0
000030
000030
000030
000030
000030
000030
000030
000030
300030
300030
0C00C0
0C00C0
03FF00
03FF00
000000
000000
000000
000000
000000
000000
000000
000000
000000
000000
ENDCHAR
STARTCHAR uni01CD
ENCODING 461
SWIDTH 500 0
DWIDTH 24 0
BBX 24 48 0 -10
BITMAP
030300
030300
00CC00
00CC00
003000
003000
000000
000000
03FF00
03FF00
0C00C0
0C00C0
300030
300030
300030
300030
300030
300030
300030
300030
300030
300030
300030
300030
3FFFF0
3FFFF0
300030
300030
300030
300030
300030
300030
300030
300030
300030
300030
300030
300030
000000
000000
000000
000000
000000
000000
000000
000000
000000
000000
ENDCHAR
STARTCHAR uni01CE
ENCODING 462
SWIDTH 500 0
DWIDTH 24 0
BBX 24 48 0 -10
BITMAP
000000
000000
000000
000000
000000
000000
000000
000000
030300
030300
00CC00
00CC00
003000
003000
000000
000000
0FFF00
0FFF00
0000C0
0000C0
000030
000030
000030
000030
03FFF0
03FFF0
0C0030
0C0030
300030
300030
300030
300030
300030
300030
0C0030
0C0030
03FFF0
03FFF0
000000
000000
000000
000000
000000
000000
000000
000000
000000
000000
ENDCHAR
STARTCHAR uni01CF
ENCODING 463
SWIDTH 500 0
DWIDTH 24 0
BBX 24 48 0 -10
BITMAP
030300
030300
00CC00
00CC00
003000
003000
000000
000000
03FF00
03FF00
003000
003000
003000
003000
003000
003000
003000
003000
003000
003000
003000
003000
003000
003000
003000
003000
003000
003000
003000
003000
003000
003000
003000
003000
003000
003000
03FF00
03FF00
000000
000000
000000
000000
000000
000000
000000
000000
000000
000000
ENDCHAR
STARTCHAR uni01D0
ENCODING 464
SWIDTH 500 0
DWIDTH 24 0
BBX 24 48 0 -10
BITMAP
000000
000000
000000
000000
000000
000000
000000
000000
030300
030300
00CC00
00CC00
003000
003000
000000
000000
03F000
03F000
003000
003000
003000
003000
003000
003000
003000
003000
003000
003000
003000
003000
003000
003000
003000
003000
003000
003000
03FF00
03FF00
000000
000000
000000
000000
000000
000000
000000
000000
000000
000000
ENDCHAR
STARTCHAR uni01D1
ENCODING 465
SWIDTH 500 0
DWIDTH 24 0
BBX 24 48 0 -10
BITMAP
030300
030300
00CC00
00CC00
003000
003000
000000
000000
03FF00
03FF00
0C00C0
0C00C0
300030
300030
300030
300030
300030
300030
300030
300030
300030
300030
300030
300030
300030
300030
300030
300030
300030
300030
300030
300030
300030
300030
0C00C0
0C00C0
03FF00
03FF00
000000
000000
000000
000000
000000
000000
000000
000000
000000
000000
ENDCHAR
STARTCHAR uni01D2
ENCODING 466
SWIDTH 500 0
DWIDTH 24 0
BBX 24 48 0 -10
BITMAP
000000
000000
000000
000000
000000
000000
000000
000000
030300
030300
00CC00
00CC00
003000
003000
000000
000000
03FF00
03FF00
0C00C0
0C00C0
300030
300030
300030
300030
300030
300030
300030
300030
300030
300030
300030
300030
300030
300030
0C00C0
0C00C0
03FF00
03FF00
000000
000000
000000
000000
000000
000000
000000
000000
000000
000000
ENDCHAR
STARTCHAR uni01D3
ENCODING 467
SWIDTH 500 0
DWIDTH 24 0
BBX 24 48 0 -10
BITMAP
030300
030300
00CC00
00CC00
003000
003000
000000
000000
300030
300030
300030
300030
300030
300030
300030
300030
300030
300030
300030
300030
300030
300030
300030
300030
300030
300030
300030
300030
300030
300030
300030
300030
300030
300030
0C00C0
0C00C0
03FF00
03FF00
000000
000000
000000
000000
000000
000000
000000
000000
000000
000000
ENDCHAR
STARTCHAR uni01D4
ENCODING 468
SWIDTH 500 0
DWIDTH 24 0
BBX 24 48 0 -10
BITMAP
000000
000000
000000
000000
000000
000000
000000
000000
030300
030300
00CC00
00CC00
003000
003000
000000
000000
300030
300030
300030
300030
300030
300030
300030
300030
300030
300030
300030
300030
300030
300030
300030
300030
300030
300030
0C0030
0C0030
03FFF0
03FFF0
000000
000000
000000
000000
000000
000000
000000
000000
000000
000000
ENDCHAR
STARTCHAR uni01E2
ENCODING 482
SWIDTH 500 0
DWIDTH 24 0
BBX 24 48 0 -10
BITMAP
000000
000000
0FFFF0
0FFFF0
000000
000000
000000
000000
0FFFFC
0FFFFC
303000
303000
C03000
C03000
C03000
C03000
C03000
C03000
C03000
C03000
C03000
C03000
FFFFF0
FFFFF0
C03000
C03000
C03000
C03000
C03000
C03000
C03000
C03000
C03000
C03000
C03000
C03000
C03FFC
C03FFC
000000
000000
000000
000000
000000
000000
000000
000000
000000
000000
ENDCHAR
STARTCHAR uni01E3
ENCODING 483
SWIDTH 500 0
DWIDTH 24 0
BBX 24 48 0 -10
BITMAP
000000
000000
000000
000000
000000
000000
000000
000000
000000
000000
0FFFF0
0FFFF0
000000
000000
000000
000000
3FCFF0
3FCFF0
00300C
00300C
00300C
00300C
00300C
00300C
3FF00C
3FF00C
C03FFC
C03FFC
C03000
C03000
C03000
C03000
C03000
C03000
C0300C
C0300C
3FCFF0
3FCFF0
000000
000000
000000
000000
000000
000000
000000
000000
000000
000000
ENDCHAR
STARTCHAR uni01E4
ENCODING 484
SWIDTH 500 0
DWIDTH 24 0
BBX 24 48 0 -10
BITMAP
000000
000000
000000
000000
000000
000000
000000
000000
03FF00
03FF00
0C00C0
0C00C0
300030
300030
300030
300030
300000
300000
300000
300000
300000
300000
303FF0
303FF0
300030
300030
300030
300030
300FFC
300FFC
300030
300030
300030
300030
0C00C0
0C00C0
03FF00
03FF00
000000
000000
000000
000000
000000
000000
000000
000000
000000
000000
ENDCHAR
STARTCHAR uni01E5
ENCODING 485
SWIDTH 500 0
DWIDTH 24 0
BBX 24 48 0 -10
BITMAP
000000
000000
000000
000000
000000
000000
000000
000000
000000
000000
000000
000000
000000
000000
000000
000000
03FFF0
03FFF0
0C0030
0C0030
300030
300030
300030
300030
300030
300030
300FFC
300FFC
300030
300030
300030
300030
300030
300030
0C00F0
0C00F0
03FF30
03FF30
000030
000030
000030
000030
0000C0
0000C0
0FFF00
0FFF00
000000
000000
ENDCHAR
STARTCHAR Gcaron
ENCODING 486
SWIDTH 500 0
DWIDTH 24 0
BBX 24 48 0 -10
BITMAP
030300
030300
00CC00
00CC00
003000
003000
000000
000000
03FF00
03FF00
0C00C0
0C00C0
300030
300030
300030
300030
300000
300000
300000
300000
300000
300000
303FF0
303FF0
300030
300030
300030
300030
300030
300030
300030
300030
300030
300030
0C00C0
0C00C0
03FF00
03FF00
000000
000000
000000
000000
000000
000000
000000
000000
000000
000000
ENDCHAR
STARTCHAR gcaron
ENCODING 487
SWIDTH 500 0
DWIDTH 24 0
BBX 24 48 0 -10
BITMAP
000000
000000
000000
000000
000000
000000
000000
000000
030300
030300
00CC00
00CC00
003000
003000
000000
000000
03FFF0
03FFF0
0C0030
0C0030
300030
300030
300030
300030
300030
300030
300030
300030
300030
300030
300030
300030
300030
300030
0C00F0
0C00F0
03FF30
03FF30
000030
000030
000030
000030
0000C0
0000C0
0FFF00
0FFF00
000000
000000
ENDCHAR
STARTCHAR uni01E8
ENCODING 488
SWIDTH 500 0
DWIDTH 24 0
BBX 24 48 0 -10
BITMAP
030300
030300
00CC00
00CC00
003000
003000
000000
000000
300030
300030
3000C0
3000C0
300300
300300
300C00
300C00
303000
303000
30C000
30C000
330000
330000
3C0000
3C0000
330000
330000
30C000
30C000
303000
303000
300C00
300C00
300300
300300
3000C0
3000C0
300030
300030
000000
000000
000000
000000
000000
000000
000000
000000
000000
000000
ENDCHAR
STARTCHAR uni01E9
ENCODING 489
SWIDTH 500 0
DWIDTH 24 0
BBX 24 48 0 -10
BITMAP
030300
030300
00CC00
00CC00
003000
003000
000000
000000
0C0000
0C0000
0C0000
0C0000
0C0000
0C0000
0C0000
0C0000
0C0030
0C0030
0C00C0
0C00C0
0C0300
0C0300
0C0C00
0C0C00
0C3000
0C3000
0FC000
0FC000
0C3000
0C3000
0C0C00
0C0C00
0C0300
0C0300
0C00C0
0C00C0
0C0030
0C0030
000000
000000
000000
000000
000000
000000
000000
000000
000000
000000
ENDCHAR
STARTCHAR uni01EA
ENCODING 490
SWIDTH 500 0
DWIDTH 24 0
BBX 24 48 0 -10
BITMAP
000000
000000
000000
000000
000000
000000
000000
000000
03FF00
03FF00
0C00C0
0C00C0
300030
300030
300030
300030
300030
300030
300030
300030
300030
300030
300030
300030
300030
300030
300030
300030
300030
300030
300030
300030
300030
300030
0C00C0
0C00C0
03FF00
03FF00
003000
003000
00C000
00C000
00C000
00C000
003F00
003F00
000000
000000
ENDCHAR
STARTCHAR uni01EB
ENCODING 491
SWIDTH 500 0
DWIDTH 24 0
BBX 24 48 0 -10
BITMAP
000000
000000
000000
000000
000000
000000
000000
000000
000000
000000
000000
000000
000000
000000
000000
000000
03FF00
03FF00
0C00C0
0C00C0
300030
300030
300030
300030
300030
300030
300030
300030
300030
300030
300030
300030
300030
300030
0C00C0
0C00C0
03FF00
03FF00
003000
003000
00C000
00C000
00C000
00C000
003F00
003F00
000000
000000
ENDCHAR
STARTCHAR uni01EC
ENCODING 492
SWIDTH 500 0
DWIDTH 24 0
BBX 24 48 0 -10
BITMAP
000000
000000
0FFFC0
0FFFC0
000000
000000
000000
000000
03FF00
03FF00
0C00C0
0C00C0
300030
300030
300030
300030
300030
300030
300030
300030
300030
300030
300030
300030
300030
300030
300030
300030
300030
300030
300030
300030
300030
300030
0C00C0
0C00C0
03FF00
03FF00
003000
003000
00C000
00C000
00C000
00C000
003F00
003F00
000000
000000
ENDCHAR
STARTCHAR uni01ED
ENCODING 493
SWIDTH 500 0
DWIDTH 24 0
BBX 24 48 0 -10
BITMAP
000000
000000
000000
000000
000000
000000
000000
000000
000000
000000
0FFFC0
0FFFC0
000000
000000
000000
000000
03FF00
03FF00
0C00C0
0C00C0
300030
300030
300030
300030
300030
300030
300030
300030
300030
300030
300030
300030
300030
300030
0C00C0
0C00C0
03FF00
03FF00
003000
003000
00C000
00C000
00C000
00C000
003F00
003F00
000000
000000
ENDCHAR
STARTCHAR uni01EE
ENCODING 494
SWIDTH 500 0
DWIDTH 24 0
BBX 24 48 0 -10
BITMAP
030300
030300
00CC00
00CC00
003000
003000
000000
000000
3FFFF0
3FFFF0
000030
000030
0000C0
0000C0
000300
000300
000C00
000C00
003000
003000
00FF00
00FF00
0000C0
0000C0
000030
000030
000030
000030
000030
000030
000030
000030
300030
300030
0C00C0
0C00C0
03FF00
03FF00
000000
000000
000000
000000
000000
000000
000000
000000
000000
000000
ENDCHAR
STARTCHAR uni01EF
ENCODING 495
SWIDTH 500 0
DWIDTH 24 0
BBX 24 48 0 -10
BITMAP
000000
000000
000000
000000
000000
000000
000000
000000
030300
030300
00CC00
00CC00
003000
003000
000000
000000
3FFFF0
3FFFF0
000030
000030
0000C0
0000C0
000300
000300
000C00
000C00
003000
003000
00FF00
00FF00
0000C0
0000C0
000030
000030
000030
000030
000030
000030
000030
000030
300030
300030
0C00C0
0C00C0
03FF00
03FF00
000000
000000
ENDCHAR
STARTCHAR uni01F0
ENCODING 496
SWIDTH 500 0
DWIDTH 24 0
BBX 24 48 0 -10
BITMAP
000000
000000
000000
000000
000000
000000
000000
000000
000C0C
000C0C
000330
000330
0000C0
0000C0
000000
000000
000FC0
000FC0
0000C0
0000C0
0000C0
0000C0
0000C0
0000C0
0000C0
0000C0
0000C0
0000C0
0000C0
0000C0
0000C0
0000C0
0000C0
0000C0
0000C0
0000C0
0000C0
0000C0
0C00C0
0C00C0
0C00C0
0C00C0
030300
030300
00FC00
00FC00
000000
000000
ENDCHAR
STARTCHAR uni01F4
ENCODING 500
SWIDTH 500 0
DWIDTH 24 0
BBX 24 48 0 -10
BITMAP
000300
000300
000C00
000C00
003000
003000
000000
000000
03FF00
03FF00
0C00C0
0C00C0
300030
300030
300030
300030
300000
300000
300000
300000
300000
300000
303FF0
303FF0
300030
300030
300030
300030
300030
300030
300030
300030
300030
300030
0C00C0
0C00C0
03FF00
03FF00
000000
000000
000000
000000
000000
000000
000000
000000
000000
000000
ENDCHAR
STARTCHAR uni01F5
ENCODING 501
SWIDTH 500 0
DWIDTH 24 0
BBX 24 48 0 -10
BITMAP
000000
000000
000000
000000
000000
000000
000000
000000
000300
000300
000C00
000C00
003000
003000
000000
000000
03FFF0
03FFF0
0C0030
0C0030
300030
300030
300030
300030
300030
300030
300030
300030
300030
300030
300030
300030
300030
300030
0C00F0
0C00F0
03FF30
03FF30
000030
000030
000030
000030
0000C0
0000C0
0FFF00
0FFF00
000000
000000
ENDCHAR
STARTCHAR AEacute
ENCODING 508
SWIDTH 500 0
DWIDTH 24 0
BBX 24 48 0 -10
BITMAP
000300
000300
000C00
000C00
003000
003000
000000
000000
0FFFFC
0FFFFC
303000
303000
C03000
C03000
C03000
C03000
C03000
C03000
C03000
C03000
C03000
C03000
FFFFF0
FFFFF0
C03000
C03000
C03000
C03000
C03000
C03000
C03000
C03000
C03000
C03000
C03000
C03000
C03FFC
C03FFC
000000
000000
000000
000000
000000
000000
000000
000000
000000
000000
ENDCHAR
STARTCHAR aeacute
ENCODING 509
SWIDTH 500 0
DWIDTH 24 0
BBX 24 48 0 -10
BITMAP
000000
000000
000000
000000
000000
000000
000000
000000
000300
000300
000C00
000C00
003000
003000
000000
000000
3FCFF0
3FCFF0
00300C
00300C
00300C
00300C
00300C
00300C
3FF00C
3FF00C
C03FFC
C03FFC
C03000
C03000
C03000
C03000
C03000
C03000
C0300C
C0300C
3FCFF0
3FCFF0
000000
000000
000000
000000
000000
000000
000000
000000
000000
000000
ENDCHAR
STARTCHAR Oslashacute
ENCODING 510
SWIDTH 500 0
DWIDTH 24 0
BBX 24 48 0 -10
BITMAP
000300
000300
000C00
000C00
003000
003000
000000
000000
03FF00
03FF00
0C00C0
0C00C0
30003C
30003C
300030
300030
3000F0
3000F0
300330
300330
300C30
300C30
303030
303030
30C030
30C030
330030
330030
3C0030
3C0030
300030
300030
F00030
F00030
0C00C0
0C00C0
03FF00
03FF00
000000
000000
000000
000000
000000
000000
000000
000000
000000
000000
ENDCHAR
STARTCHAR oslashacute
ENCODING 511
SWIDTH 500 0
DWIDTH 24 0
BBX 24 48 0 -10
BITMAP
000000
000000
000000
000000
000000
000000
000000
000000
000300
000300
000C00
000C00
003000
003000
000000
000000
03FF0C
03FF0C
0C00F0
0C00F0
3000F0
3000F0
300330
300330
300C30
300C30
303030
303030
30C030
30C030
330030
330030
3C0030
3C0030
3C00C0
3C00C0
C3FF00
C3FF00
000000
000000
000000
000000
000000
000000
000000
000000
000000
000000
ENDCHAR
STARTCHAR Scommaaccent
ENCODING 536
SWIDTH 500 0
DWIDTH 24 0
BBX 24 48 0 -10
BITMAP
000000
000000
000000
000000
000000
000000
000000
000000
03FF00
03FF00
0C00C0
0C00C0
300030
300030
300000
300000
300000
300000
300000
300000
0C0000
0C0000
03FF00
03FF00
0000C0
0000C0
000030
000030
000030
000030
000030
000030
300030
300030
0C00C0
0C00C0
03FF00
03FF00
000000
000000
003000
003000
003000
003000
003000
003000
00C000
00C000
ENDCHAR
STARTCHAR scommaaccent
ENCODING 537
SWIDTH 500 0
DWIDTH 24 0
BBX 24 48 0 -10
BITMAP
000000
000000
000000
000000
000000
000000
000000
000000
000000
000000
000000
000000
000000
000000
000000
000000
0FFFC0
0FFFC0
300030
300030
300000
300000
300000
300000
300000
300000
0FFFC0
0FFFC0
000030
000030
000030
000030
000030
000030
300030
300030
0FFFC0
0FFFC0
000000
000000
003000
003000
003000
003000
003000
003000
00C000
00C000
ENDCHAR
STARTCHAR Tcommaaccent
ENCODING 538
SWIDTH 500 0
DWIDTH 24 0
BBX 24 48 0 -10
BITMAP
000000
000000
000000
000000
000000
000000
000000
000000
3FFFF0
3FFFF0
003000
003000
003000
003000
003000
003000
003000
003000
003000
003000
003000
003000
003000
003000
003000
003000
003000
003000
003000
003000
003000
003000
003000
003000
003000
003000
003000
003000
000000
000000
003000
003000
003000
003000
003000
003000
00C000
00C000
ENDCHAR
STARTCHAR tcommaaccent
ENCODING 539
SWIDTH 500 0
DWIDTH 24 0
BBX 24 48 0 -10
BITMAP
000000
000000
000000
000000
000000
000000
000000
000000
003000
003000
003000
003000
003000
003000
003000
003000
0FFFC0
0FFFC0
003000
003000
003000
003000
003000
003000
003000
003000
003000
003000
003000
003000
003000
003000
003000
003000
003000
003000
000FF0
000FF0
000000
000000
000300
000300
000300
000300
000300
000300
000C00
000C00
ENDCHAR
STARTCHAR uni0232
ENCODING 562
SWIDTH 500 0
DWIDTH 24 0
BBX 24 48 0 -10
BITMAP
000000
000000
0FFFC0
0FFFC0
000000
000000
000000
000000
300030
300030
300030
300030
0C00C0
0C00C0
0C00C0
0C00C0
030300
030300
030300
030300
00CC00
00CC00
00CC00
00CC00
003000
003000
003000
003000
003000
003000
003000
003000
003000
003000
003000
003000
003000
003000
000000
000000
000000
000000
000000
000000
000000
000000
000000
000000
ENDCHAR
STARTCHAR uni0233
ENCODING 563
SWIDTH 500 0
DWIDTH 24 0
BBX 24 48 0 -10
BITMAP
000000
000000
000000
000000
000000
000000
000000
000000
000000
000000
0FFFC0
0FFFC0
000000
000000
000000
000000
300030
300030
300030
300030
300030
300030
300030
300030
300030
300030
300030
300030
300030
300030
300030
300030
300030
300030
0C00F0
0C00F0
03FF30
03FF30
000030
000030
000030
000030
0000C0
0000C0
0FFF00
0FFF00
000000
000000
ENDCHAR
STARTCHAR dotlessj
ENCODING 567
SWIDTH 500 0
DWIDTH 24 0
BBX 24 48 0 -10
BITMAP
000000
000000
000000
000000
000000
000000
000000
000000
000000
000000
000000
000000
000000
000000
000000
000000
000FC0
000FC0
0000C0
0000C0
0000C0
0000C0
0000C0
0000C0
0000C0
0000C0
0000C0
0000C0
0000C0
0000C0
0000C0
0000C0
0000C0
0000C0
0000C0
0000C0
0000C0
0000C0
0C00C0
0C00C0
0C00C0
0C00C0
030300
030300
00FC00
00FC00
000000
000000
ENDCHAR
STARTCHAR uni0254
ENCODING 596
SWIDTH 500 0
DWIDTH 24 0
BBX 24 48 0 -10
BITMAP
000000
000000
000000
000000
000000
000000
000000
000000
000000
000000
000000
000000
000000
000000
000000
000000
03FF00
03FF00
0C00C0
0C00C0
300030
300030
000030
000030
000030
000030
000030
000030
000030
000030
000030
000030
300030
300030
0C00C0
0C00C0
03FF00
03FF00
000000
000000
000000
000000
000000
000000
000000
000000
000000
000000
ENDCHAR
STARTCHAR uni0258
ENCODING 600
SWIDTH 500 0
DWIDTH 24 0
BBX 24 48 0 -10
BITMAP
000000
000000
000000
000000
000000
000000
000000
000000
000000
000000
000000
000000
000000
000000
000000
000000
03FF00
03FF00
0C00C0
0C00C0
300030
300030
300030
300030
300030
300030
3FFFF0
3FFFF0
000030
000030
000030
000030
000030
000030
3000C0
3000C0
0FFF00
0FFF00
000000
000000
000000
000000
000000
000000
000000
000000
000000
000000
ENDCHAR
STARTCHAR schwa
ENCODING 601
SWIDTH 500 0
DWIDTH 24 0
BBX 24 48 0 -10
BITMAP
000000
000000
000000
000000
000000
000000
000000
000000
000000
000000
000000
000000
000000
000000
000000
000000
0FFF00
0FFF00
3000C0
3000C0
000030
000030
000030
000030
000030
000030
3FFFF0
3FFFF0
300030
300030
300030
300030
300030
300030
0C00C0
0C00C0
03FF00
03FF00
000000
000000
000000
000000
000000
000000
000000
000000
000000
000000
ENDCHAR
STARTCHAR uni025B
ENCODING 603
SWIDTH 500 0
DWIDTH 24 0
BBX 24 48 0 -10
BITMAP
000000
000000
000000
000000
000000
000000
000000
000000
000000
000000
000000
000000
000000
000000
000000
000000
0FFFC0
0FFFC0
300030
300030
300000
300000
300000
300000
300000
300000
0FFC00
0FFC00
300000
300000
300000
300000
300000
300000
300030
300030
0FFFC0
0FFFC0
000000
000000
000000
000000
000000
000000
000000
000000
000000
000000
ENDCHAR
STARTCHAR uni0272
ENCODING 626
SWIDTH 500 0
DWIDTH 24 0
BBX 24 48 0 -10
BITMAP
000000
000000
000000
000000
000000
000000
000000
000000
000000
000000
000000
000000
000000
000000
000000
000000
3FFF00
3FFF00
3000C0
3000C0
300030
300030
300030
300030
300030
300030
300030
300030
300030
300030
300030
300030
300030
300030
300030
300030
300030
300030
300000
300000
300000
300000
300000
300000
C00000
C00000
000000
000000
ENDCHAR
STARTCHAR ezh
ENCODING 658
SWIDTH 500 0
DWIDTH 24 0
BBX 24 48 0 -10
BITMAP
000000
000000
000000
000000
000000
000000
000000
000000
000000
000000
000000
000000
000000
000000
000000
000000
3FFFF0
3FFFF0
000030
000030
0000C0
0000C0
000300
000300
000C00
000C00
003000
003000
00FF00
00FF00
0000C0
0000C0
000030
000030
000030
000030
000030
000030
000030
000030
300030
300030
0C00C0
0C00C0
03FF00
03FF00
000000
000000
ENDCHAR
STARTCHAR commaturnedmod
ENCODING 699
SWIDTH 500 0
DWIDTH 24 0
BBX 24 48 0 -10
BITMAP
000C00
000C00
003000
003000
003000
003000
003000
003000
000000
000000
000000
000000
000000
000000
000000
000000
000000
000000
000000
000000
000000
000000
000000
000000
000000
000000
000000
000000
000000
000000
000000
000000
000000
000000
000000
000000
000000
000000
000000
000000
000000
000000
000000
000000
000000
000000
000000
000000
ENDCHAR
STARTCHAR afii57929
ENCODING 700
SWIDTH 500 0
DWIDTH 24 0
BBX 24 48 0 -10
BITMAP
003000
003000
003000
003000
003000
003000
00C000
00C000
000000
000000
000000
000000
000000
000000
000000
000000
000000
000000
000000
000000
000000
000000
000000
000000
000000
000000
000000
000000
000000
000000
000000
000000
000000
000000
000000
000000
000000
000000
000000
000000
000000
000000
000000
000000
000000
000000
000000
000000
ENDCHAR
STARTCHAR afii64937
ENCODING 701
SWIDTH 500 0
DWIDTH 24 0
BBX 24 48 0 -10
BITMAP
003000
003000
003000
003000
003000
003000
000C00
000C00
000000
000000
000000
000000
000000
000000
000000
000000
000000
000000
000000
000000
000000
000000
000000
000000
000000
000000
000000
000000
000000
000000
000000
000000
000000
000000
000000
000000
000000
000000
000000
000000
000000
000000
000000
000000
000000
000000
000000
000000
ENDCHAR
STARTCHAR circumflex
ENCODING 710
SWIDTH 500 0
DWIDTH 24 0
BBX 24 48 0 -10
BITMAP
003000
003000
00CC00
00CC00
030300
030300
000000
000000
000000
000000
000000
000000
000000
000000
000000
000000
000000
000000
000000
000000
000000
000000
000000
000000
000000
000000
000000
000000
000000
000000
000000
000000
000000
000000
000000
000000
000000
000000
000000
000000
000000
000000
000000
000000
000000
000000
000000
000000
ENDCHAR
STARTCHAR caron
ENCODING 711
SWIDTH 500 0
DWIDTH 24 0
BBX 24 48 0 -10
BITMAP
030300
030300
00CC00
00CC00
003000
003000
000000
000000
000000
000000
000000
000000
000000
000000
000000
000000
000000
000000
000000
000000
000000
000000
000000
000000
000000
000000
000000
000000
000000
000000
000000
000000
000000
000000
000000
000000
000000
000000
000000
000000
000000
000000
000000
000000
000000
000000
000000
000000
ENDCHAR
STARTCHAR breve
ENCODING 728
SWIDTH 500 0
DWIDTH 24 0
BBX 24 48 0 -10
BITMAP
0C00C0
0C00C0
0C00C0
0C00C0
03FF00
03FF00
000000
000000
000000
000000
000000
000000
000000
000000
000000
000000
000000
000000
000000
000000
000000
000000
000000
000000
000000
000000
000000
000000
000000
000000
000000
000000
000000
000000
000000
000000
000000
000000
000000
000000
000000
000000
000000
000000
000000
000000
000000
000000
ENDCHAR
STARTCHAR dotaccent
ENCODING 729
SWIDTH 500 0
DWIDTH 24 0
BBX 24 48 0 -10
BITMAP
003000
003000
003000
003000
003000
003000
000000
000000
000000
000000
000000
000000
000000
000000
000000
000000
000000
000000
000000
000000
000000
000000
000000
000000
000000
000000
000000
000000
000000
000000
000000
000000
000000
000000
000000
000000
000000
000000
000000
000000
000000
000000
000000
000000
000000
000000
000000
000000
ENDCHAR
STARTCHAR ogonek
ENCODING 731
SWIDTH 500 0
DWIDTH 24 0
BBX 24 48 0 -10
BITMAP
000000
000000
000000
000000
000000
000000
000000
000000
000000
000000
000000
000000
000000
000000
000000
000000
000000
000000
000000
000000
000000
000000
000000
000000
000000
000000
000000
000000
000000
000000
000000
000000
000000
000000
000000
000000
000000
000000
003000
003000
00C000
00C000
00C000
00C000
003F00
003F00
000000
000000
ENDCHAR
STARTCHAR tilde
ENCODING 732
SWIDTH 500 0
DWIDTH 24 0
BBX 24 48 0 -10
BITMAP
03C0C0
03C0C0
0C30C0
0C30C0
0C0F00
0C0F00
000000
000000
000000
000000
000000
000000
000000
000000
000000
000000
000000
000000
000000
000000
000000
000000
000000
000000
000000
000000
000000
000000
000000
000000
000000
000000
000000
000000
000000
000000
000000
000000
000000
000000
000000
000000
000000
000000
000000
000000
000000
000000
ENDCHAR
STARTCHAR hungarumlaut
ENCODING 733
SWIDTH 500 0
DWIDTH 24 0
BBX 24 48 0 -10
BITMAP
003030
003030
00C0C0
00C0C0
030300
030300
000000
000000
000000
000000
000000
000000
000000
000000
000000
000000
000000
000000
000000
000000
000000
000000
000000
000000
000000
000000
000000
000000
000000
000000
000000
000000
000000
000000
000000
000000
000000
000000
000000
000000
000000
000000
000000
000000
000000
000000
000000
000000
ENDCHAR
STARTCHAR gravecomb
ENCODING 768
SWIDTH 500 0
DWIDTH 24 0
BBX 24 48 0 -10
BITMAP
030000
030000
00C000
00C000
003000
003000
000000
000000
000000
000000
000000
000000
000000
000000
000000
000000
000000
000000
000000
000000
000000
000000
000000
000000
000000
000000
000000
000000
000000
000000
000000
000000
000000
000000
000000
000000
000000
000000
000000
000000
000000
000000
000000
000000
000000
000000
000000
000000
ENDCHAR
STARTCHAR acutecomb
ENCODING 769
SWIDTH 500 0
DWIDTH 24 0
BBX 24 48 0 -10
BITMAP
000300
000300
000C00
000C00
003000
003000
000000
000000
000000
000000
000000
000000
000000
000000
000000
000000
000000
000000
000000
000000
000000
000000
000000
000000
000000
000000
000000
000000
000000
000000
000000
000000
000000
000000
000000
000000
000000
000000
000000
000000
000000
000000
000000
000000
000000
000000
000000
000000
ENDCHAR
STARTCHAR uni0302
ENCODING 770
SWIDTH 500 0
DWIDTH 24 0
BBX 24 48 0 -10
BITMAP
003000
003000
00CC00
00CC00
030300
030300
000000
000000
000000
000000
000000
000000
000000
000000
000000
000000
000000
000000
000000
000000
000000
000000
000000
000000
000000
000000
000000
000000
000000
000000
000000
000000
000000
000000
000000
000000
000000
000000
000000
000000
000000
000000
000000
000000
000000
000000
000000
000000
ENDCHAR
STARTCHAR tildecomb
ENCODING 771
SWIDTH 500 0
DWIDTH 24 0
BBX 24 48 0 -10
BITMAP
03C0C0
03C0C0
0C30C0
0C30C0
0C0F00
0C0F00
000000
000000
000000
000000
000000
000000
000000
000000
000000
000000
000000
000000
000000
000000
000000
000000
000000
000000
000000
000000
000000
000000
000000
000000
000000
000000
000000
000000
000000
000000
000000
000000
000000
000000
000000
000000
000000
000000
000000
000000
000000
000000
ENDCHAR
STARTCHAR uni0304
ENCODING 772
SWIDTH 500 0
DWIDTH 24 0
BBX 24 48 0 -10
BITMAP
000000
000000
0FFFC0
0FFFC0
000000
000000
000000
000000
000000
000000
000000
000000
000000
000000
000000
000000
000000
000000
000000
000000
000000
000000
000000
000000
000000
000000
000000
000000
000000
000000
000000
000000
000000
000000
000000
000000
000000
000000
000000
000000
000000
000000
000000
000000
000000
000000
000000
000000
ENDCHAR
STARTCHAR uni0305
ENCODING 773
SWIDTH 500 0
DWIDTH 24 0
BBX 24 48 0 -10
BITMAP
000000
000000
3FFFF0
3FFFF0
000000
000000
000000
000000
000000
000000
000000
000000
000000
000000
000000
000000
000000
000000
000000
000000
000000
000000
000000
000000
000000
000000
000000
000000
000000
000000
000000
000000
000000
000000
000000
000000
000000
000000
000000
000000
000000
000000
000000
000000
000000
000000
000000
000000
ENDCHAR
STARTCHAR uni0306
ENCODING 774
SWIDTH 500 0
DWIDTH 24 0
BBX 24 48 0 -10
BITMAP
0C00C0
0C00C0
0C00C0
0C00C0
03FF00
03FF00
000000
000000
000000
000000
000000
000000
000000
000000
000000
000000
000000
000000
000000
000000
000000
000000
000000
000000
000000
000000
000000
000000
000000
000000
000000
000000
000000
000000
000000
000000
000000
000000
000000
000000
000000
000000
000000
000000
000000
000000
000000
000000
ENDCHAR
STARTCHAR uni0307
ENCODING 775
SWIDTH 500 0
DWIDTH 24 0
BBX 24 48 0 -10
BITMAP
003000
003000
003000
003000
003000
003000
000000
000000
000000
000000
000000
000000
000000
000000
000000
000000
000000
000000
000000
000000
000000
000000
000000
000000
000000
000000
000000
000000
000000
000000
000000
000000
000000
000000
000000
000000
000000
000000
000000
000000
000000
000000
000000
000000
000000
000000
000000
000000
ENDCHAR
STARTCHAR uni0308
ENCODING 776
SWIDTH 500 0
DWIDTH 24 0
BBX 24 48 0 -10
BITMAP
030300
030300
030300
030300
030300
030300
000000
000000
000000
000000
000000
000000
000000
000000
000000
000000
000000
000000
000000
000000
000000
000000
000000
000000
000000
000000
000000
000000
000000
000000
000000
000000
000000
000000
000000
000000
000000
000000
000000
000000
000000
000000
000000
000000
000000
000000
000000
000000
ENDCHAR
STARTCHAR uni030A
ENCODING 778
SWIDTH 500 0
DWIDTH 24 0
BBX 24 48 0 -10
BITMAP
00FC00
00FC00
030300
030300
030300
030300
00FC00
00FC00
000000
000000
000000
000000
000000
000000
000000
000000
000000
000000
000000
000000
000000
000000
000000
000000
000000
000000
000000
000000
000000
000000
000000
000000
000000
000000
000000
000000
000000
000000
000000
000000
000000
000000
000000
000000
000000
000000
000000
000000
ENDCHAR
STARTCHAR uni030B
ENCODING 779
SWIDTH 500 0
DWIDTH 24 0
BBX 24 48 0 -10
BITMAP
003030
003030
00C0C0
00C0C0
030300
030300
000000
000000
000000
000000
000000
000000
000000
000000
000000
000000
000000
000000
000000
000000
000000
000000
000000
000000
000000
000000
000000
000000
000000
000000
000000
000000
000000
000000
000000
000000
000000
000000
000000
000000
000000
000000
000000
000000
000000
000000
000000
000000
ENDCHAR
STARTCHAR uni030C
ENCODING 780
SWIDTH 500 0
DWIDTH 24 0
BBX 24 48 0 -10
BITMAP
030300
030300
00CC00
00CC00
003000
003000
000000
000000
000000
000000
000000
000000
000000
000000
000000
000000
000000
000000
000000
000000
000000
000000
000000
000000
000000
000000
000000
000000
000000
000000
000000
000000
000000
000000
000000
000000
000000
000000
000000
000000
000000
000000
000000
000000
000000
000000
000000
000000
ENDCHAR
STARTCHAR uni0329
ENCODING 809
SWIDTH 500 0
DWIDTH 24 0
BBX 24 48 0 -10
BITMAP
000000
000000
000000
000000
000000
000000
000000
000000
000000
000000
000000
000000
000000
000000
000000
000000
000000
000000
000000
000000
000000
000000
000000
000000
000000
000000
000000
000000
000000
000000
000000
000000
000000
000000
000000
000000
000000
000000
000000
000000
003000
003000
003000
003000
003000
003000
000000
000000
ENDCHAR
STARTCHAR tonos
ENCODING 900
SWIDTH 500 0
DWIDTH 24 0
BBX 24 48 0 -10
BITMAP
000000
000000
0C0000
0C0000
300000
300000
C00000
C00000
000000
000000
000000
000000
000000
000000
000000
000000
000000
000000
000000
000000
000000
000000
000000
000000
000000
000000
000000
000000
000000
000000
000000
000000
000000
000000
000000
000000
000000
000000
000000
000000
000000
000000
000000
000000
000000
000000
000000
000000
ENDCHAR
STARTCHAR dieresistonos
ENCODING 901
SWIDTH 500 0
DWIDTH 24 0
BBX 24 48 0 -10
BITMAP
000300
000300
000C00
000C00
003000
003000
000000
000000
030300
030300
030300
030300
030300
030300
000000
000000
000000
000000
000000
000000
000000
000000
000000
000000
000000
000000
000000
000000
000000
000000
000000
000000
000000
000000
000000
000000
000000
000000
000000
000000
000000
000000
000000
000000
000000
000000
000000
000000
ENDCHAR
STARTCHAR Alphatonos
ENCODING 902
SWIDTH 500 0
DWIDTH 24 0
BBX 24 48 0 -10
BITMAP
000000
000000
0C0000
0C0000
300000
300000
C00000
C00000
03FF00
03FF00
0C00C0
0C00C0
300030
300030
300030
300030
300030
300030
300030
300030
300030
300030
300030
300030
3FFFF0
3FFFF0
300030
300030
300030
300030
300030
300030
300030
300030
300030
300030
300030
300030
000000
000000
000000
000000
000000
000000
000000
000000
000000
000000
ENDCHAR
STARTCHAR anoteleia
ENCODING 903
SWIDTH 500 0
DWIDTH 24 0
BBX 24 48 0 -10
BITMAP
000000
000000
000000
000000
000000
000000
000000
000000
000000
000000
000000
000000
000000
000000
000000
000000
003000
003000
003000
003000
003000
003000
000000
000000
000000
000000
000000
000000
000000
000000
000000
000000
000000
000000
000000
000000
000000
000000
000000
000000
000000
000000
000000
000000
000000
000000
000000
000000
ENDCHAR
STARTCHAR Epsilontonos
ENCODING 904
SWIDTH 500 0
DWIDTH 24 0
BBX 24 48 0 -10
BITMAP
000000
000000
0C0000
0C0000
300000
300000
C00000
C00000
3FFFF0
3FFFF0
300000
300000
300000
300000
300000
300000
300000
300000
300000
300000
300000
300000
3FFF00
3FFF00
300000
300000
300000
300000
300000
300000
300000
300000
300000
300000
300000
300000
3FFFF0
3FFFF0
000000
000000
000000
000000
000000
000000
000000
000000
000000
000000
ENDCHAR
STARTCHAR Etatonos
ENCODING 905
SWIDTH 500 0
DWIDTH 24 0
BBX 24 48 0 -10
BITMAP
000000
000000
0C0000
0C0000
300000
300000
C00000
C00000
300030
300030
300030
300030
300030
300030
300030
300030
300030
300030
300030
300030
300030
300030
3FFFF0
3FFFF0
300030
300030
300030
300030
300030
300030
300030
300030
300030
300030
300030
300030
300030
300030
000000
000000
000000
000000
000000
000000
000000
000000
000000
000000
ENDCHAR
STARTCHAR Iotatonos
ENCODING 906
SWIDTH 500 0
DWIDTH 24 0
BBX 24 48 0 -10
BITMAP
000000
000000
0C0000
0C0000
300000
300000
C00000
C00000
03FF00
03FF00
003000
003000
003000
003000
003000
003000
003000
003000
003000
003000
003000
003000
003000
003000
003000
003000
003000
003000
003000
003000
003000
003000
003000
003000
003000
003000
03FF00
03FF00
000000
000000
000000
000000
000000
000000
000000
000000
000000
000000
ENDCHAR
STARTCHAR Omicrontonos
ENCODING 908
SWIDTH 500 0
DWIDTH 24 0
BBX 24 48 0 -10
BITMAP
000000
000000
0C0000
0C0000
300000
300000
C00000
C00000
03FF00
03FF00
0C00C0
0C00C0
300030
300030
300030
300030
300030
300030
300030
300030
300030
300030
300030
300030
300030
300030
300030
300030
300030
300030
300030
300030
300030
300030
0C00C0
0C00C0
03FF00
03FF00
000000
000000
000000
000000
000000
000000
000000
000000
000000
000000
ENDCHAR
STARTCHAR Upsilontonos
ENCODING 910
SWIDTH 500 0
DWIDTH 24 0
BBX 24 48 0 -10
BITMAP
000000
000000
0C0000
0C0000
300000
300000
C00000
C00000
0C000C
0C000C
0C000C
0C000C
030030
030030
030030
030030
00C0C0
00C0C0
00C0C0
00C0C0
003300
003300
003300
003300
000C00
000C00
000C00
000C00
000C00
000C00
000C00
000C00
000C00
000C00
000C00
000C00
000C00
000C00
000000
000000
000000
000000
000000
000000
000000
000000
000000
000000
ENDCHAR
STARTCHAR Omegatonos
ENCODING 911
SWIDTH 500 0
DWIDTH 24 0
BBX 24 48 0 -10
BITMAP
000000
000000
0C0000
0C0000
300000
300000
C00000
C00000
03FF00
03FF00
0C00C0
0C00C0
300030
300030
300030
300030
300030
300030
300030
300030
300030
300030
300030
300030
300030
300030
300030
300030
300030
300030
0C00C0
0C00C0
030300
030300
030300
030300
3F03F0
3F03F0
000000
000000
000000
000000
000000
000000
000000
000000
000000
000000
ENDCHAR
STARTCHAR iotadieresistonos
ENCODING 912
SWIDTH 500 0
DWIDTH 24 0
BBX 24 48 0 -10
BITMAP
000300
000300
000C00
000C00
003000
003000
000000
000000
030300
030300
030300
030300
030300
030300
000000
000000
03F000
03F000
003000
003000
003000
003000
003000
003000
003000
003000
003000
003000
003000
003000
003000
003000
003000
003000
003000
003000
000FC0
000FC0
000000
000000
000000
000000
000000
000000
000000
000000
000000
000000
ENDCHAR
STARTCHAR Alpha
ENCODING 913
SWIDTH 500 0
DWIDTH 24 0
BBX 24 48 0 -10
BITMAP
000000
000000
000000
000000
000000
000000
000000
000000
03FF00
03FF00
0C00C0
0C00C0
300030
300030
300030
300030
300030
300030
300030
300030
300030
300030
300030
300030
3FFFF0
3FFFF0
300030
300030
300030
300030
300030
300030
300030
300030
300030
300030
300030
300030
000000
000000
000000
000000
000000
000000
000000
000000
000000
000000
ENDCHAR
STARTCHAR Beta
ENCODING 914
SWIDTH 500 0
DWIDTH 24 0
BBX 24 48 0 -10
BITMAP
000000
000000
000000
000000
000000
000000
000000
000000
3FFF00
3FFF00
3000C0
3000C0
300030
300030
300030
300030
300030
300030
3000C0
3000C0
3FFF00
3FFF00
3000C0
3000C0
300030
300030
300030
300030
300030
300030
300030
300030
300030
300030
3000C0
3000C0
3FFF00
3FFF00
000000
000000
000000
000000
000000
000000
000000
000000
000000
000000
ENDCHAR
STARTCHAR Gamma
ENCODING 915
SWIDTH 500 0
DWIDTH 24 0
BBX 24 48 0 -10
BITMAP
000000
000000
000000
000000
000000
000000
000000
000000
3FFFF0
3FFFF0
300000
300000
300000
300000
300000
300000
300000
300000
300000
300000
300000
300000
300000
300000
300000
300000
300000
300000
300000
300000
300000
300000
300000
300000
300000
300000
300000
300000
000000
000000
000000
000000
000000
000000
000000
000000
000000
000000
ENDCHAR
STARTCHAR Delta
ENCODING 916
SWIDTH 500 0
DWIDTH 24 0
BBX 24 48 0 -10
BITMAP
000000
000000
000000
000000
000000
000000
000000
000000
003000
003000
003000
003000
003000
003000
00CC00
00CC00
00CC00
00CC00
00CC00
00CC00
030300
030300
030300
030300
030300
030300
0C00C0
0C00C0
0C00C0
0C00C0
0C00C0
0C00C0
300030
300030
300030
300030
3FFFF0
3FFFF0
000000
000000
000000
000000
000000
000000
000000
000000
000000
000000
ENDCHAR
STARTCHAR Epsilon
ENCODING 917
SWIDTH 500 0
DWIDTH 24 0
BBX 24 48 0 -10
BITMAP
000000
000000
000000
000000
000000
000000
000000
000000
3FFFF0
3FFFF0
300000
300000
300000
300000
300000
300000
300000
300000
300000
300000
300000
300000
3FFF00
3FFF00
300000
300000
300000
300000
300000
300000
300000
300000
300000
300000
300000
300000
3FFFF0
3FFFF0
000000
000000
000000
000000
000000
000000
000000
000000
000000
000000
ENDCHAR
STARTCHAR Zeta
ENCODING 918
SWIDTH 500 0
DWIDTH 24 0
BBX 24 48 0 -10
BITMAP
000000
000000
000000
000000
000000
000000
000000
000000
3FFFF0
3FFFF0
000030
000030
000030
000030
000030
000030
0000C0
0000C0
000300
000300
000C00
000C00
003000
003000
00C000
00C000
030000
030000
0C0000
0C0000
300000
300000
300000
300000
300000
300000
3FFFF0
3FFFF0
000000
000000
000000
000000
000000
000000
000000
000000
000000
000000
ENDCHAR
STARTCHAR Eta
ENCODING 919
SWIDTH 500 0
DWIDTH 24 0
BBX 24 48 0 -10
BITMAP
000000
000000
000000
000000
000000
000000
000000
000000
300030
300030
300030
300030
300030
300030
300030
300030
300030
300030
300030
300030
300030
300030
3FFFF0
3FFFF0
300030
300030
300030
300030
300030
300030
300030
300030
300030
300030
300030
300030
300030
300030
000000
000000
000000
000000
000000
000000
000000
000000
000000
000000
ENDCHAR
STARTCHAR Theta
ENCODING 920
SWIDTH 500 0
DWIDTH 24 0
BBX 24 48 0 -10
BITMAP
000000
000000
000000
000000
000000
000000
000000
000000
03FF00
03FF00
0C00C0
0C00C0
300030
300030
300030
300030
300030
300030
300030
300030
300030
300030
33FF30
33FF30
300030
300030
300030
300030
300030
300030
300030
300030
300030
300030
0C00C0
0C00C0
03FF00
03FF00
000000
000000
000000
000000
000000
000000
000000
000000
000000
000000
ENDCHAR
STARTCHAR Iota
ENCODING 921
SWIDTH 500 0
DWIDTH 24 0
BBX 24 48 0 -10
BITMAP
000000
000000
000000
000000
000000
000000
000000
000000
03FF00
03FF00
003000
003000
003000
003000
003000
003000
003000
003000
003000
003000
003000
003000
003000
003000
003000
003000
003000
003000
003000
003000
003000
003000
003000
003000
003000
003000
03FF00
03FF00
000000
000000
000000
000000
000000
000000
000000
000000
000000
000000
ENDCHAR
STARTCHAR Kappa
ENCODING 922
SWIDTH 500 0
DWIDTH 24 0
BBX 24 48 0 -10
BITMAP
000000
000000
000000
000000
000000
000000
000000
000000
300030
300030
3000C0
3000C0
300300
300300
300C00
300C00
303000
303000
30C000
30C000
330000
330000
3C0000
3C0000
330000
330000
30C000
30C000
303000
303000
300C00
300C00
300300
300300
3000C0
3000C0
300030
300030
000000
000000
000000
000000
000000
000000
000000
000000
000000
000000
ENDCHAR
STARTCHAR Lambda
ENCODING 923
SWIDTH 500 0
DWIDTH 24 0
BBX 24 48 0 -10
BITMAP
000000
000000
000000
000000
000000
000000
000000
000000
003000
003000
003000
003000
003000
003000
00CC00
00CC00
00CC00
00CC00
00CC00
00CC00
030300
030300
030300
030300
030300
030300
0C00C0
0C00C0
0C00C0
0C00C0
0C00C0
0C00C0
300030
300030
300030
300030
300030
300030
000000
000000
000000
000000
000000
000000
000000
000000
000000
000000
ENDCHAR
STARTCHAR Mu
ENCODING 924
SWIDTH 500 0
DWIDTH 24 0
BBX 24 48 0 -10
BITMAP
000000
000000
000000
000000
000000
000000
000000
000000
30000C
30000C
3C003C
3C003C
3300CC
3300CC
3300CC
3300CC
30C30C
30C30C
303C0C
303C0C
303C0C
303C0C
30000C
30000C
30000C
30000C
30000C
30000C
30000C
30000C
30000C
30000C
30000C
30000C
30000C
30000C
30000C
30000C
000000
000000
000000
000000
000000
000000
000000
000000
000000
000000
ENDCHAR
STARTCHAR Nu
ENCODING 925
SWIDTH 500 0
DWIDTH 24 0
BBX 24 48 0 -10
BITMAP
000000
000000
000000
000000
000000
000000
000000
000000
300030
300030
300030
300030
300030
300030
300030
300030
3C0030
3C0030
330030
330030
30C030
30C030
303030
303030
300C30
300C30
300330
300330
3000F0
3000F0
300030
300030
300030
300030
300030
300030
300030
300030
000000
000000
000000
000000
000000
000000
000000
000000
000000
000000
ENDCHAR
STARTCHAR Xi
ENCODING 926
SWIDTH 500 0
DWIDTH 24 0
BBX 24 48 0 -10
BITMAP
000000
000000
000000
000000
000000
000000
000000
000000
3FFFF0
3FFFF0
000000
000000
000000
000000
000000
000000
000000
000000
000000
000000
000000
000000
03FF00
03FF00
000000
000000
000000
000000
000000
000000
000000
000000
000000
000000
000000
000000
3FFFF0
3FFFF0
000000
000000
000000
000000
000000
000000
000000
000000
000000
000000
ENDCHAR
STARTCHAR Omicron
ENCODING 927
SWIDTH 500 0
DWIDTH 24 0
BBX 24 48 0 -10
BITMAP
000000
000000
000000
000000
000000
000000
000000
000000
03FF00
03FF00
0C00C0
0C00C0
300030
300030
300030
300030
300030
300030
300030
300030
300030
300030
300030
300030
300030
300030
300030
300030
300030
300030
300030
300030
300030
300030
0C00C0
0C00C0
03FF00
03FF00
000000
000000
000000
000000
000000
000000
000000
000000
000000
000000
ENDCHAR
STARTCHAR Pi
ENCODING 928
SWIDTH 500 0
DWIDTH 24 0
BBX 24 48 0 -10
BITMAP
000000
000000
000000
000000
000000
000000
000000
000000
3FFFF0
3FFFF0
300030
300030
300030
300030
300030
300030
300030
300030
300030
300030
300030
300030
300030
300030
300030
300030
300030
300030
300030
300030
300030
300030
300030
300030
300030
300030
300030
300030
000000
000000
000000
000000
000000
000000
000000
000000
000000
000000
ENDCHAR
STARTCHAR Rho
ENCODING 929
SWIDTH 500 0
DWIDTH 24 0
BBX 24 48 0 -10
BITMAP
000000
000000
000000
000000
000000
000000
000000
000000
3FFF00
3FFF00
3000C0
3000C0
300030
300030
300030
300030
300030
300030
300030
300030
3000C0
3000C0
3FFF00
3FFF00
300000
300000
300000
300000
300000
300000
300000
300000
300000
300000
300000
300000
300000
300000
000000
000000
000000
000000
000000
000000
000000
000000
000000
000000
ENDCHAR
STARTCHAR Sigma
ENCODING 931
SWIDTH 500 0
DWIDTH 24 0
BBX 24 48 0 -10
BITMAP
000000
000000
000000
000000
000000
000000
000000
000000
3FFFF0
3FFFF0
300000
300000
0C0000
0C0000
030000
030000
00C000
00C000
003000
003000
000C00
000C00
000300
000300
000C00
000C00
003000
003000
00C000
00C000
030000
030000
0C0000
0C0000
300000
300000
3FFFF0
3FFFF0
000000
000000
000000
000000
000000
000000
000000
000000
000000
000000
ENDCHAR
STARTCHAR Tau
ENCODING 932
SWIDTH 500 0
DWIDTH 24 0
BBX 24 48 0 -10
BITMAP
000000
000000
000000
000000
000000
000000
000000
000000
3FFFF0
3FFFF0
003000
003000
003000
003000
003000
003000
003000
003000
003000
003000
003000
003000
003000
003000
003000
003000
003000
003000
003000
003000
003000
003000
003000
003000
003000
003000
003000
003000
000000
000000
000000
000000
000000
000000
000000
000000
000000
000000
ENDCHAR
STARTCHAR Upsilon
ENCODING 933
SWIDTH 500 0
DWIDTH 24 0
BBX 24 48 0 -10
BITMAP
000000
000000
000000
000000
000000
000000
000000
000000
300030
300030
300030
300030
0C00C0
0C00C0
0C00C0
0C00C0
030300
030300
030300
030300
00CC00
00CC00
00CC00
00CC00
003000
003000
003000
003000
003000
003000
003000
003000
003000
003000
003000
003000
003000
003000
000000
000000
000000
000000
000000
000000
000000
000000
000000
000000
ENDCHAR
STARTCHAR Phi
ENCODING 934
SWIDTH 500 0
DWIDTH 24 0
BBX 24 48 0 -10
BITMAP
000000
000000
000000
000000
000000
000000
000000
000000
003000
003000
03FF00
03FF00
0C30C0
0C30C0
303030
303030
303030
303030
303030
303030
303030
303030
303030
303030
303030
303030
303030
303030
303030
303030
303030
303030
0C30C0
0C30C0
03FF00
03FF00
003000
003000
000000
000000
000000
000000
000000
000000
000000
000000
000000
000000
ENDCHAR
STARTCHAR Chi
ENCODING 935
SWIDTH 500 0
DWIDTH 24 0
BBX 24 48 0 -10
BITMAP
000000
000000
000000
000000
000000
000000
000000
000000
300030
300030
300030
300030
0C00C0
0C00C0
0C00C0
0C00C0
030300
030300
030300
030300
00CC00
00CC00
003000
003000
00CC00
00CC00
030300
030300
030300
030300
0C00C0
0C00C0
0C00C0
0C00C0
300030
300030
300030
300030
000000
000000
000000
000000
000000
000000
000000
000000
000000
000000
ENDCHAR
STARTCHAR Psi
ENCODING 936
SWIDTH 500 0
DWIDTH 24 0
BBX 24 48 0 -10
BITMAP
000000
000000
000000
000000
000000
000000
000000
000000
303030
303030
303030
303030
303030
303030
303030
303030
303030
303030
303030
303030
303030
303030
303030
303030
303030
303030
303030
303030
0C30C0
0C30C0
03FF00
03FF00
003000
003000
003000
003000
003000
003000
000000
000000
000000
000000
000000
000000
000000
000000
000000
000000
ENDCHAR
STARTCHAR Omega
ENCODING 937
SWIDTH 500 0
DWIDTH 24 0
BBX 24 48 0 -10
BITMAP
000000
000000
000000
000000
000000
000000
000000
000000
03FF00
03FF00
0C00C0
0C00C0
300030
300030
300030
300030
300030
300030
300030
300030
300030
300030
300030
300030
300030
300030
300030
300030
300030
300030
0C00C0
0C00C0
030300
030300
030300
030300
3F03F0
3F03F0
000000
000000
000000
000000
000000
000000
000000
000000
000000
000000
ENDCHAR
STARTCHAR Iotadieresis
ENCODING 938
SWIDTH 500 0
DWIDTH 24 0
BBX 24 48 0 -10
BITMAP
030300
030300
030300
030300
030300
030300
000000
000000
03FF00
03FF00
003000
003000
003000
003000
003000
003000
003000
003000
003000
003000
003000
003000
003000
003000
003000
003000
003000
003000
003000
003000
003000
003000
003000
003000
003000
003000
03FF00
03FF00
000000
000000
000000
000000
000000
000000
000000
000000
000000
000000
ENDCHAR
STARTCHAR Upsilondieresis
ENCODING 939
SWIDTH 500 0
DWIDTH 24 0
BBX 24 48 0 -10
BITMAP
030300
030300
030300
030300
030300
030300
000000
000000
300030
300030
300030
300030
0C00C0
0C00C0
0C00C0
0C00C0
030300
030300
030300
030300
00CC00
00CC00
00CC00
00CC00
003000
003000
003000
003000
003000
003000
003000
003000
003000
003000
003000
003000
003000
003000
000000
000000
000000
000000
000000
000000
000000
000000
000000
000000
ENDCHAR
STARTCHAR alphatonos
ENCODING 940
SWIDTH 500 0
DWIDTH 24 0
BBX 24 48 0 -10
BITMAP
000000
000000
000000
000000
000000
000000
000000
000000
000300
000300
000C00
000C00
003000
003000
000000
000000
03FC3C
03FC3C
0C03F0
0C03F0
3000C0
3000C0
3000C0
3000C0
3000C0
3000C0
3000C0
3000C0
3000C0
3000C0
3000C0
3000C0
3000C0
3000C0
0C03F0
0C03F0
03FC3C
03FC3C
000000
000000
000000
000000
000000
000000
000000
000000
000000
000000
ENDCHAR
STARTCHAR epsilontonos
ENCODING 941
SWIDTH 500 0
DWIDTH 24 0
BBX 24 48 0 -10
BITMAP
000000
000000
000000
000000
000000
000000
000000
000000
000300
000300
000C00
000C00
003000
003000
000000
000000
0FFFC0
0FFFC0
300030
300030
300000
300000
300000
300000
300000
300000
0FFC00
0FFC00
300000
300000
300000
300000
300000
300000
300030
300030
0FFFC0
0FFFC0
000000
000000
000000
000000
000000
000000
000000
000000
000000
000000
ENDCHAR
STARTCHAR etatonos
ENCODING 942
SWIDTH 500 0
DWIDTH 24 0
BBX 24 48 0 -10
BITMAP
000000
000000
000000
000000
000000
000000
000000
000000
000300
000300
000C00
000C00
003000
003000
000000
000000
3FFF00
3FFF00
3000C0
3000C0
300030
300030
300030
300030
300030
300030
300030
300030
300030
300030
300030
300030
300030
300030
300030
300030
300030
300030
000030
000030
000030
000030
000030
000030
000030
000030
000000
000000
ENDCHAR
STARTCHAR iotatonos
ENCODING 943
SWIDTH 500 0
DWIDTH 24 0
BBX 24 48 0 -10
BITMAP
000000
000000
000000
000000
000000
000000
000000
000000
000300
000300
000C00
000C00
003000
003000
000000
000000
03F000
03F000
003000
003000
003000
003000
003000
003000
003000
003000
003000
003000
003000
003000
003000
003000
003000
003000
003000
003000
000FC0
000FC0
000000
000000
000000
000000
000000
000000
000000
000000
000000
000000
ENDCHAR
STARTCHAR upsilondieresistonos
ENCODING 944
SWIDTH 500 0
DWIDTH 24 0
BBX 24 48 0 -10
BITMAP
000300
000300
000C00
000C00
003000
003000
000000
000000
030300
030300
030300
030300
030300
030300
000000
000000
300030
300030
300030
300030
300030
300030
300030
300030
300030
300030
300030
300030
300030
300030
300030
300030
300030
300030
0C00C0
0C00C0
03FF00
03FF00
000000
000000
000000
000000
000000
000000
000000
000000
000000
000000
ENDCHAR
STARTCHAR alpha
ENCODING 945
SWIDTH 500 0
DWIDTH 24 0
BBX 24 48 0 -10
BITMAP
000000
000000
000000
000000
000000
000000
000000
000000
000000
000000
000000
000000
000000
000000
000000
000000
03FC3C
03FC3C
0C03F0
0C03F0
3000C0
3000C0
3000C0
3000C0
3000C0
3000C0
3000C0
3000C0
3000C0
3000C0
3000C0
3000C0
3000C0
3000C0
0C03F0
0C03F0
03FC3C
03FC3C
000000
000000
000000
000000
000000
000000
000000
000000
000000
000000
ENDCHAR
STARTCHAR beta
ENCODING 946
SWIDTH 500 0
DWIDTH 24 0
BBX 24 48 0 -10
BITMAP
000000
000000
000000
000000
000000
000000
000000
000000
0FFC00
0FFC00
300300
300300
3000C0
3000C0
3000C0
3000C0
3000C0
3000C0
300300
300300
3FFF00
3FFF00
3000C0
3000C0
300030
300030
300030
300030
300030
300030
300030
300030
300030
300030
3000C0
3000C0
3FFF00
3FFF00
300000
300000
300000
300000
300000
300000
300000
300000
000000
000000
ENDCHAR
STARTCHAR gamma
ENCODING 947
SWIDTH 500 0
DWIDTH 24 0
BBX 24 48 0 -10
BITMAP
000000
000000
000000
000000
000000
000000
000000
000000
000000
000000
000000
000000
000000
000000
000000
000000
300030
300030
300030
300030
300030
300030
0C00C0
0C00C0
0C00C0
0C00C0
0C00C0
0C00C0
030300
030300
030300
030300
00CC00
00CC00
00CC00
00CC00
003000
003000
003000
003000
003000
003000
003000
003000
003000
003000
000000
000000
ENDCHAR
STARTCHAR delta
ENCODING 948
SWIDTH 500 0
DWIDTH 24 0
BBX 24 48 0 -10
BITMAP
000000
000000
000000
000000
000000
000000
000000
000000
03FFC0
03FFC0
00C000
00C000
003000
003000
000C00
000C00
03FF00
03FF00
0C00C0
0C00C0
300030
300030
300030
300030
300030
300030
300030
300030
300030
300030
300030
300030
300030
300030
0C00C0
0C00C0
03FF00
03FF00
000000
000000
000000
000000
000000
000000
000000
000000
000000
000000
ENDCHAR
STARTCHAR epsilon
ENCODING 949
SWIDTH 500 0
DWIDTH 24 0
BBX 24 48 0 -10
BITMAP
000000
000000
000000
000000
000000
000000
000000
000000
000000
000000
000000
000000
000000
000000
000000
000000
0FFFC0
0FFFC0
300030
300030
300000
300000
300000
300000
300000
300000
0FFC00
0FFC00
300000
300000
300000
300000
300000
300000
300030
300030
0FFFC0
0FFFC0
000000
000000
000000
000000
000000
000000
000000
000000
000000
000000
ENDCHAR
STARTCHAR zeta
ENCODING 950
SWIDTH 500 0
DWIDTH 24 0
BBX 24 48 0 -10
BITMAP
000000
000000
000000
000000
000000
000000
000000
000000
3FFFF0
3FFFF0
0000C0
0000C0
000300
000300
000C00
000C00
003000
003000
00C000
00C000
030000
030000
0C0000
0C0000
0C0000
0C0000
300000
300000
300000
300000
300000
300000
300000
300000
0C0000
0C0000
03FFC0
03FFC0
000030
000030
000030
000030
000030
000030
0003C0
0003C0
000000
000000
ENDCHAR
STARTCHAR eta
ENCODING 951
SWIDTH 500 0
DWIDTH 24 0
BBX 24 48 0 -10
BITMAP
000000
000000
000000
000000
000000
000000
000000
000000
000000
000000
000000
000000
000000
000000
000000
000000
3FFF00
3FFF00
3000C0
3000C0
300030
300030
300030
300030
300030
300030
300030
300030
300030
300030
300030
300030
300030
300030
300030
300030
300030
300030
000030
000030
000030
000030
000030
000030
000030
000030
000000
000000
ENDCHAR
STARTCHAR theta
ENCODING 952
SWIDTH 500 0
DWIDTH 24 0
BBX 24 48 0 -10
BITMAP
000000
000000
000000
000000
000000
000000
000000
000000
00FF00
00FF00
0300C0
0300C0
0C0030
0C0030
0C0030
0C0030
0C0030
0C0030
0C0030
0C0030
0C0030
0C0030
0FFFF0
0FFFF0
0C0030
0C0030
0C0030
0C0030
0C0030
0C0030
0C0030
0C0030
0C0030
0C0030
0300C0
0300C0
00FF00
00FF00
000000
000000
000000
000000
000000
000000
000000
000000
000000
000000
ENDCHAR
STARTCHAR iota
ENCODING 953
SWIDTH 500 0
DWIDTH 24 0
BBX 24 48 0 -10
BITMAP
000000
000000
000000
000000
000000
000000
000000
000000
000000
000000
000000
000000
000000
000000
000000
000000
03F000
03F000
003000
003000
003000
003000
003000
003000
003000
003000
003000
003000
003000
003000
003000
003000
003000
003000
003000
003000
000FC0
000FC0
000000
000000
000000
000000
000000
000000
000000
000000
000000
000000
ENDCHAR
STARTCHAR kappa
ENCODING 954
SWIDTH 500 0
DWIDTH 24 0
BBX 24 48 0 -10
BITMAP
000000
000000
000000
000000
000000
000000
000000
000000
000000
000000
000000
000000
000000
000000
000000
000000
0C0030
0C0030
0C00C0
0C00C0
0C0300
0C0300
0C0C00
0C0C00
0C3000
0C3000
0FC000
0FC000
0C3000
0C3000
0C0C00
0C0C00
0C0300
0C0300
0C00C0
0C00C0
0C0030
0C0030
000000
000000
000000
000000
000000
000000
000000
000000
000000
000000
ENDCHAR
STARTCHAR lambda
ENCODING 955
SWIDTH 500 0
DWIDTH 24 0
BBX 24 48 0 -10
BITMAP
000000
000000
000000
000000
000000
000000
000000
000000
030000
030000
030000
030000
00C000
00C000
00C000
00C000
003000
003000
003000
003000
00CC00
00CC00
00CC00
00CC00
030300
030300
030300
030300
0C00C0
0C00C0
0C00C0
0C00C0
300030
300030
300030
300030
300030
300030
000000
000000
000000
000000
000000
000000
000000
000000
000000
000000
ENDCHAR
STARTCHAR mugreek
ENCODING 956
SWIDTH 500 0
DWIDTH 24 0
BBX 24 48 0 -10
BITMAP
000000
000000
000000
000000
000000
000000
000000
000000
000000
000000
000000
000000
000000
000000
000000
000000
300030
300030
300030
300030
300030
300030
300030
300030
300030
300030
300030
300030
300030
300030
300030
300030
3000F0
3000F0
300330
300330
3FFC30
3FFC30
300000
300000
300000
300000
300000
300000
300000
300000
000000
000000
ENDCHAR
STARTCHAR nu
ENCODING 957
SWIDTH 500 0
DWIDTH 24 0
BBX 24 48 0 -10
BITMAP
000000
000000
000000
000000
000000
000000
000000
000000
000000
000000
000000
000000
000000
000000
000000
000000
300030
300030
300030
300030
300030
300030
0C00C0
0C00C0
0C00C0
0C00C0
030300
030300
030300
030300
00CC00
00CC00
00CC00
00CC00
003000
003000
003000
003000
000000
000000
000000
000000
000000
000000
000000
000000
000000
000000
ENDCHAR
STARTCHAR xi
ENCODING 958
SWIDTH 500 0
DWIDTH 24 0
BBX 24 48 0 -10
BITMAP
000000
000000
000000
000000
000000
000000
000000
000000
03FFF0
03FFF0
0C0000
0C0000
300000
300000
300000
300000
300000
300000
0C0000
0C0000
03FFC0
03FFC0
0C0000
0C0000
300000
300000
300000
300000
300000
300000
300000
300000
300000
300000
0C0000
0C0000
03FFC0
03FFC0
000030
000030
000030
000030
000030
000030
0003C0
0003C0
000000
000000
ENDCHAR
STARTCHAR omicron
ENCODING 959
SWIDTH 500 0
DWIDTH 24 0
BBX 24 48 0 -10
BITMAP
000000
000000
000000
000000
000000
000000
000000
000000
000000
000000
000000
000000
000000
000000
000000
000000
03FF00
03FF00
0C00C0
0C00C0
300030
300030
300030
300030
300030
300030
300030
300030
300030
300030
300030
300030
300030
300030
0C00C0
0C00C0
03FF00
03FF00
000000
000000
000000
000000
000000
000000
000000
000000
000000
000000
ENDCHAR
STARTCHAR pi
ENCODING 960
SWIDTH 500 0
DWIDTH 24 0
BBX 24 48 0 -10
BITMAP
000000
000000
000000
000000
000000
000000
000000
000000
000000
000000
000000
000000
000000
000000
000000
000000
3FFFF0
3FFFF0
300030
300030
300030
300030
300030
300030
300030
300030
300030
300030
300030
300030
300030
300030
300030
300030
300030
300030
300030
300030
000000
000000
000000
000000
000000
000000
000000
000000
000000
000000
ENDCHAR
STARTCHAR rho
ENCODING 961
SWIDTH 500 0
DWIDTH 24 0
BBX 24 48 0 -10
BITMAP
000000
000000
000000
000000
000000
000000
000000
000000
000000
000000
000000
000000
000000
000000
000000
000000
03FF00
03FF00
0C00C0
0C00C0
300030
300030
300030
300030
300030
300030
300030
300030
300030
300030
300030
300030
300030
300030
3C00C0
3C00C0
33FF00
33FF00
300000
300000
300000
300000
300000
300000
300000
300000
000000
000000
ENDCHAR
STARTCHAR sigma1
ENCODING 962
SWIDTH 500 0
DWIDTH 24 0
BBX 24 48 0 -10
BITMAP
000000
000000
000000
000000
000000
000000
000000
000000
000000
000000
000000
000000
000000
000000
000000
000000
03FF00
03FF00
0C00C0
0C00C0
300030
300030
300000
300000
300000
300000
300000
300000
300000
300000
300000
300000
300000
300000
0C0000
0C0000
03FFC0
03FFC0
000030
000030
000030
000030
000030
000030
0003C0
0003C0
000000
000000
ENDCHAR
STARTCHAR sigma
ENCODING 963
SWIDTH 500 0
DWIDTH 24 0
BBX 24 48 0 -10
BITMAP
000000
000000
000000
000000
000000
000000
000000
000000
000000
000000
000000
000000
000000
000000
000000
000000
03FFFC
03FFFC
0C0300
0C0300
3000C0
3000C0
300030
300030
300030
300030
300030
300030
300030
300030
300030
300030
300030
300030
0C00C0
0C00C0
03FF00
03FF00
000000
000000
000000
000000
000000
000000
000000
000000
000000
000000
ENDCHAR
STARTCHAR tau
ENCODING 964
SWIDTH 500 0
DWIDTH 24 0
BBX 24 48 0 -10
BITMAP
000000
000000
000000
000000
000000
000000
000000
000000
000000
000000
000000
000000
000000
000000
000000
000000
3FFFF0
3FFFF0
003000
003000
003000
003000
003000
003000
003000
003000
003000
003000
003000
003000
003000
003000
003000
003000
003000
003000
000FC0
000FC0
000000
000000
000000
000000
000000
000000
000000
000000
000000
000000
ENDCHAR
STARTCHAR upsilon
ENCODING 965
SWIDTH 500 0
DWIDTH 24 0
BBX 24 48 0 -10
BITMAP
000000
000000
000000
000000
000000
000000
000000
000000
000000
000000
000000
000000
000000
000000
000000
000000
300030
300030
300030
300030
300030
300030
300030
300030
300030
300030
300030
300030
300030
300030
300030
300030
300030
300030
0C00C0
0C00C0
03FF00
03FF00
000000
000000
000000
000000
000000
000000
000000
000000
000000
000000
ENDCHAR
STARTCHAR phi
ENCODING 966
SWIDTH 500 0
DWIDTH 24 0
BBX 24 48 0 -10
BITMAP
000000
000000
000000
000000
000000
000000
000000
000000
000000
000000
000000
000000
000000
000000
000000
000000
0C0FC0
0C0FC0
303030
303030
303030
303030
303030
303030
303030
303030
303030
303030
303030
303030
303030
303030
303030
303030
0C30C0
0C30C0
03FF00
03FF00
003000
003000
003000
003000
003000
003000
003000
003000
000000
000000
ENDCHAR
STARTCHAR chi
ENCODING 967
SWIDTH 500 0
DWIDTH 24 0
BBX 24 48 0 -10
BITMAP
000000
000000
000000
000000
000000
000000
000000
000000
000000
000000
000000
000000
000000
000000
000000
000000
300030
300030
300030
300030
0C00C0
0C00C0
0C00C0
0C00C0
030300
030300
030300
030300
00CC00
00CC00
003000
003000
00CC00
00CC00
030300
030300
030300
030300
0C00C0
0C00C0
0C00C0
0C00C0
300030
300030
300030
300030
000000
000000
ENDCHAR
STARTCHAR psi
ENCODING 968
SWIDTH 500 0
DWIDTH 24 0
BBX 24 48 0 -10
BITMAP
000000
000000
000000
000000
000000
000000
000000
000000
000000
000000
000000
000000
000000
000000
000000
000000
303030
303030
303030
303030
303030
303030
303030
303030
303030
303030
303030
303030
303030
303030
303030
303030
303030
303030
0C30C0
0C30C0
03FF00
03FF00
003000
003000
003000
003000
003000
003000
003000
003000
000000
000000
ENDCHAR
STARTCHAR omega
ENCODING 969
SWIDTH 500 0
DWIDTH 24 0
BBX 24 48 0 -10
BITMAP
000000
000000
000000
000000
000000
000000
000000
000000
000000
000000
000000
000000
000000
000000
000000
000000
0C00C0
0C00C0
300030
300030
300030
300030
300030
300030
303030
303030
303030
303030
303030
303030
303030
303030
303030
303030
303030
303030
0FCFC0
0FCFC0
000000
000000
000000
000000
000000
000000
000000
000000
000000
000000
ENDCHAR
STARTCHAR iotadieresis
ENCODING 970
SWIDTH 500 0
DWIDTH 24 0
BBX 24 48 0 -10
BITMAP
000000
000000
000000
000000
000000
000000
000000
000000
030300
030300
030300
030300
030300
030300
000000
000000
03F000
03F000
003000
003000
003000
003000
003000
003000
003000
003000
003000
003000
003000
003000
003000
003000
003000
003000
003000
003000
000FC0
000FC0
000000
000000
000000
000000
000000
000000
000000
000000
000000
000000
ENDCHAR
STARTCHAR upsilondieresis
ENCODING 971
SWIDTH 500 0
DWIDTH 24 0
BBX 24 48 0 -10
BITMAP
000000
000000
000000
000000
000000
000000
000000
000000
030300
030300
030300
030300
030300
030300
000000
000000
300030
300030
300030
300030
300030
300030
300030
300030
300030
300030
300030
300030
300030
300030
300030
300030
300030
300030
0C00C0
0C00C0
03FF00
03FF00
000000
000000
000000
000000
000000
000000
000000
000000
000000
000000
ENDCHAR
STARTCHAR omicrontonos
ENCODING 972
SWIDTH 500 0
DWIDTH 24 0
BBX 24 48 0 -10
BITMAP
000000
000000
000000
000000
000000
000000
000000
000000
000300
000300
000C00
000C00
003000
003000
000000
000000
03FF00
03FF00
0C00C0
0C00C0
300030
300030
300030
300030
300030
300030
300030
300030
300030
300030
300030
300030
300030
300030
0C00C0
0C00C0
03FF00
03FF00
000000
000000
000000
000000
000000
000000
000000
000000
000000
000000
ENDCHAR
STARTCHAR upsilontonos
ENCODING 973
SWIDTH 500 0
DWIDTH 24 0
BBX 24 48 0 -10
BITMAP
000000
000000
000000
000000
000000
000000
000000
000000
000300
000300
000C00
000C00
003000
003000
000000
000000
300030
300030
300030
300030
300030
300030
300030
300030
300030
300030
300030
300030
300030
300030
300030
300030
300030
300030
0C00C0
0C00C0
03FF00
03FF00
000000
000000
000000
000000
000000
000000
000000
000000
000000
000000
ENDCHAR
STARTCHAR omegatonos
ENCODING 974
SWIDTH 500 0
DWIDTH 24 0
BBX 24 48 0 -10
BITMAP
000000
000000
000000
000000
000000
000000
000000
000000
000300
000300
000C00
000C00
003000
003000
000000
000000
0C00C0
0C00C0
300030
300030
300030
300030
300030
300030
303030
303030
303030
303030
303030
303030
303030
303030
303030
303030
303030
303030
0FCFC0
0FCFC0
000000
000000
000000
000000
000000
000000
000000
000000
000000
000000
ENDCHAR
STARTCHAR theta1
ENCODING 977
SWIDTH 500 0
DWIDTH 24 0
BBX 24 48 0 -10
BITMAP
000000
000000
000000
000000
000000
000000
000000
000000
00FF00
00FF00
0300C0
0300C0
0C0030
0C0030
0C0030
0C0030
0C0030
0C0030
030030
030030
00FFFC
00FFFC
000030
000030
000030
000030
FC0030
FC0030
0C0030
0C0030
0C0030
0C0030
0C0030
0C0030
0300C0
0300C0
00FF00
00FF00
000000
000000
000000
000000
000000
000000
000000
000000
000000
000000
ENDCHAR
STARTCHAR phi1
ENCODING 981
SWIDTH 500 0
DWIDTH 24 0
BBX 24 48 0 -10
BITMAP
000000
000000
000000
000000
000000
000000
000000
000000
000000
000000
000000
000000
003000
003000
003000
003000
03FF00
03FF00
0C30C0
0C30C0
303030
303030
303030
303030
303030
303030
303030
303030
303030
303030
303030
303030
303030
303030
0C30C0
0C30C0
03FF00
03FF00
003000
003000
003000
003000
000000
000000
000000
000000
000000
000000
ENDCHAR
STARTCHAR uni03F0
ENCODING 1008
SWIDTH 500 0
DWIDTH 24 0
BBX 24 48 0 -10
BITMAP
000000
000000
000000
000000
000000
000000
000000
000000
000000
000000
000000
000000
000000
000000
000000
000000
3F000C
3F000C
00C030
00C030
0030C0
0030C0
003300
003300
000C00
000C00
003C00
003C00
003000
003000
00CC00
00CC00
030C00
030C00
0C0300
0C0300
3000FC
3000FC
000000
000000
000000
000000
000000
000000
000000
000000
000000
000000
ENDCHAR
STARTCHAR uni03F1
ENCODING 1009
SWIDTH 500 0
DWIDTH 24 0
BBX 24 48 0 -10
BITMAP
000000
000000
000000
000000
000000
000000
000000
000000
000000
000000
000000
000000
000000
000000
000000
000000
03FF00
03FF00
0C00C0
0C00C0
300030
300030
300030
300030
300030
300030
300030
300030
300030
300030
300030
300030
300030
300030
3C00C0
3C00C0
33FF00
33FF00
300000
300000
300000
300000
0C0000
0C0000
03FFC0
03FFC0
000000
000000
ENDCHAR
ENDFONT
